<svg width="101" height="101" viewBox="0 0 101 101" fill="none" xmlns="http://www.w3.org/2000/svg">
<g clip-path="url(#clip0_708_8)">
<path d="M100.004 58.2123V84.2789C100.004 85.3456 99.4035 86.2789 98.5369 86.8123L74.8702 100.279C74.4702 100.546 73.9369 100.612 73.4702 100.612L67.6035 84.9456L73.4702 71.0789L86.6035 58.0123L99.6035 56.7456C99.8702 57.2123 100.004 57.6789 100.004 58.2123Z" fill="#665AA6"/>
<path d="M73.4702 71.2123V100.679C73.0035 100.679 72.4702 100.546 72.0702 100.346L48.6035 86.8789C47.7369 86.3456 47.1369 85.4123 47.1369 84.3456V58.2123C47.1369 57.6789 47.2702 57.2123 47.5369 56.7456L60.8035 58.2789L73.4702 71.2123Z" fill="#9F8EC5"/>
<path d="M99.6035 56.7456L73.4702 71.1456L47.4702 56.7456C47.7369 56.3456 48.1369 55.9456 48.6036 55.6789C48.6036 55.6789 72.1369 42.1456 72.2036 42.1456C72.6036 41.9456 73.0035 41.8789 73.4035 41.8789C73.8035 41.8789 74.2036 42.0122 74.6036 42.1456C74.6702 42.1456 98.4036 55.6789 98.4036 55.6789C98.9369 55.9456 99.2702 56.3456 99.6035 56.7456Z" fill="#BFA9D7"/>
<path d="M99.6035 56.7456L73.4702 71.1456V41.8789C73.8702 41.8789 74.2702 42.0122 74.6702 42.1456C74.7369 42.1456 98.4702 55.6789 98.4702 55.6789C98.9369 55.9456 99.2702 56.3456 99.6035 56.7456Z" fill="#9F8EC5"/>
<path d="M52.7369 17.212V43.0787C52.7369 44.1454 52.1369 45.0787 51.2702 45.612L27.8035 59.1454C27.4035 59.412 26.8702 59.4787 26.4035 59.4787L20.5369 43.812L26.4035 30.1454L39.6035 16.9454L52.4035 15.6787C52.6035 16.212 52.7369 16.6787 52.7369 17.212Z" fill="#665AA6"/>
<path d="M26.4035 30.1456V59.4123C25.9369 59.4123 25.4035 59.2789 25.0035 59.0789L1.47021 45.6123C0.60354 45.1456 0.00354004 44.1456 0.00354004 43.1456V17.2123C0.00354004 16.6789 0.136873 16.2123 0.40354 15.7456L13.6702 17.2789L26.4035 30.1456Z" fill="#9F8EC5"/>
<path d="M52.3369 15.7454L26.4035 30.1454L0.403534 15.7454C0.670201 15.3454 1.0702 14.9454 1.53687 14.6787C1.53687 14.6787 25.0702 0.945378 25.1369 0.945378C25.5369 0.812044 25.9369 0.678711 26.4035 0.678711C26.8035 0.678711 27.2035 0.812044 27.6035 0.945378C27.6702 0.945378 51.2035 14.6787 51.2035 14.6787C51.6702 14.9454 52.0035 15.3454 52.3369 15.7454Z" fill="#BFA9D7"/>
<path d="M52.3369 15.7454L26.4035 30.1454V0.678711C26.8035 0.678711 27.2035 0.812044 27.6035 0.945378C27.6702 0.945378 51.2035 14.6787 51.2035 14.6787C51.6702 14.9454 52.0035 15.3454 52.3369 15.7454Z" fill="#9F8EC5"/>
<path d="M76.4035 33.0788V56.5455C76.4035 58.2122 75.1369 59.4788 73.4702 59.4788C71.8035 59.4788 70.5369 58.2122 70.5369 56.5455V36.0122H43.9369C42.2702 36.0122 41.0035 34.7455 41.0035 33.0788C41.0035 31.4122 42.2702 30.1455 43.9369 30.1455H73.4035C75.0702 30.1455 76.4035 31.4788 76.4035 33.0788Z" fill="#909090"/>
<path d="M76.4035 33.0788V56.5455C76.4035 58.2122 75.1369 59.4788 73.4702 59.4788V30.1455C75.0702 30.1455 76.4035 31.4788 76.4035 33.0788Z" fill="#BFBFBF"/>
</g>
<defs>
<clipPath id="clip0_708_8">
<rect width="100" height="100" fill="white" transform="translate(0.00354004 0.678711)"/>
</clipPath>
</defs>
</svg>
