<svg width="101" height="101" viewBox="0 0 101 101" fill="none" xmlns="http://www.w3.org/2000/svg">
<g clip-path="url(#clip0_708_19)">
<path d="M100.556 9.47871V71.012L94.6895 76.8787H6.42288L0.556213 71.012V9.47871C0.556213 4.61204 4.48955 0.678711 9.35621 0.678711H91.7562C96.6229 0.678711 100.556 4.61204 100.556 9.47871Z" fill="#9F8EC5"/>
<path d="M100.556 9.47871V71.012L94.6895 76.8787H50.5562V0.678711H91.7562C96.6229 0.678711 100.556 4.61204 100.556 9.47871Z" fill="#665AA6"/>
<path d="M94.6895 9.47874V65.1454H6.42288V9.47874C6.42288 7.81208 7.68955 6.54541 9.35622 6.54541H91.7562C93.4229 6.54541 94.6895 7.81208 94.6895 9.47874Z" fill="white"/>
<path d="M94.6895 9.47874V65.1454H50.5562V6.54541H91.7562C93.4229 6.54541 94.6895 7.81208 94.6895 9.47874Z" fill="#E5E5E5"/>
<path d="M35.8895 79.812H65.2229V97.812H35.8895V79.812Z" fill="#BFBFBF"/>
<path d="M50.5562 79.812H65.2229V97.812H50.5562V79.812Z" fill="#909090"/>
<path d="M70.6229 24.3453L60.7562 24.0786L50.5562 35.8119L44.6895 47.212L50.5562 59.212C51.0895 59.212 51.5562 59.0786 52.0229 58.8119L69.6895 48.4119C69.8229 48.3453 69.9562 48.2119 70.0229 48.1453C70.6895 47.5453 71.0895 46.6786 71.0895 45.8786V25.8119C71.0895 25.2786 70.9562 24.7453 70.6229 24.3453Z" fill="#665AA6"/>
<path d="M40.2895 24.1455L30.4229 24.4122C30.1562 24.8788 30.0229 25.3455 30.0229 25.8788V45.9455C30.0229 46.7455 30.4229 47.6122 31.0895 48.2122C31.2229 48.2788 49.0895 58.8788 49.0895 58.8788C49.5562 59.1455 50.0229 59.2788 50.5562 59.2788V35.8122L40.2895 24.1455Z" fill="#9F8EC5"/>
<path d="M70.6229 24.3454L50.5562 35.8121L30.4895 24.3454C30.5562 24.2788 30.6229 24.1454 30.6895 24.0788C30.9562 23.7454 31.2229 23.4788 31.5562 23.2788L49.1562 12.8121C49.6229 12.5454 50.1562 12.4121 50.6229 12.4121C51.0895 12.4121 51.6229 12.5454 52.0895 12.8121L69.6895 23.2788C70.0229 23.5454 70.3562 23.8121 70.5562 24.0788C70.5562 24.1454 70.6229 24.2788 70.6229 24.3454Z" fill="#BFA9D7"/>
<path d="M70.6229 24.3454L50.5562 35.8121V12.4121C51.0229 12.4121 51.5562 12.5454 52.0229 12.8121L69.6229 23.2788C69.9562 23.5454 70.2895 23.8121 70.4895 24.0788C70.5562 24.1454 70.6229 24.2788 70.6229 24.3454Z" fill="#9F8EC5"/>
<path d="M100.556 71.0122V73.9455C100.556 78.8122 96.6229 82.7455 91.7562 82.7455H9.35621C4.48955 82.6789 0.556213 78.8122 0.556213 73.9455V71.0122H100.556Z" fill="#DDDDDD"/>
<path d="M100.556 71.0122V73.9455C100.556 78.8122 96.6229 82.7455 91.7562 82.7455H50.5562V71.0122H100.556Z" fill="#A7AAA8"/>
<path d="M82.7562 97.7454C82.7562 99.412 81.4895 100.679 79.8229 100.679H21.2895C19.6229 100.679 18.3562 99.412 18.3562 97.7454C18.3562 96.0787 19.6229 94.812 21.2895 94.812H79.8895C81.4895 94.812 82.7562 96.0787 82.7562 97.7454Z" fill="#DDDDDD"/>
<path d="M82.7562 97.7454C82.7562 99.412 81.4895 100.679 79.8229 100.679H50.5562V94.812H79.8229C81.4895 94.812 82.7562 96.0787 82.7562 97.7454Z" fill="#A7AAA8"/>
</g>
<defs>
<clipPath id="clip0_708_19">
<rect width="100" height="100" fill="white" transform="translate(0.556213 0.678711)"/>
</clipPath>
</defs>
</svg>
