<svg width="100" height="100" viewBox="0 0 100 100" fill="none" xmlns="http://www.w3.org/2000/svg">
<path d="M87.5 19.707V69.707H75L37.5 46.6406L12.5 31.25V19.707H87.5Z" fill="#BFA9D7"/>
<path d="M87.5 19.707V69.707H75L37.5 46.6406V19.707H87.5Z" fill="#9F8EC5"/>
<path d="M12.5 81.25H0V31.25H75V81.25H37.5" fill="white"/>
<path d="M37.5 31.25H75V81.25H37.5V31.25Z" fill="#E5E5E5"/>
<path d="M53.1055 53.3203V59.1797H37.5H9.39453V53.3203H37.5H53.1055Z" fill="#9F8EC5"/>
<path d="M9.39453 40.8203H65.625V46.6797H9.39453V40.8203Z" fill="#9F8EC5"/>
<path d="M37.5 53.3203H53.1055V59.1797H37.5V53.3203Z" fill="#665AA6"/>
<path d="M37.5 40.8203H65.6055V46.6797H37.5V40.8203Z" fill="#665AA6"/>
<path d="M9.39453 65.8203H34.3945V71.6797H9.39453V65.8203Z" fill="#9F8EC5"/>
<path d="M74.9805 56.25C88.7876 56.25 99.9805 45.0571 99.9805 31.25C99.9805 17.4429 88.7876 6.25 74.9805 6.25C61.1733 6.25 49.9805 17.4429 49.9805 31.25C49.9805 45.0571 61.1733 56.25 74.9805 56.25Z" fill="#BFA9D7"/>
<path d="M100 31.25C100 45.0586 88.8086 56.25 75 56.25V6.25C88.8086 6.25 100 17.4414 100 31.25Z" fill="#665AA6"/>
<path d="M75 18.2812L77.5977 24.9805L75 33.9258C72.9102 33.9258 71.2109 32.2266 71.2109 30.1367V22.0703C71.2109 19.9805 72.9102 18.2812 75 18.2812Z" fill="white"/>
<path d="M75 37.0898L76.5625 40.8789L75 44.668C72.9102 44.668 71.2109 42.9688 71.2109 40.8789C71.2109 38.7695 72.9102 37.0898 75 37.0898Z" fill="white"/>
<path d="M78.7891 40.8789C78.7891 42.9688 77.0898 44.668 75 44.668V37.0898C77.0898 37.0898 78.7891 38.7695 78.7891 40.8789Z" fill="#E5E5E5"/>
<path d="M78.7891 22.0703V30.1562C78.7891 32.2461 77.0898 33.9453 75 33.9453V18.2812C77.0898 18.2812 78.7891 19.9805 78.7891 22.0703Z" fill="#E5E5E5"/>
</svg>
