<svg width="109" height="109" viewBox="0 0 109 109" fill="none" xmlns="http://www.w3.org/2000/svg">
<g clip-path="url(#clip0_708_34)" filter="url(#filter0_d_708_34)">
<path d="M89.8556 21.1449L79.3223 25.8116C72.9223 19.4116 64.1223 15.4782 54.4556 15.4782C44.789 15.4782 35.989 19.4116 29.589 25.8116L24.0556 26.0782L19.2556 15.4116C28.2556 6.41156 40.7223 0.678223 54.4556 0.678223C68.189 0.678223 80.6556 6.41156 89.6556 15.4782L89.8556 21.1449Z" fill="#DDDDDD"/>
<path d="M79.3223 25.8116C72.9223 19.4116 64.1223 15.4782 54.4556 15.4782V0.678223C68.189 0.678223 80.6556 6.41156 89.6556 15.4782L89.8556 21.1449L79.3223 25.8116Z" fill="#665AA6"/>
<path d="M89.589 50.678C89.589 60.3447 85.6556 69.1447 79.2556 75.5447L78.7223 80.878L89.6556 85.9447C98.6556 76.878 104.456 64.4114 104.456 50.678C104.456 36.9447 98.6556 24.478 89.6556 15.478L79.3223 25.8114C85.6556 32.2114 89.589 41.0114 89.589 50.678Z" fill="#665AA6"/>
<path d="M89.6556 85.8781C80.6556 94.9448 68.189 100.678 54.4556 100.678C40.7223 100.678 28.2556 94.9448 19.2556 85.8781L18.189 75.2114L29.589 75.4781C35.989 81.8781 44.789 85.8114 54.4556 85.8114C64.1223 85.8114 72.9223 81.8781 79.3223 75.4781L89.6556 85.8781Z" fill="#665AA6"/>
<path d="M79.3223 75.5449L89.7223 85.9449C80.6556 94.9449 68.189 100.678 54.4556 100.678V85.8116C64.1223 85.8116 72.9223 81.8783 79.3223 75.5449Z" fill="#665AA6"/>
<path d="M19.3223 50.678C19.3223 41.0114 23.2556 32.2114 29.6556 25.8114L19.2556 15.478C10.2556 24.478 4.45563 36.9447 4.45563 50.678C4.45563 64.4114 10.2556 76.878 19.2556 85.878L29.589 75.5447C23.2556 69.1447 19.3223 60.3447 19.3223 50.678Z" fill="#665AA6"/>
<path d="M74.5223 39.2115L64.6556 38.9448L54.4556 50.6782L48.589 62.0782L54.4556 74.0782C54.989 74.0782 55.4556 73.9448 55.9223 73.6782L73.589 63.2782C73.7223 63.2115 73.8556 63.0782 73.9223 63.0115C74.589 62.4115 74.989 61.5448 74.989 60.7448V40.6782C74.989 40.1448 74.8556 39.6115 74.5223 39.2115Z" fill="#665AA6"/>
<path d="M44.189 38.9448L34.3223 39.2115C34.0556 39.6782 33.9223 40.1448 33.9223 40.6782V60.7448C33.9223 61.5448 34.3223 62.4115 34.989 63.0115C35.1223 63.0782 52.989 73.6782 52.989 73.6782C53.4556 73.9448 53.9223 74.0782 54.4556 74.0782V50.6782L44.189 38.9448Z" fill="#9F8EC5"/>
<path d="M74.5223 39.2117L54.4556 50.6783L34.389 39.2117C34.4556 39.145 34.5223 39.0117 34.589 38.945C34.8556 38.6117 35.1223 38.345 35.4556 38.145L53.0556 27.6783C53.5223 27.4117 54.0556 27.2783 54.5223 27.2783C54.989 27.2783 55.5223 27.4117 55.989 27.6783L73.589 38.145C73.9223 38.4117 74.2556 38.6783 74.4556 38.945C74.4556 39.0117 74.5223 39.145 74.5223 39.2117Z" fill="#BFA9D7"/>
<path d="M74.5223 39.2114L54.4556 50.6781V27.2114C54.9223 27.2114 55.4556 27.3448 55.9223 27.6114L73.5223 38.0781C73.8556 38.3448 74.189 38.6114 74.389 38.8781C74.4556 39.0114 74.5223 39.1448 74.5223 39.2114Z" fill="#9F8EC5"/>
</g>
<defs>
<filter id="filter0_d_708_34" x="0.455627" y="0.678223" width="108" height="108" filterUnits="userSpaceOnUse" color-interpolation-filters="sRGB">
<feFlood flood-opacity="0" result="BackgroundImageFix"/>
<feColorMatrix in="SourceAlpha" type="matrix" values="0 0 0 0 0 0 0 0 0 0 0 0 0 0 0 0 0 0 127 0" result="hardAlpha"/>
<feOffset dy="4"/>
<feGaussianBlur stdDeviation="2"/>
<feComposite in2="hardAlpha" operator="out"/>
<feColorMatrix type="matrix" values="0 0 0 0 0 0 0 0 0 0 0 0 0 0 0 0 0 0 0.25 0"/>
<feBlend mode="normal" in2="BackgroundImageFix" result="effect1_dropShadow_708_34"/>
<feBlend mode="normal" in="SourceGraphic" in2="effect1_dropShadow_708_34" result="shape"/>
</filter>
<clipPath id="clip0_708_34">
<rect width="100" height="100" fill="white" transform="translate(4.45563 0.678223)"/>
</clipPath>
</defs>
</svg>
