<svg width="1920" height="1179" viewBox="0 0 1920 1179" fill="none" xmlns="http://www.w3.org/2000/svg">
<g filter="url(#filter0_f_107_45)">
<circle cx="123.5" cy="198.5" r="158.5" fill="#943AFD" fill-opacity="0.87"/>
</g>
<g filter="url(#filter1_f_107_45)">
<ellipse cx="1717.5" cy="516" rx="204.5" ry="208" fill="#943AFD" fill-opacity="0.67"/>
</g>
<g filter="url(#filter2_f_107_45)">
<ellipse cx="1523.5" cy="760" rx="204.5" ry="208" fill="#FD3AC6" fill-opacity="0.36"/>
</g>
<g filter="url(#filter3_f_107_45)">
<ellipse cx="1342.5" cy="498" rx="204.5" ry="208" fill="#3E3AFD" fill-opacity="0.51"/>
</g>
<g filter="url(#filter4_d_107_45)">
<path d="M342.918 1116C400.768 1055.61 458.615 995.209 545.277 961.701C631.938 928.191 771.114 946.391 862.876 914.94C954.639 883.49 1001.86 809.32 1095.86 772.995C1189.85 736.669 1361.3 761.841 1426.83 696.984C1492.37 632.126 1434.3 457.733 1489.05 383.85C1543.8 309.968 1677.1 309.298 1755.33 253.688C1833.56 198.078 1895.99 124.134 1958.43 50.1894" stroke="url(#paint0_linear_107_45)" stroke-width="48" stroke-miterlimit="8" shape-rendering="crispEdges"/>
</g>
<g filter="url(#filter5_d_107_45)">
<path d="M418 1068C514.515 1047.84 611.03 1027.69 675.606 978.001C740.183 928.313 737.742 810.654 805.458 769.875C873.177 729.095 1008.96 782.999 1081.91 733.31C1154.87 683.627 1175.11 532.22 1243.18 471.75C1311.25 411.28 1417.01 451.125 1490.32 370.5C1563.62 289.875 1623.31 138.937 1683 -12" stroke="url(#paint1_linear_107_45)" stroke-width="15" stroke-miterlimit="8" shape-rendering="crispEdges"/>
</g>
<g filter="url(#filter6_d_107_45)">
<path d="M444 1068C455.18 992.167 466.361 916.335 508.919 889.819C551.478 863.304 625.05 930.827 699.348 908.91C773.643 886.99 853.708 755.121 954.693 758.304C1055.68 761.483 1215.09 922.343 1305.26 928.001C1395.42 933.655 1454.93 881.333 1495.68 792.244C1536.44 703.152 1480.9 487.495 1549.78 393.455C1618.67 299.414 1763.83 263.707 1909 228" stroke="url(#paint2_linear_107_45)" stroke-width="5" stroke-miterlimit="8" shape-rendering="crispEdges"/>
</g>
<defs>
<filter id="filter0_f_107_45" x="-199" y="-124" width="645" height="645" filterUnits="userSpaceOnUse" color-interpolation-filters="sRGB">
<feFlood flood-opacity="0" result="BackgroundImageFix"/>
<feBlend mode="normal" in="SourceGraphic" in2="BackgroundImageFix" result="shape"/>
<feGaussianBlur stdDeviation="82" result="effect1_foregroundBlur_107_45"/>
</filter>
<filter id="filter1_f_107_45" x="1349" y="144" width="737" height="744" filterUnits="userSpaceOnUse" color-interpolation-filters="sRGB">
<feFlood flood-opacity="0" result="BackgroundImageFix"/>
<feBlend mode="normal" in="SourceGraphic" in2="BackgroundImageFix" result="shape"/>
<feGaussianBlur stdDeviation="82" result="effect1_foregroundBlur_107_45"/>
</filter>
<filter id="filter2_f_107_45" x="1155" y="388" width="737" height="744" filterUnits="userSpaceOnUse" color-interpolation-filters="sRGB">
<feFlood flood-opacity="0" result="BackgroundImageFix"/>
<feBlend mode="normal" in="SourceGraphic" in2="BackgroundImageFix" result="shape"/>
<feGaussianBlur stdDeviation="82" result="effect1_foregroundBlur_107_45"/>
</filter>
<filter id="filter3_f_107_45" x="974" y="126" width="737" height="744" filterUnits="userSpaceOnUse" color-interpolation-filters="sRGB">
<feFlood flood-opacity="0" result="BackgroundImageFix"/>
<feBlend mode="normal" in="SourceGraphic" in2="BackgroundImageFix" result="shape"/>
<feGaussianBlur stdDeviation="82" result="effect1_foregroundBlur_107_45"/>
</filter>
<filter id="filter4_d_107_45" x="279.586" y="-11.2941" width="1743.18" height="1189.9" filterUnits="userSpaceOnUse" color-interpolation-filters="sRGB">
<feFlood flood-opacity="0" result="BackgroundImageFix"/>
<feColorMatrix in="SourceAlpha" type="matrix" values="0 0 0 0 0 0 0 0 0 0 0 0 0 0 0 0 0 0 127 0" result="hardAlpha"/>
<feOffset/>
<feGaussianBlur stdDeviation="23"/>
<feComposite in2="hardAlpha" operator="out"/>
<feColorMatrix type="matrix" values="0 0 0 0 0 0 0 0 0 0 0 0 0 0 0 0 0 0 0.4 0"/>
<feBlend mode="normal" in2="BackgroundImageFix" result="effect1_dropShadow_107_45"/>
<feBlend mode="normal" in="SourceGraphic" in2="effect1_dropShadow_107_45" result="shape"/>
</filter>
<filter id="filter5_d_107_45" x="392.467" y="-36.7581" width="1321.51" height="1138.1" filterUnits="userSpaceOnUse" color-interpolation-filters="sRGB">
<feFlood flood-opacity="0" result="BackgroundImageFix"/>
<feColorMatrix in="SourceAlpha" type="matrix" values="0 0 0 0 0 0 0 0 0 0 0 0 0 0 0 0 0 0 127 0" result="hardAlpha"/>
<feOffset dy="2"/>
<feGaussianBlur stdDeviation="12"/>
<feComposite in2="hardAlpha" operator="out"/>
<feColorMatrix type="matrix" values="0 0 0 0 0 0 0 0 0 0 0 0 0 0 0 0 0 0 0.54 0"/>
<feBlend mode="normal" in2="BackgroundImageFix" result="effect1_dropShadow_107_45"/>
<feBlend mode="normal" in="SourceGraphic" in2="effect1_dropShadow_107_45" result="shape"/>
</filter>
<filter id="filter6_d_107_45" x="421.527" y="200.572" width="1508.07" height="882.792" filterUnits="userSpaceOnUse" color-interpolation-filters="sRGB">
<feFlood flood-opacity="0" result="BackgroundImageFix"/>
<feColorMatrix in="SourceAlpha" type="matrix" values="0 0 0 0 0 0 0 0 0 0 0 0 0 0 0 0 0 0 127 0" result="hardAlpha"/>
<feOffset dy="-5"/>
<feGaussianBlur stdDeviation="10"/>
<feComposite in2="hardAlpha" operator="out"/>
<feColorMatrix type="matrix" values="0 0 0 0 0 0 0 0 0 0 0 0 0 0 0 0 0 0 0.83 0"/>
<feBlend mode="normal" in2="BackgroundImageFix" result="effect1_dropShadow_107_45"/>
<feBlend mode="normal" in="SourceGraphic" in2="effect1_dropShadow_107_45" result="shape"/>
</filter>
<linearGradient id="paint0_linear_107_45" x1="1077.21" y1="237.497" x2="1076.5" y2="1116" gradientUnits="userSpaceOnUse">
<stop stop-color="#313958"/>
<stop offset="0.652662" stop-color="#262F4E"/>
<stop offset="0.931473" stop-color="#283150" stop-opacity="0"/>
</linearGradient>
<linearGradient id="paint1_linear_107_45" x1="1050.5" y1="-12" x2="1050.5" y2="1068" gradientUnits="userSpaceOnUse">
<stop offset="0.744792" stop-color="#525F92"/>
<stop offset="0.989583" stop-color="#525F92" stop-opacity="0"/>
</linearGradient>
<linearGradient id="paint2_linear_107_45" x1="1176.5" y1="228" x2="1176.5" y2="1068" gradientUnits="userSpaceOnUse">
<stop offset="0.760417" stop-color="#202A4C"/>
<stop offset="1" stop-color="#505D8E" stop-opacity="0"/>
</linearGradient>
</defs>
</svg>
