<svg width="1225" height="1514" xmlns="http://www.w3.org/2000/svg" xmlns:xlink="http://www.w3.org/1999/xlink" xml:space="preserve" overflow="hidden"><defs><clipPath id="clip0"><rect x="1597" y="474" width="1225" height="1514"/></clipPath></defs><g clip-path="url(#clip0)" transform="translate(-1597 -474)"><path d="M2633.9 1510.69C2633.9 1638.31 2532.05 1742.11 2406.84 1742.11L1971.5 1742.11 2423.93 1281.01C2541.04 1290.1 2633.9 1389.04 2633.9 1510.69L2633.9 1510.69ZM1913.9 1252.19 1913.9 719.036 2421.07 719.036C2429.73 719.036 2438.28 719.513 2446.7 720.455L1913.9 1252.19ZM2736.49 954.553C2736.49 847.027 2683.8 751.641 2602.97 693.025L2821.1 474.075 2690.61 474.821 2517.31 648.769C2485.24 637.953 2450.92 632.089 2415.25 632.089L1818.65 632.089 1818.65 1480.32 2536.94 759.307C2601.63 800.099 2644.73 872.37 2644.73 954.553 2644.73 1081.57 2541.8 1184.9 2415.25 1184.9L2396.26 1184.9 1597.1 1987.07 1726.85 1987.07 1883.53 1829.81 2415.25 1829.81C2592.38 1829.81 2736.49 1685.16 2736.49 1507.36 2736.49 1390.11 2673.61 1287.58 2580.14 1231.14 2673.71 1174.71 2736.49 1071.87 2736.49 954.553L2736.49 954.553Z" fill="#FFFFFF" fill-rule="evenodd"/></g></svg>