<svg width="807" height="625" xmlns="http://www.w3.org/2000/svg" xmlns:xlink="http://www.w3.org/1999/xlink" xml:space="preserve" overflow="hidden"><defs><clipPath id="clip0"><rect x="2414" y="310" width="807" height="625"/></clipPath></defs><g clip-path="url(#clip0)" transform="translate(-2414 -310)"><path d="M3132.96 773.9 3131.04 775.956C3119.23 787.878 3104.94 797.333 3089.28 803.5L3088.46 803.5C3074.04 809.119 3058.66 811.996 3043.27 811.996 3020.61 812.408 2998.22 807.611 2977.76 797.882L2976.52 797.882 2973.5 796.374 2972.68 795.963C2953.72 785.822 2938.2 770.337 2927.9 751.426L2925.98 748 2884.09 792.811C2884.09 792.811 2875.71 835.704 2872 856.67L2872 858.041 2872.96 859 2872.96 859 2873.51 859.685C2916.09 906.278 2976.38 932.726 3039.56 932.726L3043 932.863 3045.74 933C3087.09 933 3127.74 922.448 3163.86 902.441L3164.96 901.893C3184.88 890.655 3203.14 876.678 3219.08 860.37L3221 858.315 3132.96 773.9Z" fill="#FFFFFF" fill-rule="evenodd"/><path d="M2540.65 565.05 2540.65 565.872 2557.73 629.614 2561.18 624.13C2579.63 597.537 2607.73 579.032 2639.55 572.863L2640.93 572.863C2652.08 570.533 2663.52 569.71 2674.95 570.258 2692.17 571.355 2708.83 576.29 2723.98 584.515L2725.22 585.2C2746.02 596.852 2764.48 612.342 2779.49 630.847L2781.97 634 2822.19 577.661 2822.19 577.661 2835 518.169 2833.62 517.072 2829.08 513.097C2802.77 488.971 2771.64 470.876 2737.62 459.773 2719.3 454.29 2700.29 451.274 2681.28 451L2680.46 451C2637.35 451.137 2595.06 461.966 2557.18 482.391L2555.94 483.076 2539 558.607 2540.65 565.05Z" fill="#FFFFFF" fill-rule="evenodd"/><path d="M2917 728.362 2917 727.261C2917.27 722.583 2916.17 704.149 2915.9 693.418L2916.17 690.529C2915.62 662.051 2924.84 634.261 2942.59 611.974L2943.14 611.149C2945.75 607.847 2948.37 604.821 2951.26 601.794 2974.37 577.993 3006.01 564.511 3039.17 564.511 3044.4 564.511 3049.76 564.786 3054.99 565.337L3055.82 565.337C3083.06 568.914 3108.37 581.295 3128.05 600.418L3130.11 602.482 3215 516.911 3212.94 514.847C3170.01 473.163 3113.6 448.399 3053.89 444.685L3053.07 444.685 3036.97 443.859C3001.06 443.584 2965.56 450.463 2932.41 464.082 2910.53 473.438 2890.31 486.507 2872.97 502.741L2872.01 503.566 2870.91 503.566 2870.91 504.117 2870.22 504.667 2870.22 504.667 2869.26 505.492C2863.2 511.408 2857.56 517.736 2852.47 524.477L2852.47 525.028 2838.71 584.872 2793.45 647.331 2793.45 690.942C2793.04 739.23 2765.25 782.978 2721.63 803.752L2720.81 804.165C2704.85 811.319 2687.65 815.033 2670.18 815.171 2601.39 815.721 2544.84 761.242 2542.91 692.455L2542.36 651.733 2542.5 649.119 2520.21 561.76 2539.06 480.729 2537 353.473 2414 310 2418.68 591.476 2418.68 592.714 2420.33 692.867C2420.33 696.307 2420.47 699.746 2420.74 703.185 2420.6 703.736 2420.6 704.424 2420.6 704.974 2425.42 773.761 2459.13 837.32 2513.33 879.968L2514.16 880.656C2558.87 916.149 2614.46 935.272 2671.55 934.997L2680.5 934.86 2682.42 934.997C2739.66 934.86 2794.69 913.398 2836.93 874.74L2837.61 874.052C2843.39 868.549 2848.9 862.633 2854.26 856.443L2854.67 855.892 2867.88 785.592 2916.45 729.875 2917 728.362Z" fill="#FFFFFF" fill-rule="evenodd"/></g></svg>