<svg width="1472" height="1619" xmlns="http://www.w3.org/2000/svg" xmlns:xlink="http://www.w3.org/1999/xlink" xml:space="preserve" overflow="hidden"><defs><clipPath id="clip0"><rect x="979" y="180" width="1472" height="1619"/></clipPath></defs><g clip-path="url(#clip0)" transform="translate(-979 -180)"><path d="M2352.75 1161.11C2269.57 1112.22 2162.53 1140.04 2113.63 1223.2L2109.93 1229.06 2026.28 1373.88C2023.29 1380.26 2019.81 1386.39 2015.79 1392.1L2014.92 1393.57C1994.44 1422.44 1961.01 1441.37 1923 1442L1986.95 1442 2306.87 1442C2358.54 1442 2395.79 1425.15 2416.06 1397.84L2425.28 1379.45C2458.91 1300 2429.21 1205.98 2352.75 1161.11Z" fill="#FFFFFF" fill-rule="evenodd"/><path d="M2313.48 1445.78 1993.71 1445.78 1533.04 1445.78C1494.98 1445.15 1461.44 1426.08 1441 1397L1469.11 1445.78 1629.01 1722.9C1655.86 1769.47 1690.64 1793.61 1725.82 1795.96 1729.53 1796.01 1733.27 1796.01 1736.98 1795.96 1795.95 1795.16 1854.5 1781.86 1899.52 1755.88L2309.13 1519.21C2352.49 1494.17 2391.81 1452.36 2421.65 1404.08 2422.78 1402.26 2423.87 1400.42 2425 1398.62 2405.31 1427.77 2367.04 1445.78 2313.48 1445.78Z" fill="#FFFFFF" fill-rule="evenodd"/><path d="M1626.18 1726.01 1466.26 1449.14 1437.34 1399.01C1433.49 1393.52 1430.13 1387.68 1427.24 1381.54L1243.86 1064.04C1238.08 1056.34 1233.11 1048 1229.35 1038.93 1223.74 1025.4 1220.63 1010.58 1220.63 994.991 1220.63 979.38 1223.74 964.539 1229.35 951L1203.97 994.991 1044.1 1271.83C1017.25 1318.2 1013.7 1360.31 1029.15 1391.92 1031.01 1395.29 1032.95 1398.62 1034.94 1401.97 1065.09 1452.54 1105.87 1496.55 1150.81 1522.51L1560.44 1758.96C1605.46 1784.92 1664.02 1798.2 1723 1799 1687.81 1796.66 1653.03 1772.53 1626.18 1726.01Z" fill="#FFFFFF" fill-rule="evenodd"/><path d="M1462.91 534 1268.62 534 1142.92 534C1089.33 534 1051.08 551.897 1031.38 580.998 1029.35 584.42 1027.35 587.863 1025.45 591.333 996.725 642.688 979 699.876 979 751.716L979 1224.51C979 1276.36 996.753 1333.62 1025.5 1385 1010.04 1353.4 1013.58 1311.29 1040.46 1264.92L1200.44 988.125 1225.83 944.14C1229.6 935.132 1234.57 926.749 1240.35 919.066L1423.94 601.499 1433.92 584.156 1434.86 582.517 1434.86 582.517C1454.81 554.257 1487.13 535.543 1524 534L1462.91 534Z" fill="#FFFFFF" fill-rule="evenodd"/><path d="M1987.1 529.738 1827.16 252.967C1800.4 206.635 1765.71 182.509 1730.64 180.057 1726.68 179.981 1722.75 179.981 1718.78 180.057 1659.93 180.895 1601.47 194.146 1556.54 220.052L1146.81 456.387C1101.9 482.327 1061.18 526.224 1031 576.722 1050.69 547.629 1088.92 529.738 1142.49 529.738L1462.34 529.738 1926.12 529.738C1962.88 531.28 1995.06 549.893 2015 578L1987.1 529.738Z" fill="#FFFFFF" fill-rule="evenodd"/><path d="M1719 1796C1722.66 1797.33 1726.34 1797.33 1730 1796 1726.34 1796.34 1722.66 1796.34 1719 1796Z" fill="#FFFFFF" fill-rule="evenodd"/><path d="M1025 594C1026.92 590.642 1028.94 587.311 1031 584 1028.72 587.195 1026.73 590.503 1025 594Z" fill="#FFFFFF" fill-rule="evenodd"/><path d="M1031 1398C1028.95 1394.67 1026.92 1391.36 1025 1388 1026.75 1391.45 1028.77 1394.78 1031 1398Z" fill="#FFFFFF" fill-rule="evenodd"/><path d="M1731 188C1727 186.667 1723.02 186.667 1719 188 1723.02 187.611 1726.99 187.611 1731 188Z" fill="#FFFFFF" fill-rule="evenodd"/><path d="M2420.36 563.313C2391.2 518.544 2353.88 480.083 2313.02 456.515L1903.26 220.022C1858.32 194.099 1799.89 180.842 1741 180 1776.07 182.454 1810.76 206.593 1837.52 252.959L1997.48 529.914 2124.28 751.418C2173.36 834.954 2280.89 862.88 2364.42 813.788 2447.95 764.772 2475.87 657.297 2426.81 573.779L2420.36 563.313Z" fill="#FFFFFF" fill-rule="evenodd"/></g></svg>