<svg width="318" height="318" viewBox="0 0 318 318" fill="none" xmlns="http://www.w3.org/2000/svg">
<path d="M271.36 160.06C250.16 140.98 233.2 136.74 216.24 149.46C201.4 160.06 195.04 179.14 202.46 196.1C210.94 215.18 225.78 221.54 254.4 217.3C244.86 233.2 232.14 242.74 218.36 252.28C218.36 251.22 217.3 251.22 217.3 251.22C222.6 232.14 214.12 219.42 200.34 208.82C187.62 198.22 182.32 185.5 181.26 169.6C180.2 159 180.2 148.4 179.14 138.86C178.08 134.62 175.96 130.38 172.78 126.14C169.6 121.9 165.36 121.9 162.18 126.14C159 130.38 156.88 134.62 156.88 139.92C155.82 147.34 156.88 155.82 156.88 163.24C156.88 170.66 156.88 178.08 156.88 185.5C155.82 196.1 151.58 204.58 142.04 208.82C134.62 214.12 129.32 220.48 126.14 228.96C121.9 239.56 122.96 250.16 129.32 258.64C131.44 261.82 133.56 263.94 134.62 268.18C127.2 266.06 120.84 263.94 113.42 260.76C77.3799 243.8 54.0599 216.24 48.7599 175.96C48.7599 173.84 46.6399 171.72 45.5799 169.6C29.6799 152.64 16.9599 135.68 8.47988 113.42C4.23988 94.3399 2.11988 74.1999 7.41988 54.0599C8.47988 48.7599 9.53988 42.3999 9.53988 36.0399C9.53988 29.6799 11.6599 27.5599 18.0199 27.5599C23.3199 27.5599 29.6799 27.5599 34.9799 28.6199C56.1799 31.7999 76.3199 37.0999 93.2799 51.9399C99.6399 57.2399 104.94 62.5399 110.24 68.8999C112.36 71.0199 114.48 72.0799 117.66 71.0199C145.22 58.2999 174.9 57.2399 203.52 67.8399C206.7 68.8999 208.82 68.8999 212 65.7199C230.02 41.3399 254.4 29.6799 284.08 25.4399C289.38 24.3799 294.68 23.3199 298.92 23.3199C306.34 23.3199 308.46 26.4999 309.52 33.9199C309.52 40.2799 310.58 47.6999 312.7 54.0599C318 77.3799 312.7 100.7 301.04 122.96C292.56 136.74 283.02 147.34 271.36 160.06ZM222.6 78.4399C246.98 95.3999 262.88 117.66 269.24 147.34C276.66 138.86 281.96 129.32 286.2 120.84C294.68 97.5199 297.86 75.2599 298.92 51.9399C298.92 44.5199 297.86 43.4599 290.44 45.5799C270.3 49.8199 252.28 58.2999 235.32 68.8999C231.08 71.0199 226.84 75.2599 222.6 78.4399ZM52.9999 146.28C60.4199 117.66 76.3199 95.3999 99.6399 79.4999C99.6399 78.4399 99.6399 77.3799 98.5799 77.3799C79.4999 60.4199 57.2399 50.8799 31.7999 45.5799C29.6799 44.5199 28.6199 46.6399 28.6199 49.8199C28.6199 55.1199 28.6199 60.4199 28.6199 65.7199C30.7399 89.0399 33.9199 111.3 44.5199 132.5C45.5799 136.74 49.8199 142.04 52.9999 146.28ZM102.82 145.22C80.5599 145.22 64.6599 162.18 64.6599 183.38C64.6599 204.58 81.6199 221.54 102.82 221.54C124.02 221.54 142.04 204.58 142.04 183.38C140.98 161.12 124.02 145.22 102.82 145.22Z" fill="white"/>
<path d="M177.02 224.72C182.32 225.78 187.62 225.78 192.92 227.9C198.22 228.96 198.22 231.08 196.1 235.32C187.62 249.1 168.54 250.16 160.06 236.38C157.94 233.2 159 228.96 163.24 227.9C166.42 226.84 171.72 225.78 177.02 224.72Z" fill="white"/>
<path d="M162.18 266.06C162.18 266.06 188.68 269.24 197.16 263.94C197.16 263.94 182.32 293.62 162.18 266.06Z" fill="white"/>
<path d="M251.22 44.52C225.78 23.32 192.92 10.6 157.94 10.6C122.96 10.6 90.0999 23.32 64.6599 43.46L77.3799 53C99.6399 36.04 127.2 26.5 156.88 26.5C183.38 26.5 208.82 34.98 228.96 47.7C228.96 48.76 243.8 46.64 251.22 44.52Z" fill="white"/>
<path d="M296.8 124.02C294.68 125.08 291.5 128.26 287.26 128.26C286.2 128.26 286.2 128.26 285.14 128.26C287.26 138.86 289.38 149.46 289.38 161.12C289.38 234.26 230.02 293.62 156.88 293.62C83.7398 292.56 24.3798 233.2 24.3798 160.06C24.3798 148.4 26.4998 136.74 28.6198 125.08C25.4398 121.9 22.2598 109.18 21.1998 103.88C13.7798 120.84 9.53979 140.98 9.53979 160.06C9.53979 241.68 75.2598 307.4 156.88 307.4C238.5 307.4 304.22 241.68 304.22 160.06C304.22 146.28 302.1 132.5 298.92 119.78C297.86 120.84 297.86 124.02 296.8 124.02Z" fill="white"/>
<path d="M113.42 175.96C118.103 175.96 121.9 172.163 121.9 167.48C121.9 162.797 118.103 159 113.42 159C108.736 159 104.94 162.797 104.94 167.48C104.94 172.163 108.736 175.96 113.42 175.96Z" fill="white"/>
<path d="M94.3398 205.64C97.2669 205.64 99.6398 203.267 99.6398 200.34C99.6398 197.413 97.2669 195.04 94.3398 195.04C91.4127 195.04 89.0398 197.413 89.0398 200.34C89.0398 203.267 91.4127 205.64 94.3398 205.64Z" fill="white"/>
<path d="M249.1 174.9C253.783 174.9 257.58 171.103 257.58 166.42C257.58 161.737 253.783 157.94 249.1 157.94C244.416 157.94 240.62 161.737 240.62 166.42C240.62 171.103 244.416 174.9 249.1 174.9Z" fill="white"/>
<path d="M228.96 208.82C232.472 208.82 235.32 205.973 235.32 202.46C235.32 198.947 232.472 196.1 228.96 196.1C225.447 196.1 222.6 198.947 222.6 202.46C222.6 205.973 225.447 208.82 228.96 208.82Z" fill="white"/>
<path d="M102.82 147.34C83.7398 147.34 67.8398 163.24 67.8398 182.32C67.8398 201.4 83.7398 217.3 102.82 217.3C121.9 217.3 137.8 201.4 137.8 181.26C137.8 161.12 121.9 147.34 102.82 147.34ZM102.82 212C85.8598 212 72.0798 198.22 72.0798 181.26C72.0798 164.3 85.8598 150.52 102.82 150.52C119.78 150.52 133.56 164.3 133.56 181.26C133.56 198.22 119.78 212 102.82 212Z" fill="white"/>
<path d="M238.5 147.34C219.42 147.34 204.58 162.18 204.58 181.26C204.58 200.34 219.42 215.18 238.5 215.18C257.58 215.18 272.42 200.34 272.42 181.26C272.42 163.24 256.52 147.34 238.5 147.34ZM238.5 212C221.54 212 208.82 198.22 208.82 182.32C208.82 165.36 222.6 152.64 238.5 152.64C255.46 152.64 268.18 166.42 268.18 182.32C268.18 198.22 254.4 212 238.5 212Z" fill="white"/>
</svg>
