<svg width="162" height="150" viewBox="0 0 162 150" fill="none" xmlns="http://www.w3.org/2000/svg">
<g clip-path="url(#clip0_545_7)">
<path d="M139.076 75.5186C128.03 66.3032 119.185 64.2686 110.38 70.4122C102.656 75.5186 99.3342 84.734 103.216 92.9521C107.619 102.168 115.343 105.239 130.271 103.205C125.308 110.904 118.665 115.492 111.501 120.12C111.501 119.601 110.941 119.601 110.941 119.601C113.702 110.386 109.3 104.242 102.096 99.1356C95.4521 94.0293 92.7306 87.8856 92.1703 80.1862C91.61 75.0798 91.61 69.9335 91.0497 65.3457C90.4894 63.3112 89.4088 61.2367 87.7279 59.2021C86.087 57.1675 83.8457 57.1675 82.2049 59.2021C80.564 61.2367 79.4433 63.3112 79.4433 65.8644C78.883 69.4548 79.4433 73.5638 79.4433 77.1144C79.4433 80.7048 79.4433 84.2952 79.4433 87.8856C78.883 92.992 76.6818 97.1011 71.7191 99.1356C67.837 101.689 65.0755 104.761 63.4346 108.87C61.2334 113.976 61.7937 119.122 65.0755 123.191C66.1961 124.747 67.2767 125.745 67.837 127.819C63.9549 126.782 60.6731 125.785 56.791 124.229C38.0207 116.051 25.8941 102.726 23.1326 83.258C23.1326 82.2207 22.012 81.2234 21.4917 80.1862C13.2072 72.008 6.60357 63.7899 2.16114 53.0585C-3.89369e-05 43.7633 -1.12065 34.0293 1.64086 24.2952C2.20116 21.742 2.76147 18.6702 2.76147 15.5984C2.76147 12.5266 3.88208 11.4894 7.16387 11.4894C9.92538 11.4894 13.2472 11.4894 16.0087 12.008C27.0547 13.5638 37.5405 16.117 46.3853 23.258C49.7071 25.8112 52.4686 28.3644 55.2301 31.4362C56.3507 32.4734 57.4313 32.992 59.1122 32.4734C73.4801 26.3298 88.9285 25.8112 103.817 30.9176C105.458 31.4362 106.578 31.4362 108.219 29.8803C117.584 18.1117 130.311 12.4867 145.76 10.4122C148.521 9.89362 151.283 9.375 153.484 9.375C157.366 9.375 158.446 10.9309 159.007 14.4814C159.007 17.5532 159.567 21.1436 160.648 24.2154C163.409 35.4654 160.648 46.7553 154.564 57.4867C150.122 64.2287 145.159 69.375 139.076 75.5186ZM113.702 36.0638C126.389 44.242 134.674 55.0133 137.995 69.3351C141.877 65.2261 144.639 60.6383 146.84 56.5293C151.243 45.2793 152.923 34.508 153.484 23.258C153.484 19.6676 152.923 19.1489 149.081 20.1862C138.596 22.2207 129.191 26.3298 120.386 31.4362C118.104 32.5133 115.903 34.5479 113.702 36.0638ZM25.3738 68.8564C29.2559 55.0133 37.5004 44.2819 49.6671 36.5824C49.6671 36.0638 49.6671 35.5452 49.1068 35.5452C39.1814 27.367 27.575 22.7793 14.3278 20.1862C13.2072 19.6676 12.6869 20.7048 12.6869 22.2207C12.6869 24.7739 12.6869 27.3271 12.6869 29.9202C13.8075 41.1702 15.4484 51.9415 20.9714 62.1941C21.4917 64.2287 23.7329 66.8218 25.3738 68.8564ZM51.308 68.3378C39.7016 68.3378 31.4171 76.516 31.4171 86.7686C31.4171 97.0213 40.2619 105.199 51.308 105.199C62.354 105.199 71.7191 97.0213 71.7191 86.7686C71.1988 76.0372 62.354 68.3378 51.308 68.3378Z" fill="white"/>
<path d="M89.9691 106.755C92.7306 106.237 95.4921 107.274 98.2537 108.311C100.055 109.109 101.015 109.867 99.8946 111.902C95.4921 118.564 85.5267 119.082 81.1243 112.42C80.0037 110.864 80.564 108.83 82.7652 108.311C84.4461 107.792 87.2076 107.274 89.9691 106.755Z" fill="white"/>
<path d="M128.59 19.7074C115.343 9.45477 98.2535 3.31116 80.0035 3.31116C61.7536 3.31116 44.7043 9.45477 31.457 19.1888L38.1007 23.8165C49.707 15.6383 64.0348 11.0106 79.4833 11.0106C93.2908 11.0106 106.538 15.1197 117.024 21.2633C117.024 21.742 124.748 20.7048 128.59 19.7074Z" fill="white"/>
<path d="M152.323 58.0851C151.203 58.6037 149.562 60.1197 147.36 60.1197C146.8 60.1197 146.8 60.1197 146.24 60.1197C147.36 65.2261 148.441 70.3724 148.441 75.9974C148.441 111.343 117.544 140.027 79.4433 140.027C41.3425 139.508 10.4456 110.824 10.4456 75.5186C10.4456 69.8936 11.5662 64.2686 12.6468 58.6037C11.0059 57.0479 9.32502 50.9043 8.76472 48.3511C4.8826 56.5293 2.6814 66.2633 2.6814 75.4787C2.6814 114.894 36.9001 146.649 79.4033 146.649C121.907 146.649 156.125 114.894 156.125 75.4787C156.125 68.8165 155.005 62.1543 153.364 56.0106C152.883 56.5692 152.883 58.0851 152.323 58.0851Z" fill="white"/>
<path d="M56.8311 83.1782C59.2724 83.1782 61.2335 81.3431 61.2335 79.0691C61.2335 76.7952 59.2724 74.9601 56.8311 74.9601C54.3898 74.9601 52.4287 76.7952 52.4287 79.0691C52.4287 81.3431 54.3898 83.1782 56.8311 83.1782Z" fill="white"/>
<path d="M46.9055 97.5399C48.4264 97.5399 49.6671 96.3829 49.6671 94.9867C49.6671 93.5904 48.4264 92.4335 46.9055 92.4335C45.3847 92.4335 44.144 93.5904 44.144 94.9867C44.144 96.3829 45.3847 97.5399 46.9055 97.5399Z" fill="white"/>
<path d="M127.51 82.6994C129.951 82.6994 131.912 80.8643 131.912 78.5904C131.912 76.3164 129.951 74.4813 127.51 74.4813C125.068 74.4813 123.107 76.3164 123.107 78.5904C123.067 80.8643 125.068 82.6994 127.51 82.6994Z" fill="white"/>
<path d="M117.024 99.0559C118.865 99.0559 120.346 97.6995 120.346 95.984C120.346 94.2686 118.865 92.9122 117.024 92.9122C115.183 92.9122 113.702 94.2686 113.702 95.984C113.702 97.6995 115.183 99.0559 117.024 99.0559Z" fill="white"/>
<path d="M51.3081 69.375C41.3827 69.375 33.0981 77.0745 33.0981 86.2899C33.0981 95.5053 41.3827 103.205 51.3081 103.205C61.2335 103.205 69.518 95.5053 69.518 85.8112C69.518 76.117 61.2735 69.375 51.3081 69.375ZM51.3081 100.612C42.4633 100.612 35.2993 93.9495 35.2993 85.7713C35.2993 77.5931 42.4633 70.9309 51.3081 70.9309C60.1529 70.9309 67.3168 77.5931 67.3168 85.7713C67.3168 93.9495 60.1529 100.612 51.3081 100.612Z" fill="white"/>
<path d="M121.987 69.375C112.061 69.375 104.337 76.5559 104.337 85.7713C104.337 94.9867 112.061 102.168 121.987 102.168C131.912 102.168 139.636 94.9867 139.636 85.7713C139.636 77.0346 131.352 69.375 121.987 69.375ZM121.987 100.612C113.142 100.612 106.538 93.9495 106.538 86.2899C106.538 78.1117 113.702 71.9681 121.987 71.9681C130.831 71.9681 137.435 78.6303 137.435 86.2899C137.435 93.9495 130.271 100.612 121.987 100.612Z" fill="white"/>
<path d="M75.7615 63.6302L86.2072 53.4175L93.3711 56.0904C94.6518 60.5983 98.3338 70.3723 97.2532 71.609C91.9303 77.9521 108.539 103.085 101.335 98.7765C95.6123 95.3457 76.1216 96.742 70.5986 99.3749L75.7214 86.2898V63.6302H75.7615Z" fill="white"/>
<path d="M86.4071 125.306C77.6423 126.184 69.3178 124.987 62.2339 122.234C61.3935 123.152 60.473 124.029 59.4724 124.787C67.1566 128.497 76.6818 130.253 86.8073 129.255C100.295 127.899 111.861 121.955 118.825 113.777C117.864 113.418 116.944 112.939 116.063 112.38C108.979 119.202 98.4937 124.109 86.4071 125.306Z" fill="white"/>
</g>
<defs>
<clipPath id="clip0_545_7">
<rect width="161.688" height="150" fill="white"/>
</clipPath>
</defs>
</svg>
