<svg width = "128" height = "42" viewBox = "0 0 128 42" fill = "none" xmlns = "http://www.w3.org/2000/svg">
<path d = "M92.8249 41.2107C100.65 41.2107 107.696 38.7542 113.956 33.8183C120.216 28.8823 124.821 22.1961 127.779 13.7366L110.302 2.64412C106.303 13.5677 99.7813 19.0257 90.7357 19.0257C87.9577 19.0257 84.9549 18.3655 81.7351 17.0452C78.5152 15.7248 74.2171 13.7443 68.8257 11.0959C61.8693 7.58009 55.9163 4.84727 50.9592 2.92048C46.0022 0.970653 40.8279 0.00341797 35.4365 0.00341797C27.6115 0.00341797 20.5653 2.42151 14.3053 7.26536C8.04528 12.1092 3.44014 18.8492 0.482361 27.4852L17.9594 38.5777C22.1303 27.4852 28.6524 21.9351 37.5257 21.9351C40.3038 21.9351 43.1792 22.5492 46.1369 23.7851C49.0872 25.0134 53.5202 27.1321 59.4357 30.1259C66.3921 33.6494 72.3451 36.3822 77.3022 38.3167C82.2593 40.2512 87.4335 41.2184 92.8249 41.2184V41.2107Z" fill = "white"/>
</svg>
