<svg width = "160" height = "109" viewBox = "0 0 160 109" fill = "none" xmlns = "http://www.w3.org/2000/svg">
<path d = "M135.958 42.3543C132.211 18.0473 109.667 0 81.8779 0C53.3305 0 30.7958 17.3621 24.7832 42.3543H0V60.4016H23.2842C26.2905 88.8661 51.0737 109 81.8779 109C105.162 109 124.699 100.669 132.96 86.0866L111.924 73.5906C106.669 81.9213 95.4021 86.7796 81.8779 86.7796C63.8568 86.7796 51.0821 76.3701 48.0758 59.7086H153.238L160 41.6536H135.958V42.3543ZM80.379 20.1339C96.1516 20.1339 108.168 29.1653 108.926 42.3543H49.5663C54.08 28.4646 65.3474 20.1339 80.3705 20.1339H80.379Z" fill = "white"/>
</svg>
