<svg width="139" height="86" viewBox="0 0 139 86" fill="none" xmlns="http://www.w3.org/2000/svg">
<path d="M53.7259 2.8607C29.8556 12.039 27.669 35.5443 20.8244 46.5219C13.8988 57.63 -1.96764 63.759 0.202064 69.419C2.37166 75.08 18.257 69 30.8245 72.612C43.2432 76.181 60.5705 92.185 84.441 83.006C96.601 78.331 105.406 68.708 109.455 57.309C109.891 56.085 109.076 54.7769 107.785 54.656C106.982 54.5805 106.211 55.0016 105.849 55.7228C102.187 63.03 95.904 69.047 87.681 72.208C74.107 77.427 59.2547 73.33 50.133 63.053C48.0614 60.719 46.2894 58.062 44.8907 55.1262C44.5062 54.3181 44.1405 53.4967 43.8162 52.6471C43.4901 51.7974 43.213 50.9421 42.9585 50.083C50.133 46.7334 58.4121 43.1856 67.7977 39.5774C77.0005 36.039 85.376 33.1691 92.833 30.8731C97.877 29.321 102.501 28.0296 106.677 26.9741C106.978 26.8986 107.276 26.823 107.572 26.7494C108.204 26.5927 108.852 26.9307 109.086 27.5386L109.09 27.55C109.227 27.9106 109.346 28.2731 109.474 28.6357C110.3 30.9751 110.918 33.339 111.327 35.7086C111.506 36.7452 112.637 37.3097 113.565 36.8113C116.992 34.9685 120.126 33.171 122.928 31.4414C133.365 25.0029 139.152 19.5424 137.965 16.4478C136.779 13.3512 128.832 13.1737 116.773 15.3828C112.941 16.0852 108.692 17.0293 104.113 18.198C103.321 18.4001 102.52 18.6097 101.71 18.8249C97.857 19.8483 93.792 21.0208 89.561 22.3331C81.6905 24.7744 73.2474 27.6991 64.5309 31.0506C56.3763 34.1868 48.6476 37.4381 41.5598 40.6782C41.4731 26.9269 49.773 13.9271 63.3471 8.70831C71.5678 5.54751 80.2578 5.8062 87.862 8.7838C88.612 9.0784 89.466 8.87441 90.015 8.27971C90.893 7.32621 90.624 5.80811 89.483 5.18881C78.8591 -0.564294 65.8863 -1.8143 53.7259 2.8607Z" fill="white"/>
</svg>
