<svg width="149" height="150" viewBox="0 0 149 150" fill="none" xmlns="http://www.w3.org/2000/svg">
<g clip-path="url(#clip0_631_7)">
<path d="M19.338 0H0V19.2879H19.338V0Z" fill="white"/>
<path d="M64.0451 0H44.707V19.2879H64.0451V0Z" fill="white"/>
<path d="M108.752 0H89.4141V19.2879H108.752V0Z" fill="white"/>
<path d="M148.343 9.64389C148.343 7.13752 146.306 5.10571 143.793 5.10571C141.28 5.10571 139.243 7.13752 139.243 9.64389C139.243 12.1503 141.28 14.1821 143.793 14.1821C146.306 14.1821 148.343 12.1503 148.343 9.64389Z" fill="white"/>
<path d="M148.343 54.9166C148.343 52.4102 146.306 50.3784 143.793 50.3784C141.28 50.3784 139.243 52.4102 139.243 54.9166C139.243 57.423 141.28 59.4548 143.793 59.4548C146.306 59.4548 148.343 57.423 148.343 54.9166Z" fill="white"/>
<path d="M103.633 54.9166C103.633 52.4102 101.596 50.3784 99.0832 50.3784C96.5703 50.3784 94.5332 52.4102 94.5332 54.9166C94.5332 57.423 96.5703 59.4548 99.0832 59.4548C101.596 59.4548 103.633 57.423 103.633 54.9166Z" fill="white"/>
<path d="M58.9261 100.189C58.9261 97.6828 56.889 95.651 54.3762 95.651C51.8633 95.651 49.8262 97.6828 49.8262 100.189C49.8262 102.696 51.8633 104.727 54.3762 104.727C56.889 104.727 58.9261 102.696 58.9261 100.189Z" fill="white"/>
<path d="M148.343 100.189C148.343 97.6828 146.306 95.651 143.793 95.651C141.28 95.651 139.243 97.6828 139.243 100.189C139.243 102.696 141.28 104.727 143.793 104.727C146.306 104.727 148.343 102.696 148.343 100.189Z" fill="white"/>
<path d="M103.633 100.189C103.633 97.6828 101.596 95.651 99.0832 95.651C96.5703 95.651 94.5332 97.6828 94.5332 100.189C94.5332 102.696 96.5703 104.727 99.0832 104.727C101.596 104.727 103.633 102.696 103.633 100.189Z" fill="white"/>
<path d="M58.9261 145.462C58.9261 142.955 56.889 140.924 54.3762 140.924C51.8633 140.924 49.8262 142.955 49.8262 145.462C49.8262 147.968 51.8633 150 54.3762 150C56.889 150 58.9261 147.968 58.9261 145.462Z" fill="white"/>
<path d="M14.2191 145.462C14.2191 142.955 12.182 140.924 9.66912 140.924C7.15624 140.924 5.11914 142.955 5.11914 145.462C5.11914 147.968 7.15624 150 9.66912 150C12.182 150 14.2191 147.968 14.2191 145.462Z" fill="white"/>
<path d="M148.343 145.462C148.343 142.955 146.306 140.924 143.793 140.924C141.28 140.924 139.243 142.955 139.243 145.462C139.243 147.968 141.28 150 143.793 150C146.306 150 148.343 147.968 148.343 145.462Z" fill="white"/>
<path d="M103.633 145.462C103.633 142.955 101.596 140.924 99.0832 140.924C96.5703 140.924 94.5332 142.955 94.5332 145.462C94.5332 147.968 96.5703 150 99.0832 150C101.596 150 103.633 147.968 103.633 145.462Z" fill="white"/>
<path d="M19.338 45.2726H0V64.5605H19.338V45.2726Z" fill="white"/>
<path d="M64.0451 45.2726H44.707V64.5605H64.0451V45.2726Z" fill="white"/>
<path d="M19.338 90.5453H0V109.833H19.338V90.5453Z" fill="white"/>
</g>
<defs>
<clipPath id="clip0_631_7">
<rect width="148.343" height="150" fill="white"/>
</clipPath>
</defs>
</svg>
