<svg width="139" height="142" viewBox="0 0 139 142" fill="none" xmlns="http://www.w3.org/2000/svg">
<g filter="url(#filter0_d_88_396)">
<path d="M47.3851 16.0034C45.377 16.0034 44.4883 16.4553 43.2568 17.3591C41.9204 18.1482 40.584 19.382 39.4644 21.0748C37.1274 24.4534 35.5601 29.5248 35.5601 36.9634C35.5601 40.3491 35.784 43.95 36.3437 47.5581C32.8872 48.3472 29.6475 49.3586 26.7507 50.4919C22.1746 52.2924 18.2703 54.4372 15.2615 57.2491C12.2528 60.0681 10.0137 63.6762 9.79681 67.8438C9.57291 71.3371 10.7974 74.8304 12.8056 77.3124C14.8137 79.7871 17.1577 81.48 19.8376 83.2804C22.1746 84.8585 25.4143 84.1842 27.0866 81.8171C28.6469 79.45 27.9752 76.1862 25.6382 74.4933C23.1822 72.9152 21.6219 71.5667 20.9502 70.7776C20.2784 69.8738 20.1665 69.759 20.2784 68.4105C20.2784 67.6214 20.7262 66.4952 22.3986 65.0247C24.0779 63.4467 26.8627 61.761 30.6551 60.2905C32.8872 59.3938 35.5601 58.6048 38.4638 57.9233C39.3525 61.5314 40.3531 65.1395 41.6965 68.8552C33.8878 82.7209 30.2073 95.1161 30.3192 105.037C30.4312 111.005 31.1029 117.547 36.7915 121.262C40.1361 123.515 44.1525 123.744 47.3851 123.178C50.5128 122.503 53.1927 121.262 55.6417 120.251C57.4259 119.569 58.6504 117.991 58.8743 116.076C59.0982 114.161 58.4265 112.36 56.8662 111.127C55.3058 109.993 53.4096 109.764 51.6253 110.553C49.0574 111.686 46.8254 112.583 45.377 112.812C43.9286 113.149 43.3688 113.035 42.4802 112.475C42.1443 112.246 40.8009 109.541 40.6959 104.807C40.584 99.2837 42.4802 91.1781 46.7134 81.5947C53.4096 95.568 61.7781 107.289 70.0277 115.179C74.2679 119.232 78.5081 122.281 82.7484 124.074C87.1005 125.882 91.8935 126.563 96.1338 124.418L96.4696 124.304L96.6935 124.081C100.71 121.377 102.046 116.865 102.606 112.36C103.166 107.963 102.823 103.007 102.158 97.9352C100.71 87.6776 97.5822 76.7457 94.7973 68.97C94.2375 67.1695 92.6772 65.8138 90.781 65.4767C88.8848 65.1395 86.9886 65.8138 85.7571 67.2843C84.5326 68.7476 84.3087 70.7776 84.9804 72.5781C87.5413 79.6795 90.5571 90.2742 91.7816 99.4057C92.4533 103.91 92.5652 108.193 92.2294 111.119C91.8935 113.824 91.2218 114.728 90.8929 114.95C90.2212 115.179 89.1087 115.402 86.7647 114.39C84.1967 113.264 80.7402 110.897 77.0597 107.511C69.9227 100.754 61.8901 89.5928 55.7536 76.5233C54.6341 74.2709 53.7455 71.9038 52.8498 69.5367C54.0813 67.3919 55.4178 65.1395 56.8662 62.8871C58.5455 60.1829 60.3227 57.701 62.114 55.219C64.451 55.219 66.907 55.3338 69.4749 55.4486C83.8609 56.2376 97.0224 59.2791 106.063 63.2243C110.52 65.2543 114.095 67.5067 116.103 69.4219C118.105 71.3371 118.552 72.6928 118.44 73.4819C118.328 75.2824 116.432 77.5347 111.751 78.8905C108.959 79.6795 107.399 82.6061 108.183 85.4252C108.959 88.2442 111.863 89.8223 114.648 89.0333C121.785 86.8885 128.369 81.8171 128.705 74.0414C128.929 69.3071 126.473 65.1395 123.128 61.8686C119.784 58.6048 115.32 56.0081 110.079 53.641C99.5903 49.0214 85.7571 45.8653 70.4755 44.9614C72.9244 42.3791 75.3874 39.8972 77.7244 37.86C84.5326 31.892 91.0049 28.9653 93.9017 28.8505C95.0212 28.8505 95.581 28.9653 96.0218 29.3024C96.9104 29.8619 97.1413 30.3139 97.2463 31.44C97.3582 32.5734 97.0224 34.4886 95.6859 36.8558C94.6854 38.4339 94.6854 40.4567 95.6859 42.1496C96.5816 43.8424 98.3658 44.7391 100.262 44.7391C102.151 44.7391 103.831 43.7277 104.719 42.0348C106.839 38.3191 107.959 34.3739 107.623 30.4286C107.287 26.4834 105.055 22.7677 101.71 20.5082C99.2615 18.9301 96.3577 18.2558 93.5658 18.3706C86.0929 18.7077 78.732 23.1048 71.0352 29.862C66.3472 33.922 61.5542 38.9934 56.9781 44.7391C53.4096 44.8538 49.8411 45.191 46.4965 45.5281C46.0487 42.4867 45.8248 39.4453 45.8248 36.741C45.8248 30.7658 47.0493 27.9467 47.8329 26.8205L48.1688 26.4834C51.1775 26.7129 52.409 27.6096 55.4178 30.3139C57.6498 32.2291 60.8825 31.892 62.7787 29.7544C64.6749 27.502 64.339 24.231 62.2189 22.3158C58.8813 19.6115 54.3122 16.0034 47.3921 16.0034H47.3851ZM48.9525 55.9005C48.8405 56.1229 48.7356 56.2376 48.6236 56.46C48.6236 56.3524 48.5117 56.1229 48.5117 56.0081C48.6236 56.0081 48.8405 55.9005 48.9525 55.9005ZM69.258 63.0019C65.0177 63.0019 61.4492 66.4952 61.4492 70.8924C61.4492 75.2824 64.9058 78.7757 69.258 78.7757C73.6102 78.7757 77.0667 75.2824 77.0667 70.8852C77.0667 66.4952 73.4982 62.9947 69.258 62.9947V63.0019Z" fill="white"/>
</g>
<defs>
<filter id="filter0_d_88_396" x="5.77054" y="16.0034" width="126.949" height="117.75" filterUnits="userSpaceOnUse" color-interpolation-filters="sRGB">
<feFlood flood-opacity="0" result="BackgroundImageFix"/>
<feColorMatrix in="SourceAlpha" type="matrix" values="0 0 0 0 0 0 0 0 0 0 0 0 0 0 0 0 0 0 127 0" result="hardAlpha"/>
<feOffset dy="4"/>
<feGaussianBlur stdDeviation="2"/>
<feComposite in2="hardAlpha" operator="out"/>
<feColorMatrix type="matrix" values="0 0 0 0 0 0 0 0 0 0 0 0 0 0 0 0 0 0 0.25 0"/>
<feBlend mode="normal" in2="BackgroundImageFix" result="effect1_dropShadow_88_396"/>
<feBlend mode="normal" in="SourceGraphic" in2="effect1_dropShadow_88_396" result="shape"/>
</filter>
</defs>
</svg>
