<svg width = "81" height = "113" viewBox = "0 0 81 113" fill = "none" xmlns = "http://www.w3.org/2000/svg">
<path d = "M74.6518 32.9074H55.5779L69.1142 18.9865C71.5754 16.4554 71.5754 12.6588 69.1142 10.1277C66.6531 7.59664 62.9614 7.59664 60.5002 10.1277L46.9639 24.0486V6.3311C46.9639 2.53449 44.5028 0.00341797 40.8111 0.00341797C37.1194 0.00341797 34.6582 2.53449 34.6582 6.3311V24.0486L21.1219 10.1277C18.6608 7.59664 14.9691 7.59664 12.5079 10.1277C10.0468 12.6588 10.0468 16.4554 12.5079 18.9865L26.0442 32.9074H6.97035C3.27863 32.9074 0.81749 35.4384 0.81749 39.2351C0.81749 43.0317 3.27863 45.5627 6.97035 45.5627H26.0442L12.5079 58.8509C10.0468 61.382 10.0468 65.1786 12.5079 67.7096C13.7385 68.9752 14.9691 69.6079 16.8149 69.6079C18.6608 69.6079 19.8914 68.9752 21.1219 67.7096L34.6582 53.7887V84.7944H29.7359C26.0442 84.7944 23.5831 87.3254 23.5831 91.1221C23.5831 94.9187 26.0442 97.4497 29.7359 97.4497H34.6582V105.676C34.6582 109.472 37.1194 112.003 40.8111 112.003C44.5028 112.003 46.9639 109.472 46.9639 105.676V97.4497H51.8862C55.5779 97.4497 58.0391 94.9187 58.0391 91.1221C58.0391 87.3254 55.5779 84.7944 51.8862 84.7944H46.9639V54.4215L60.5002 68.3424C61.7308 69.6079 63.5767 70.2407 64.8072 70.2407C66.0378 70.2407 67.8837 69.6079 69.1142 68.3424C71.5754 65.8113 71.5754 62.0147 69.1142 59.4836L55.5779 45.5627H74.6518C78.3435 45.5627 80.8047 43.0317 80.8047 39.2351C80.8047 35.4384 77.7282 32.9074 74.6518 32.9074Z" fill = "white"/>
</svg>
