<svg width="1678" height="1679" xmlns="http://www.w3.org/2000/svg" xmlns:xlink="http://www.w3.org/1999/xlink" xml:space="preserve" overflow="hidden"><defs><clipPath id="clip0"><rect x="1468" y="238" width="1678" height="1679"/></clipPath></defs><g clip-path="url(#clip0)" transform="translate(-1468 -238)"><path d="M1565 1469.34C1668.98 1666 1846.81 1813.27 2059.38 1878.79 2271.95 1944.31 2501.84 1922.7 2698.48 1818.7 2895.13 1714.69 3042.41 1536.82 3107.94 1324.21 3173.45 1111.6 3151.4 881.668 3047.43 685 3141.19 980.561 2814.75 1084.39 2814.75 1084.39L2419.68 1290.92 2009.07 1505.12C2009.07 1505.12 1729.23 1685.31 1565 1469.34Z" fill="#DEDEDE" fill-rule="evenodd"/><path d="M3052.53 1460C3154.06 1262.19 3172.82 1032.16 3104.67 820.516 3036.51 608.872 2887.04 432.952 2689.12 331.454 2491.2 229.955 2261.05 211.194 2049.3 279.298 1837.54 347.401 1661.54 496.792 1560 694.601 1748.42 448.52 2020.84 656.795 2020.84 656.795L2416.5 862.113 2827.33 1075.75C2827.33 1075.75 3135.34 1201.78 3052.53 1460Z" fill="#D3D3D3" fill-rule="evenodd"/><path d="M2307 238C2084.48 238 1871.08 326.395 1713.74 483.736 1556.4 641.077 1468 854.481 1468 1077 1468 1299.52 1556.4 1512.92 1713.74 1670.26 1871.08 1827.61 2084.48 1916 2307 1916 2021.42 1868.05 2021.42 1498.08 2021.42 1498.08L2021.42 1077 2021.42 648.465C2021.42 648.465 2021.42 289.111 2307 238Z" fill="#F2F2F2" fill-rule="evenodd"/><path d="M2304 1916C2020.82 1786.79 2021.15 1498.34 2021.15 1498.34 2021.15 1498.34 1670.16 1696.68 1552 1443 1552 1443 1750.08 1917.68 2304 1916Z" fill="#DEDEDE" fill-rule="evenodd"/></g></svg>