<svg width = "138" height = "142" viewBox = "0 0 138 142" fill = "none" xmlns = "http://www.w3.org/2000/svg">
<path d = "M119.996 34.0593C116.432 29.1938 106.325 20.6728 100.97 18.2343C97.4004 17.0136 93.8294 16.4004 90.8507 17.6106C89.0628 18.8227 87.2748 20.0348 86.6756 22.4638C86.0763 24.8927 86.0725 27.3226 86.6649 29.146C84.8779 29.7507 82.4956 30.3543 80.7086 30.9589C76.5432 29.7373 72.3768 29.1231 68.2094 29.1164C42.0146 29.0744 20.5473 50.9093 20.5045 77.6385C20.4616 104.368 41.8587 126.271 68.0535 126.313C94.2484 126.355 115.716 104.52 115.758 77.7912C115.77 70.5015 113.995 63.8163 111.623 57.7377C111.031 55.9143 111.038 51.6619 112.23 50.4489C112.231 49.8414 112.827 49.8424 112.827 49.8424L114.613 49.8452C115.803 49.8471 116.994 49.8491 118.186 49.2435C120.569 48.0323 122.359 45.6053 122.958 43.1763C122.369 39.5305 121.778 36.4921 119.996 34.0593ZM67.4699 119.023C44.8471 118.986 27.0171 100.126 27.0532 77.649C27.0892 55.1722 45.5749 36.3699 67.6024 36.4052C90.2252 36.4415 108.055 55.302 108.019 77.7788C107.983 100.256 90.0927 119.059 67.4699 119.023ZM114.03 41.947C113.435 41.9461 112.839 41.9451 111.65 41.3357L110.462 39.5114C110.462 39.5114 107.481 41.9365 105.689 45.5786C105.688 46.186 105.093 46.1851 105.092 46.7926C100.933 41.3186 96.1776 37.0586 90.2291 34.0116C90.8254 33.4051 91.4207 33.406 92.0171 32.7995C94.4013 30.9809 96.1912 28.5538 96.1912 28.5538L92.6241 25.5107L92.627 23.6883C92.627 23.6883 92.628 23.0808 93.2233 23.0817C94.415 22.4762 96.201 22.479 97.985 23.6969C102.149 25.526 111.662 33.4385 114.633 37.0882C115.226 38.3041 115.821 38.9125 115.224 40.1265C115.222 41.3415 114.625 41.948 114.03 41.947Z" fill = "white"/>
<path fill-rule = "evenodd" clip-rule = "evenodd" d = "M65.5095 72.3814C73.4695 70.0138 80.8565 68.8271 87.6819 69.4204C97.344 70.0079 104.737 72.3814 104.737 77.1284C104.737 98.4782 88.2492 116.268 67.7846 116.268C47.3142 116.268 30.8267 97.8789 31.3941 77.1284C31.3941 71.7881 36.5117 72.3814 46.7469 73.5682C51.8645 74.1616 58.1167 74.7549 65.5095 72.3814Z" fill = "white"/>
</svg>
