<svg width = "113" height = "109" viewBox = "0 0 113 109" fill = "none" xmlns = "http://www.w3.org/2000/svg">
<path d = "M50.4767 2.13336L43.017 0L38.4302 5.85529L59.0845 45.1977L50.4767 2.13336V2.13336ZM67.1101 21.2725L62.5233 18.6147L57.931 21.802L62.5233 41.4758L67.1101 21.2725V21.2725ZM113 27.6471V20.743L105.54 18.6198L70.5488 48.9247L113 27.6471ZM81.4527 22.8662L76.2892 23.4008L69.4062 43.0695L83.7434 27.6522L81.4527 22.8662V22.8662ZM40.1496 28.1818L34.986 29.251L33.8379 33.5024V34.032L52.1961 45.1977L40.1496 28.1818V28.1818ZM97.5093 58.4867H98.086L101.53 54.2352L98.086 50.5184L76.8604 54.2352L97.5148 58.4867H97.5093ZM4.5868 48.9197L0 54.7699L4.5868 60.0854L52.1961 54.2352L4.5868 48.9197V48.9197ZM26.955 60.615L25.2356 65.401L29.8279 68.0588L48.7574 58.4867L26.955 60.615V60.615ZM30.3992 69.6525V74.9731L35.5628 76.5668L51.0535 61.6791L30.3992 69.6525V69.6525ZM39.007 103.15L43.5938 109L51.048 106.872L59.6558 63.2727L39.0015 103.15H39.007ZM62.5178 67.5293L57.931 87.198L62.5233 90.3904L66.5333 87.7326L67.1101 87.198V86.1338L62.5233 67.5293H62.5178ZM44.7419 83.476L53.9155 64.8664L37.8589 78.1605L39.0015 82.9465L44.7419 83.476ZM113 80.8182L71.1256 60.0854L106.117 90.3904L113 87.7275V80.8132V80.8182ZM69.4062 86.6684L75.1411 88.2621L78.0085 84.0107L67.1101 66.9947L69.4062 86.6684V86.6684Z" fill = "white"/>
</svg>
