<svg width="88" height="110" viewBox="0 0 88 110" fill="none" xmlns="http://www.w3.org/2000/svg">
<path d="M83.7105 22.5727C82.3611 24.274 79.8091 24.4647 78.2471 22.9247C67.4525 12.262 56.8778 6.21937 39.9598 7.0847C32.8538 7.45137 23.1078 13.2154 23.5551 21.3334C24.8605 45.856 85.7711 40.1654 87.6631 75.82C88.8511 98.26 65.4651 108.893 46.0831 109.898C26.9138 110.881 13.8751 104.603 1.07847 92.1C-0.417531 90.6554 -0.344197 88.25 1.2178 86.8714C2.64047 85.61 4.81114 85.6834 6.1898 86.9887C17.4978 97.8127 27.7205 103.833 45.0711 102.946C54.2745 102.484 64.7978 96.346 64.2625 86.1527C63.1405 65.1207 3.27847 69.352 1.40847 34.1447C0.220469 11.7047 18.2751 1.17404 38.9405 0.103369C58.3005 -0.901298 70.2538 5.44937 83.3071 17.762C84.6858 19.0454 84.8471 21.0987 83.7105 22.5727Z" fill="white"/>
</svg>
