<svg width = "108" height = "109" viewBox = "0 0 108 109" fill = "none" xmlns = "http://www.w3.org/2000/svg">
<path d = "M107.983 41.5885V0H0.0184045V41.5885C0.0184045 52.0536 -0.712071 66.596 7.03097 79.3716C17.4037 95.6808 36.25 107.505 53.9275 109C71.605 107.505 90.3052 95.6808 100.678 79.3716C108.713 66.7319 107.983 52.0536 107.983 41.5885ZM94.1037 50.8304L48.6681 19.2992H38.5875C38.7336 19.4352 93.6654 57.49 93.8115 57.6259C93.5193 59.5287 93.3732 61.2955 92.9349 63.1982C90.8896 72.712 84.1692 80.5948 76.2801 86.5748C68.537 91.8753 58.4565 97.0399 48.6681 94.5935C36.1039 91.6035 25.439 83.313 18.8647 73.1197C13.167 64.2855 13.3131 51.9177 13.4592 42.9476L71.0206 82.7693C71.4589 82.4975 75.6957 78.9638 75.8418 78.9638L13.4592 35.6085V13.1833L94.1037 13.0474V50.8304V50.8304Z" fill = "white"/>
</svg>
