<svg width = "67" height = "111" viewBox = "0 0 67 111" fill = "none" xmlns = "http://www.w3.org/2000/svg">
<path fill-rule = "evenodd" clip-rule = "evenodd" d = "M19.5068 108.956C19.4643 108.965 19.421 108.969 19.3775 108.968C14.5412 108.968 10.5519 106.805 7.42901 102.471C4.33932 98.3133 2.6948 93.3047 2.73496 88.1746C2.73496 82.9165 3.5367 78.0923 5.12725 73.7021C3.1035 70.117 2.0884 65.903 2.0884 61.0536C2.0884 56.544 2.89014 52.5312 4.48068 49.009C6.14235 45.4239 7.9204 42.5683 9.8213 40.4299C7.9204 42.5683 6.13588 45.4239 4.48715 49.009C2.89014 52.5312 2.09487 56.544 2.09487 61.0536C2.09487 65.903 3.1035 70.1233 5.13371 73.7021C3.49516 78.3564 2.68609 83.2489 2.74143 88.1683C2.69093 93.3964 4.39581 98.4977 7.59712 102.697V102.71C10.4743 106.578 14.0627 108.654 18.3495 108.937C18.737 108.957 19.1252 108.963 19.5133 108.956H19.5068ZM7.06047 76.6394C11.108 81.7277 17.0822 84.2687 24.9897 84.2687C18.0973 84.2687 12.6726 82.3378 8.71567 78.476C8.12527 77.9 7.57246 77.2887 7.06047 76.6457V76.6394ZM7.50013 89.03C7.50013 86.055 7.73289 83.3064 8.19842 80.8031C12.511 84.514 18.1684 86.3066 24.9897 86.3066C30.7441 86.3066 35.8972 85.338 40.3908 83.3504C44.8521 81.3629 48.4405 78.5703 51.072 74.96C53.6094 71.4542 55.5139 67.5533 56.7036 63.4248V63.4122C57.9235 59.1744 58.5392 54.7936 58.5333 50.3927C58.5333 46.0151 57.6152 38.0838 55.8307 26.7184C59.2381 23.6365 61.9084 20.737 63.7834 17.9947C65.93 14.9505 67.068 11.7679 66.9969 8.49732L66.9904 8.40926C66.8417 6.16386 66.1434 4.16375 64.7597 2.5536C63.2662 0.811363 61.2037 0 58.8308 0C56.7036 0 54.751 0.478012 53.0311 1.50323C51.3177 2.52215 49.9599 4.01909 48.9254 5.87453C46.8823 9.52253 45.9771 14.7429 45.9771 21.2716C45.9771 22.9572 46.0676 24.6554 46.2357 26.3662L36.3886 34.1654C33.5049 32.1464 29.9294 31.1967 25.8173 31.1967C22.4126 31.1871 19.0508 31.9358 15.9895 33.3855C12.983 34.7755 10.3903 36.6812 8.23075 39.0902C6.16175 41.4173 4.28671 44.4678 2.57332 48.1661V48.1787C0.840533 52.0028 0 56.3049 0 61.0473C0 65.8275 0.931053 70.1233 2.85781 73.8657C1.37072 78.2684 0.646565 83.0423 0.646565 88.1683C0.646565 93.8416 2.34056 99.018 5.71562 103.641C9.1812 108.434 13.7653 111 19.384 111C19.8485 111.006 20.3056 110.886 20.7034 110.653C21.1011 110.419 21.4235 110.082 21.634 109.679C21.893 109.155 21.996 108.571 21.9314 107.993C21.9352 107.48 21.818 106.972 21.5887 106.509C21.3841 106.111 21.0693 105.776 20.6797 105.543C20.2902 105.31 19.8414 105.187 19.384 105.188C16.0736 105.188 13.3063 103.741 10.998 100.452C8.65653 97.0833 7.43548 93.096 7.50013 89.03ZM37.6688 78.4508C40.491 76.8051 42.8624 74.5199 44.5805 71.7901C48.4405 65.6639 50.3737 58.2422 50.3737 49.5247C50.3737 47.3862 49.8177 40.8827 48.7185 30.0268L48.9578 32.4483C49.9017 41.8576 50.3737 47.5435 50.3737 49.5184C50.3737 58.2422 48.434 65.6639 44.5805 71.7901C42.8614 74.523 40.4877 76.8105 37.6623 78.4571L37.6688 78.4508ZM35.6579 40.3355C36.3304 41.8954 36.6731 43.5118 36.6731 45.1911C36.6731 49.2354 35.076 52.8708 31.8885 56.1037C35.076 52.8708 36.6731 49.2354 36.6731 45.1911C36.6739 43.5227 36.3286 41.8712 35.6579 40.3355V40.3355ZM26.6061 59.3428L26.6966 59.324C26.6665 59.3306 26.6363 59.3368 26.6061 59.3428V59.3428ZM24.6211 59.5756C24.6869 60.0901 24.9124 60.5728 25.2677 60.9593C25.6906 61.2648 26.2093 61.4182 26.7354 61.3933H26.8C26.7785 61.3932 26.7569 61.3932 26.7354 61.3933C26.2085 61.4164 25.6897 61.2608 25.2677 60.953C24.9121 60.5667 24.6865 60.0839 24.6211 59.5693V59.5756ZM32.6579 39.8261C20.3732 49.8518 11.9937 59.2799 7.50013 68.1232C7.04611 69.0125 6.62344 69.9167 6.23287 70.834C10.4614 60.8461 19.8107 50.0719 34.2808 38.5178C32.3152 36.5554 29.6255 35.568 26.1858 35.568C28.7397 35.568 30.8863 36.1152 32.6256 37.2033C33.2269 37.5807 33.7765 38.0146 34.2808 38.5178L32.6644 39.8198L32.6579 39.8261ZM30.9122 38.587C19.7396 47.7699 11.6511 56.5628 6.82771 64.991C6.25656 60.9975 6.63932 56.9297 7.94626 53.1035L7.95273 53.0784C10.0411 46.6252 13.4162 42.2476 17.9551 39.6688C20.4583 38.2743 23.3015 37.5617 26.1858 37.6058C28.1061 37.6058 29.6578 37.9517 30.9186 38.587H30.9122ZM19.8624 57.9591C24.3812 52.9464 29.2739 48.2647 34.5006 43.9521C34.5523 44.3609 34.5782 44.7697 34.5782 45.1911C34.5782 48.6504 33.2333 51.7953 30.3755 54.6948L30.3561 54.72C28.4423 56.7201 26.5479 57.5377 24.6211 57.5377H22.0995L22.5651 59.9467C22.7076 60.8765 23.1436 61.7403 23.8129 62.4185L23.8776 62.4814L23.9487 62.5443C24.7892 63.2047 25.7914 63.4248 26.7354 63.4248C30.104 63.4248 33.1299 62.494 35.7226 60.5945V60.5882C38.2377 58.739 40.074 56.5502 41.0955 54.0029C42.1437 51.4188 42.6641 48.6608 42.6279 45.883C42.6279 43.342 42.0007 40.9896 40.7529 38.8575L47.0051 33.9704C47.8651 42.6124 48.2789 47.751 48.2789 49.5247C48.2789 57.9528 46.4103 64.9847 42.7895 70.7271C41.0039 73.5509 38.4539 75.8423 35.4187 77.3501L35.3799 77.3753C32.3088 79.0294 28.6557 79.8911 24.3496 79.8911C17.8645 79.8911 13.2739 77.7715 10.2157 73.6644C12.4259 67.9037 15.6947 62.582 19.8624 57.9591V57.9591ZM62.3287 8.88098C62.3287 12.3277 59.9235 16.4537 55.126 21.2653C54.5311 21.8628 53.8975 22.4729 53.2186 23.0893C59.2963 17.4915 62.3287 12.7554 62.3287 8.88098C62.3287 5.88082 61.1649 4.37759 58.8372 4.37759C58.8351 4.37759 58.8329 4.37759 58.8308 4.37759C61.1584 4.37759 62.3222 5.88082 62.3222 8.88098H62.3287ZM58.2747 14.2586C57.4342 15.5795 56.3092 16.9946 54.9061 18.5104C54.874 17.9596 54.8568 17.408 54.8544 16.8563C54.8544 12.7931 55.3587 10.0383 56.1734 8.36523C56.4337 7.75908 56.8501 7.22838 57.3825 6.82427C57.8077 6.54049 58.3154 6.39716 58.8308 6.41544C59.4903 6.41544 59.6713 6.59784 59.7812 6.72992C59.9687 6.97522 60.2338 7.57903 60.2338 8.88098C60.2338 10.3024 59.6713 12.0824 58.2747 14.2586V14.2586Z" fill = "white"/>
</svg>
