<svg width = "106" height = "108" viewBox = "0 0 106 108" fill = "none" xmlns = "http://www.w3.org/2000/svg">
<path d = "M102.572 90.0596C81.488 69.9357 80.2504 35.9094 100.007 14.3181C102.885 11.1539 102.676 6.20132 99.5898 3.25115C99.3885 3.03715 99.1797 2.93015 98.9784 2.71614C98.7697 2.50979 98.6653 2.30343 98.4565 2.08942C95.3774 -0.860747 90.5389 -0.646745 87.6611 2.50979C68.0085 24.1087 34.7797 25.3774 13.6957 5.1466C10.6091 2.19643 5.77055 2.40278 2.8853 5.56696C2.8853 5.67396 2.79583 5.67396 2.79583 5.78096L2.684 5.88032C-0.193796 9.04449 0.0149567 13.9971 3.10151 16.9473C24.1855 37.0711 25.4231 71.0974 5.66618 92.6887C2.78838 95.8529 2.99713 100.806 6.08368 103.756C6.28498 103.97 6.49373 104.077 6.69503 104.291C6.90378 104.497 7.00816 104.703 7.21691 104.917C10.296 107.868 15.1346 107.654 18.0124 104.497C37.6649 82.8981 70.8938 81.637 91.9778 101.86C95.0643 104.81 99.9029 104.604 102.788 101.44C102.788 101.333 102.885 101.333 102.885 101.226L102.989 101.127C105.867 97.9623 105.658 93.0097 102.572 90.0596ZM52.4714 74.682C48.2591 65.5105 41.2659 57.9287 32.5207 53.1901C41.3628 48.6578 48.6691 41.3894 53.1946 32.3249C57.4144 41.4964 64.4076 49.0782 73.1528 53.8168C64.2063 58.349 56.8999 65.7245 52.4789 74.682H52.4714Z" fill = "white"/>
</svg>
