<svg width = "106" height = "106" viewBox = "0 0 106 106" fill = "none" xmlns = "http://www.w3.org/2000/svg">
<path d = "M51.1904 12.0062C51.8456 10.375 54.1544 10.375 54.8096 12.0061L64.3113 35.6674C64.5901 36.362 65.2421 36.8356 65.9889 36.8863L91.428 38.6112C93.1817 38.7301 93.8954 40.9262 92.5466 42.0533L72.9797 58.4015C72.4051 58.8812 72.1561 59.6475 72.3388 60.3736L78.5593 85.1009C78.9883 86.8058 77.1202 88.163 75.6317 87.2283L54.0367 73.6706C53.403 73.2728 52.597 73.2728 51.9632 73.6706L30.3684 87.2283C28.8797 88.163 27.0116 86.8058 27.4404 85.1009L33.6612 60.3736C33.8438 59.6475 33.5948 58.8812 33.0204 58.4015L13.4533 42.0533C12.1045 40.9262 12.818 38.7301 14.5717 38.6112L40.011 36.8863C40.7579 36.8356 41.4098 36.362 41.6887 35.6674L51.1904 12.0062Z" fill = "white"/>
<path d = "M53 105C81.7188 105 105 81.7188 105 53C105 24.2812 81.7188 1 53 1C24.2812 1 1 24.2812 1 53C1 81.7188 24.2812 105 53 105Z" stroke = "white"/>
</svg>
