<svg width="150" height="132" viewBox="0 0 150 132" fill="none" xmlns="http://www.w3.org/2000/svg">
<path d="M148.154 48.0333C149.069 48.1 149.784 48.0833 149.867 49.5C151.596 79.5166 136.064 108.65 109.141 122.85C96.735 129.383 83.4811 132.067 69.6119 131.017C51.1696 129.617 35.7206 121.617 22.8824 108.417C12.3891 97.6 5.62078 84.6833 2.04539 70.1C-0.0665791 61.4166 -0.232876 52.55 0.182866 43.6666C7.49994 43.7666 14.8336 43.3 22.0842 44.7833C28.786 46.1333 35.2383 48.05 41.1086 51.6833C51.4855 58.1166 59.9999 66.8833 69.3957 74.5333C78.0266 81.55 86.9068 87.7333 98.3979 89.4333C105.715 90.5 111.685 88.5833 117.09 84C123.991 78.15 128.182 70.2666 132.622 62.6C136.347 56.1333 140.737 50.4833 148.154 48.0333Z" fill="#F2F2F2"/>
<path d="M148.154 48.0333C140.737 50.4833 136.33 56.1333 132.605 62.5833C128.165 70.25 123.974 78.1333 117.073 83.9833C111.685 88.55 105.698 90.4833 98.3814 89.4166C86.8902 87.7333 78.01 81.55 69.3792 74.5166C59.9834 66.8666 51.469 58.1 41.092 51.6666C35.2217 48.0333 28.7528 46.1166 22.0676 44.7666C14.8171 43.3 7.48336 43.7666 0.166288 43.65C0.166288 36 0.166288 28.35 0.149658 20.6833C7.99888 19.5 15.7816 19.4166 23.7306 20.5333C35.2217 22.15 44.6009 27.55 53.0488 35.0333C59.9002 41.1166 66.2195 47.8166 73.3204 53.6166C80.0055 59.0666 87.0066 64.1833 95.8204 65.45C101.541 66.2666 107.295 66.25 112.101 61.9833C117.456 57.25 121.181 51.3833 124.69 45.25C128.149 39.2166 130.992 32.6833 136.497 28.0666C140.338 24.85 144.512 22.2333 149.684 21.7833C149.717 29.6166 149.601 41.2333 149.817 49.05C149.784 49.9166 150.216 48.0333 148.154 48.0333Z" fill="#E6E6E6"/>
<path d="M149.717 21.8C144.529 22.2333 140.371 24.85 136.53 28.0833C131.025 32.7 128.182 39.2333 124.723 45.2666C121.214 51.4 117.472 57.2666 112.134 62C107.311 66.2666 101.574 66.2833 95.8536 65.4666C87.0398 64.2 80.0387 59.0833 73.3536 53.6333C66.2361 47.8333 59.9334 41.1333 53.082 35.05C44.6507 27.5666 35.2549 22.1666 23.7638 20.55C15.7981 19.45 8.01545 19.5166 0.166222 20.7C0.182852 15.6166 0.266 10.5166 0.166222 5.4333C0.132963 3.69997 0.731632 2.99997 2.3946 2.6333C15.2826 -0.083363 27.9877 -0.366697 40.2106 5.39997C44.0354 7.19997 47.3115 9.8833 50.521 12.65C56.674 17.9333 61.8791 24.1666 67.6828 29.7833C73.8691 35.7666 80.072 41.8166 88.4367 44.6666C98.8802 48.2166 105.166 46.05 111.136 38.65C115.643 33.0666 118.636 26.6166 121.729 20.2166C124.739 13.9666 128.282 8.2333 134.634 4.7833C138.293 2.7833 142.101 1.76664 146.292 2.0833C148.586 2.26664 149.9 2.84997 149.767 5.6833C149.518 11.05 149.717 16.4333 149.717 21.8Z" fill="#CCCCCC"/>
</svg>
