<svg width="1550" height="1361" xmlns="http://www.w3.org/2000/svg" xmlns:xlink="http://www.w3.org/1999/xlink" xml:space="preserve" overflow="hidden"><defs><clipPath id="clip0"><rect x="1425" y="642" width="1550" height="1361"/></clipPath></defs><g clip-path="url(#clip0)" transform="translate(-1425 -642)"><path d="M2818.76 930 2101.99 930C2096.55 930 2091.6 927.028 2088.87 921.828L1947.05 660.82C1946.31 659.335 1945.82 657.601 1946.06 655.868 1947.3 647.943 1953.49 642 1960.91 642L2960.09 642C2967.51 642 2973.95 647.943 2974.94 655.868 2975.18 657.601 2974.69 659.335 2973.95 660.82L2831.88 921.828C2829.16 926.781 2824.21 930 2818.76 930Z" fill="#FFFFFF" fill-rule="evenodd"/><path d="M1727.05 657.919 2090.93 1275.38C2093.65 1280.08 2093.65 1285.77 2091.17 1290.47L1956.27 1534.73C1955.52 1536.22 1954.29 1537.21 1953.05 1537.95 1946.37 1540.67 1938.2 1537.95 1934.48 1531.52L1427.04 670.788C1423.32 664.354 1424.81 656.187 1430.5 651.485 1431.74 650.495 1433.23 650 1434.96 650L1714.18 650.495C1719.38 650.495 1724.33 653.465 1727.05 657.919Z" fill="#FFFFFF" fill-rule="evenodd"/><path d="M2063.07 1742.15 2416.16 1118.86C2418.88 1114.16 2423.58 1111.19 2429.02 1111.19L2707.87 1106C2709.36 1106 2711.09 1106.25 2712.33 1107.24 2718.02 1111.69 2719.75 1120.1 2716.04 1126.53L2223.9 1995.42C2220.19 2001.85 2212.27 2004.57 2205.35 2002.1 2203.86 2001.6 2202.62 2000.36 2201.88 1998.88L2062.83 1756.99C2060.35 1752.53 2060.35 1746.85 2063.07 1742.15Z" fill="#FFFFFF" fill-rule="evenodd"/></g></svg>