<svg width="64" height="108" viewBox="0 0 64 108" fill="none" xmlns="http://www.w3.org/2000/svg">
<g filter="url(#filter0_d_1333_60)">
<path d="M7.10319 1.78071C6.20491 2.04585 5.41837 2.5839 4.85961 3.31545C4.30085 4.047 3.99948 4.9333 4 5.84355V83.3068C4 85.7958 5.06788 86.5519 7.98025 86.3702C9.37433 86.3004 10.7714 86.3069 12.1647 86.3896C14.9699 86.5129 16.4094 85.2506 16.4094 82.674V2.7153C16.4066 2.28963 16.3013 1.87047 16.1019 1.49124C15.9024 1.11201 15.6143 0.783196 15.2605 0.531028C14.9067 0.278861 14.4971 0.110311 14.0642 0.0388149C13.6313 -0.0326811 13.1872 -0.00514111 12.7672 0.119234L7.10319 1.78071Z" fill="white"/>
<path d="M42.0682 42.6887H36.5414C34.1479 42.6887 33.0767 43.7271 33.0767 46.0571V81.078C33.0767 86.3285 33.0767 91.5791 33.0767 96.8296C33.0767 98.9032 34.2014 100 36.3137 100H41.9209C44.2642 100 45.3354 98.9746 45.3354 96.6868V71.3428C45.3354 62.8407 45.3354 54.3396 45.3354 45.8397C45.3387 43.7888 44.2006 42.6887 42.0682 42.6887Z" fill="white"/>
<path d="M27.8417 46.9646C25.8633 46.9646 23.8815 46.9646 21.9031 46.9646C19.6937 46.9646 18.6091 48.0095 18.6091 50.148V71.4877C18.6091 78.6549 18.6091 85.8222 18.6091 92.9895C18.6091 94.8912 19.7707 96.0075 21.7357 96.0107C23.7007 96.014 25.7528 96.0107 27.7613 96.0107C29.6895 96.0107 30.8378 94.8944 30.8378 93.0285C30.8378 78.6398 30.8378 64.2533 30.8378 49.8689C30.8344 48.1036 29.6627 46.9711 27.8417 46.9646Z" fill="white"/>
<path d="M56.7005 50.9553C54.7488 50.9553 52.7972 50.9553 50.8456 50.9553C48.7333 50.9553 47.6018 52.0749 47.6018 54.129V71.5681C47.6018 77.4287 47.6018 83.2904 47.6018 89.1531C47.6018 91.1229 48.7802 92.2652 50.8322 92.2716C52.7805 92.2716 54.7321 92.2716 56.6837 92.2716C58.6353 92.2716 59.8505 91.1067 59.8505 89.2472C59.8505 77.4979 59.8505 65.7475 59.8505 53.996C59.8605 52.0976 58.6722 50.9651 56.7005 50.9553Z" fill="white"/>
</g>
<defs>
<filter id="filter0_d_1333_60" x="0" y="0" width="63.8506" height="108" filterUnits="userSpaceOnUse" color-interpolation-filters="sRGB">
<feFlood flood-opacity="0" result="BackgroundImageFix"/>
<feColorMatrix in="SourceAlpha" type="matrix" values="0 0 0 0 0 0 0 0 0 0 0 0 0 0 0 0 0 0 127 0" result="hardAlpha"/>
<feOffset dy="4"/>
<feGaussianBlur stdDeviation="2"/>
<feComposite in2="hardAlpha" operator="out"/>
<feColorMatrix type="matrix" values="0 0 0 0 0 0 0 0 0 0 0 0 0 0 0 0 0 0 0.25 0"/>
<feBlend mode="normal" in2="BackgroundImageFix" result="effect1_dropShadow_1333_60"/>
<feBlend mode="normal" in="SourceGraphic" in2="effect1_dropShadow_1333_60" result="shape"/>
</filter>
</defs>
</svg>
