<svg width="375" height="595" xmlns="http://www.w3.org/2000/svg" xmlns:xlink="http://www.w3.org/1999/xlink" xml:space="preserve" overflow="hidden"><defs><clipPath id="clip0"><rect x="2193" y="586" width="375" height="595"/></clipPath></defs><g clip-path="url(#clip0)" transform="translate(-2193 -586)"><path d="M2210 604.746 2210 818.925C2210 826.17 2216.87 832.057 2224.11 832.057 2231.34 832.057 2238.22 826.17 2238.22 818.925L2238.22 615.704C2251.24 613.44 2265.89 612.263 2280.18 612.263 2417.45 612.263 2529.86 715.412 2542.16 852.071 2542.79 859.316 2549.03 864.659 2556.18 863.934 2563.41 863.3 2568.66 856.961 2567.93 849.716 2561.51 777.9 2528.6 711.337 2475.33 662.434 2421.79 613.169 2352.16 586 2279.45 586 2259.83 586 2239.84 587.992 2220.76 591.887 2214.7 593.155 2210 598.498 2210 604.746Z" fill="#FFFFFF" fill-rule="evenodd"/><path d="M2287 1150.97C2287 1151.24 2287 1151.6 2287 1151.87 2287.54 1159.09 2293.76 1164.5 2300.98 1163.96 2369.44 1159.09 2434.19 1129.66 2483.17 1081.28 2532.14 1032.9 2562.27 968.549 2567.95 900.222 2568.58 893.001 2563.26 886.682 2556.04 886.051 2548.83 885.419 2542.52 890.744 2541.88 897.965 2531.15 1025.59 2426.8 1128.76 2299.09 1137.88 2292.32 1138.42 2287 1144.2 2287 1150.97Z" fill="#FFFFFF" fill-rule="evenodd"/><path d="M2267 656.1 2267 868.312C2267 875.539 2272.77 881.411 2279.99 881.411 2287.21 881.411 2292.98 875.539 2292.98 868.312L2292.98 669.651C2399.06 676.426 2485.93 766.136 2485.93 875.449 2485.93 924.595 2468.43 972.115 2436.59 1009.43 2431.9 1014.94 2432.53 1023.16 2438.03 1027.86 2443.53 1032.55 2451.74 1031.92 2456.43 1026.41 2492.34 984.401 2512 930.828 2512 875.449 2512 813.384 2487.82 755.024 2443.98 711.118 2400.14 667.212 2341.87 643 2279.9 643 2272.86 643 2267 648.872 2267 656.1Z" fill="#FFFFFF" fill-rule="evenodd"/><path d="M2287 1035.89C2287 1036.43 2287 1036.97 2287.09 1037.51 2287.99 1044.65 2294.5 1049.8 2301.65 1048.9 2389.08 1038.14 2455 963.599 2455 875.499 2455 839.266 2443.97 804.477 2423.17 774.931 2402.83 746.107 2374.62 724.24 2341.7 711.861 2337.73 710.325 2332.93 710.867 2329.41 713.306 2325.88 715.746 2323.53 719.812 2323.53 724.059L2323.53 908.932C2323.53 916.161 2329.32 922.034 2336.55 922.034 2343.78 922.034 2349.57 916.161 2349.57 908.932L2349.57 744.48C2397.31 770.052 2428.51 820.562 2428.51 875.499 2428.51 950.407 2372.63 1013.75 2298.39 1022.87 2291.7 1023.78 2287 1029.38 2287 1035.89Z" fill="#FFFFFF" fill-rule="evenodd"/><path d="M2223.5 864C2240.35 864 2254 850.345 2254 833.5 2254 816.655 2240.35 803 2223.5 803 2206.66 803 2193 816.655 2193 833.5 2193 850.345 2206.66 864 2223.5 864Z" fill="#FFFFFF" fill-rule="evenodd"/><path d="M2286.5 1181C2303.34 1181 2317 1167.35 2317 1150.5 2317 1133.66 2303.34 1120 2286.5 1120 2269.66 1120 2256 1133.66 2256 1150.5 2256 1167.35 2269.66 1181 2286.5 1181Z" fill="#FFFFFF" fill-rule="evenodd"/></g></svg>