<svg width="104" height="100" viewBox="0 0 104 100" fill="none" xmlns="http://www.w3.org/2000/svg">
<path d="M43.3118 0.565958C55.7853 -0.975411 66.3638 0.249222 75.1417 9.06107C82.8523 16.8031 85.4443 25.439 82.5038 35.75C79.7594 45.3642 74.7351 53.8382 68.9993 62.0236C67.4834 64.2371 66.4597 66.7323 65.9935 69.3504C65.4272 72.5598 66.9156 75.347 69.9432 77.0432C72.9708 78.7394 76.0202 78.4508 78.9099 76.8109C80.3134 76.1005 81.5495 75.1155 82.5401 73.9182C91.5722 61.8054 97.0611 48.5243 95.5291 33.3007C94.7522 25.439 91.2309 18.5908 85.7492 12.6998C93.6503 19.0879 99.1742 27.8099 101.475 37.5307C105.505 54.4857 101.947 69.822 90.1055 83.1172C82.3223 91.8516 71.0395 93.6252 61.8332 87.6709C52.3946 81.5336 49.4033 70.2161 55.0084 60.0389C57.4406 55.6189 60.9983 51.776 63.4596 47.3701C66.3662 42.4094 68.7966 37.2003 70.7201 31.8086C72.8401 25.4742 70.6039 19.5691 66.3638 14.4453C61.7025 8.86399 56.2717 5.56309 43.3118 0.565958Z" fill="white"/>
<path d="M13.2172 83.2723C7.10051 77.2868 2.94745 69.6806 1.28101 61.4116C-2.17498 44.7099 1.23744 29.5285 13.0357 16.5008C20.3688 8.3998 31.3974 6.52763 40.1681 11.8767C49.5559 17.5987 52.9974 27.952 48.5032 37.9533C47.0511 41.1345 44.7205 43.9217 42.8836 46.9411C39.5873 52.3746 35.8046 57.618 33.2199 63.3682C28.9362 72.891 31.1724 81.1116 38.9048 88.2765C43.8966 92.9248 49.9673 96.3427 56.6058 98.2426C57.2738 98.4397 57.92 98.686 58.8566 99.0027C40.0447 103.331 24.2169 93.0977 19.65 77.4447C17.8785 71.3707 19.2144 65.1489 21.8717 59.6028C25.502 52.1001 29.9817 45.0126 33.9096 37.6506C35.1947 35.2295 36.5742 32.5198 36.6758 29.9086C36.9227 23.5108 30.4827 19.675 24.5944 22.5677C22.3246 23.6579 20.3501 25.2489 18.8296 27.2129C11.7055 36.7567 7.43461 48.0202 6.4868 59.7647C5.79705 68.2809 8.43983 76.0933 13.2172 83.2723Z" fill="white"/>
</svg>
