<svg width="1264" height="1263" xmlns="http://www.w3.org/2000/svg" xmlns:xlink="http://www.w3.org/1999/xlink" xml:space="preserve" overflow="hidden"><defs><clipPath id="clip0"><rect x="1568" y="606" width="1264" height="1263"/></clipPath></defs><g clip-path="url(#clip0)" transform="translate(-1568 -606)"><path d="M2200 1869C1851.68 1869 1568 1585.55 1568 1237.5 1568 889.454 1851.68 606 2200 606 2548.32 606 2832 889.454 2832 1237.5 2832 1585.55 2548.32 1869 2200 1869ZM2200 659.599C1881.25 659.599 1621.64 918.658 1621.64 1237.5 1621.64 1556.34 1881.25 1815.4 2200 1815.4 2518.75 1815.4 2778.36 1556 2778.36 1237.5 2778.36 919.002 2518.75 659.599 2200 659.599Z" fill="#FFFFFF" fill-rule="evenodd"/><path d="M2158.86 1122C2148.9 1122 2141 1114.07 2141 1104.08 2141 1098.91 2143.06 1094.08 2147.18 1090.64 2198.02 1045.83 2220.35 1008.96 2224.47 1001.72 2239.24 975.527 2263.29 962.085 2288.37 965.532 2298.33 966.91 2305.2 975.871 2303.83 985.866 2302.45 995.86 2293.52 1002.75 2283.56 1001.37L2283.56 1001.37C2268.79 999.307 2259.17 1013.44 2255.39 1019.64 2250.92 1027.57 2225.85 1068.92 2170.89 1117.52 2167.45 1120.62 2162.98 1122 2158.86 1122Z" fill="#FFFFFF" fill-rule="evenodd"/><path d="M1855.91 1427C1845.92 1427 1838 1419.05 1838 1409.03 1838 1403.84 1840.41 1398.66 1844.55 1395.2 1865.56 1378.61 1887.61 1363.75 1910.69 1350.61 1919.64 1346.47 1930.32 1350.61 1934.46 1359.6 1938.25 1368.24 1934.8 1378.27 1926.88 1382.76 1906.21 1394.51 1886.23 1407.99 1867.63 1422.51 1864.18 1425.62 1860.05 1427 1855.91 1427Z" fill="#FFFFFF" fill-rule="evenodd"/><path d="M2308 1255.92C2315.22 1262.45 2323.47 1259.71 2331.03 1252.49 2382.94 1203 2438.27 1124.98 2456.49 1084.43 2460.27 1075.83 2468.52 1071.02 2476.77 1074.46 2486.74 1078.58 2486.74 1095.77 2477.46 1114.33 2453.4 1163.82 2420.06 1218.46 2354.06 1286.51 2348.56 1291.67 2348.22 1300.26 2353.38 1306.1 2353.72 1306.45 2354.06 1306.79 2354.41 1307.13 2360.25 1312.29 2369.53 1311.95 2378.47 1303.01 2412.84 1268.3 2435.52 1241.15 2455.46 1213.31 2460.62 1206.09 2466.46 1203 2472.65 1204.37 2481.24 1206.09 2482.61 1214.34 2479.86 1224.31 2475.74 1240.46 2430.02 1299.92 2412.15 1320.19 2363.34 1374.5 2314.54 1404.4 2220.7 1453.2 2188.05 1470.38 2163.3 1486.54 2148.52 1511.63 2135.11 1534.31 2130.99 1541.87 2129.61 1544.62 2124.11 1555.62 2128.58 1569.37 2139.58 1574.87 2150.58 1580.02 2163.64 1575.55 2169.14 1564.55 2169.49 1564.21 2169.49 1563.87 2169.49 1563.52 2169.49 1563.18 2168.8 1563.87 2186.33 1533.97 2199.73 1512.66 2218.98 1495.82 2241.67 1485.16 2335.5 1442.2 2374 1408.52 2428.65 1353.88 2453.4 1329.13 2487.77 1275.52 2497.39 1260.05 2523.52 1215.71 2509.77 1177.91 2486.05 1171.38 2484.33 1171.03 2483.3 1169.32 2483.99 1167.6 2483.99 1167.25 2484.33 1166.91 2484.33 1166.91 2502.55 1135.63 2511.14 1113.64 2514.58 1096.8 2519.39 1073.77 2512.86 1046.28 2481.24 1039.4 2479.52 1039.06 2478.49 1037.34 2479.18 1035.62 2479.18 1035.62 2479.18 1035.62 2479.18 1035.62 2481.24 1028.4 2482.96 1019.13 2484.33 1013.28 2490.86 983.726 2472.3 956.575 2449.62 951.763 2434.84 948.326 2419.37 951.763 2407.34 960.699 2405.62 961.73 2403.22 961.73 2401.84 960.011 2396 953.481 2387.4 949.357 2378.47 949.013 2358.88 948.67 2339.28 954.856 2325.19 985.1 2314.88 1006.75 2300.1 1035.62 2255.76 1084.77 2214.86 1130.14 2157.8 1174.47 2122.4 1197.84 2116.21 1201.97 2107.62 1200.94 2108.65 1192.69 2110.37 1179.63 2124.46 1090.96 2126.86 1064.84 2130.65 1022.56 2107.96 1002.97 2082.52 999.535 2061.56 996.786 2029.59 1002.63 2012.06 1050.74 2001.75 1078.93 1980.44 1124.98 1962.22 1199.22 1949.5 1251.46 1947.44 1312.29 1959.13 1382.4 1959.82 1386.53 1959.13 1390.99 1956.72 1394.77 1942.63 1417.8 1922.35 1448.05 1911.01 1474.17 1906.2 1484.82 1910.32 1497.19 1920.29 1503.03 1930.94 1508.88 1944.35 1505.1 1950.19 1494.1 1950.54 1493.76 1950.54 1493.41 1950.88 1493.07 1957.75 1478.63 1971.5 1451.83 1977 1440.83 1986.63 1421.58 1992.81 1408.52 1995.22 1400.62 1997.63 1393.4 1999 1384.81 1994.88 1365.22 1987.66 1332.57 1985.25 1271.39 1998.66 1217.43 2013.09 1161.41 2030.97 1106.42 2051.59 1052.46 2057.09 1039.06 2064.65 1035.28 2072.21 1035.62 2079.77 1035.97 2094.21 1040.09 2090.09 1066.9 2082.52 1115.36 2072.21 1176.88 2068.78 1197.5 2067.06 1207.81 2064.99 1231.52 2083.9 1242.18 2098.34 1250.77 2114.49 1245.96 2132.36 1233.93 2172.24 1207.12 2241.32 1152.82 2284.63 1104.36 2330 1053.15 2344.44 1022.91 2356.13 995.411 2361.28 983.038 2375.03 983.038 2379.84 984.413 2384.65 985.788 2390.5 992.318 2386.37 1006.07 2376.41 1039.75 2334.81 1116.39 2254.73 1188.56 2245.79 1196.81 2246.82 1206.43 2251.63 1211.59 2256.45 1216.74 2264.35 1219.84 2273.63 1211.59 2345.47 1150.41 2386.37 1077.21 2404.93 1038.03 2411.12 1024.97 2416.28 1011.56 2420.74 997.817 2424.53 986.475 2433.46 982.351 2439.65 983.726 2448.24 985.444 2454.09 994.38 2451.34 1009.16 2446.87 1028.06 2440.34 1046.28 2431.74 1063.8 2408.71 1112.61 2359.91 1177.91 2307.66 1234.27 2301.47 1239.77 2301.13 1249.05 2306.29 1255.24 2307.32 1255.24 2307.66 1255.58 2308 1255.92Z" fill="#FFFFFF" fill-rule="evenodd"/><path d="M1983.18 1012.42C1985.95 1010.01 1984.91 1006.93 1984.22 1004.18 1980.42 991.831 1958.27 940.369 1952.38 930.076 1949.27 924.93 1945.81 924.244 1941.66 925.616 1936.46 927.675 1929.89 932.478 1920.2 941.055 1910.51 949.632 1904.63 955.464 1902.2 960.267 1900.13 964.041 1900.47 967.815 1905.32 971.246 1915.01 978.451 1963.46 1006.93 1975.57 1012.42 1977.3 1013.79 1980.42 1015.16 1983.18 1012.42L1983.18 1012.42Z" fill="#FFFFFF" fill-rule="evenodd"/><path d="M2381.58 1470.03C2377.79 1470.37 2376.76 1473.44 2376.07 1475.83 2371.6 1487.79 2357.84 1542.1 2356.12 1553.71 2355.43 1559.52 2357.84 1562.25 2361.62 1563.62 2366.78 1565.33 2375.04 1565.33 2388.11 1564.3 2401.19 1563.28 2409.1 1562.25 2414.26 1559.86 2418.04 1558.15 2420.11 1555.08 2418.39 1549.27 2414.95 1538 2393.96 1486.08 2388.11 1474.81 2386.74 1472.76 2385.36 1469.68 2381.58 1470.03L2381.58 1470.03Z" fill="#FFFFFF" fill-rule="evenodd"/><path d="M2412.65 1443.99C2410.93 1447.46 2412.99 1449.9 2414.71 1451.98 2422.96 1462.06 2462.16 1502.71 2471.1 1510.35 2475.57 1514.17 2479.35 1513.48 2482.44 1510.7 2486.57 1506.87 2490.7 1499.93 2496.89 1488.46 2503.07 1477 2506.17 1469.35 2506.86 1463.79 2507.54 1459.62 2505.83 1456.15 2499.98 1454.41 2488.63 1451.29 2432.93 1441.9 2420.21 1441.21 2417.8 1440.86 2414.37 1440.51 2412.65 1443.99L2412.65 1443.99Z" fill="#FFFFFF" fill-rule="evenodd"/><path d="M1963.89 1046.27C1963.2 1042.47 1960.09 1041.78 1957.33 1041.43 1944.54 1038.32 1888.89 1030.37 1876.8 1030.03 1870.92 1029.68 1868.16 1032.79 1867.47 1036.94 1866.43 1042.47 1867.12 1050.42 1869.54 1063.2 1871.96 1075.99 1873.69 1083.94 1876.8 1088.77 1878.87 1092.58 1882.33 1094.3 1887.86 1091.88 1898.92 1087.39 1948.69 1060.78 1959.4 1053.53 1961.82 1051.8 1964.58 1050.07 1963.89 1046.27L1963.89 1046.27Z" fill="#FFFFFF" fill-rule="evenodd"/><path d="M2220 1747C2220 1758.05 2211.05 1767 2200 1767 2188.95 1767 2180 1758.05 2180 1747 2180 1735.95 2188.95 1727 2200 1727 2211.05 1727 2220 1735.95 2220 1747Z" fill="#FFFFFF" fill-rule="evenodd"/><path d="M2220 728C2220 739.046 2211.05 748 2200 748 2188.95 748 2180 739.046 2180 728 2180 716.954 2188.95 708 2200 708 2211.05 708 2220 716.954 2220 728Z" fill="#FFFFFF" fill-rule="evenodd"/><path d="M2352 1729C2352 1740.05 2343.05 1749 2332 1749 2320.95 1749 2312 1740.05 2312 1729 2312 1717.95 2320.95 1709 2332 1709 2343.05 1709 2352 1717.95 2352 1729Z" fill="#FFFFFF" fill-rule="evenodd"/><path d="M2088 746C2088 757.046 2079.05 766 2068 766 2056.95 766 2048 757.046 2048 746 2048 734.954 2056.95 726 2068 726 2079.05 726 2088 734.954 2088 746Z" fill="#FFFFFF" fill-rule="evenodd"/><path d="M2475 1678.5C2475 1689.27 2466.05 1698 2455 1698 2443.95 1698 2435 1689.27 2435 1678.5 2435 1667.73 2443.95 1659 2455 1659 2466.05 1659 2475 1667.73 2475 1678.5Z" fill="#FFFFFF" fill-rule="evenodd"/><path d="M1948.65 776.706C1959.52 778.47 1966.9 788.711 1965.14 799.58 1963.37 810.449 1953.13 817.83 1942.26 816.066 1931.39 814.302 1924.01 804.061 1925.78 793.192 1927.54 782.323 1937.78 774.942 1948.65 776.706Z" fill="#FFFFFF" fill-rule="evenodd"/><path d="M2580 1598C2580 1609.05 2571.05 1618 2560 1618 2548.95 1618 2540 1609.05 2540 1598 2540 1586.95 2548.95 1578 2560 1578 2571.05 1578 2580 1586.95 2580 1598Z" fill="#FFFFFF" fill-rule="evenodd"/><path d="M1860 877C1860 888.046 1851.05 897 1840 897 1828.95 897 1820 888.046 1820 877 1820 865.954 1828.95 857 1840 857 1851.05 857 1860 865.954 1860 877Z" fill="#FFFFFF" fill-rule="evenodd"/><path d="M2661 1492C2661 1503.05 2652.05 1512 2641 1512 2629.95 1512 2621 1503.05 2621 1492 2621 1480.95 2629.95 1472 2641 1472 2652.05 1472 2661 1480.95 2661 1492Z" fill="#FFFFFF" fill-rule="evenodd"/><path d="M1779 983C1779 994.046 1770.05 1003 1759 1003 1747.95 1003 1739 994.046 1739 983 1739 971.954 1747.95 963 1759 963 1770.05 963 1779 971.954 1779 983Z" fill="#FFFFFF" fill-rule="evenodd"/><path d="M2712 1369.5C2712 1380.27 2703.05 1389 2692 1389 2680.95 1389 2672 1380.27 2672 1369.5 2672 1358.73 2680.95 1350 2692 1350 2703.05 1350 2712 1358.73 2712 1369.5Z" fill="#FFFFFF" fill-rule="evenodd"/><path d="M1728 1105.5C1728 1116.27 1719.05 1125 1708 1125 1696.95 1125 1688 1116.27 1688 1105.5 1688 1094.73 1696.95 1086 1708 1086 1719.05 1086 1728 1094.73 1728 1105.5Z" fill="#FFFFFF" fill-rule="evenodd"/><path d="M2729 1237.5C2729 1248.27 2720.27 1257 2709.5 1257 2698.73 1257 2690 1248.27 2690 1237.5 2690 1226.73 2698.73 1218 2709.5 1218 2720.27 1218 2729 1226.73 2729 1237.5Z" fill="#FFFFFF" fill-rule="evenodd"/><path d="M1710 1237.5C1710 1248.27 1701.27 1257 1690.5 1257 1679.73 1257 1671 1248.27 1671 1237.5 1671 1226.73 1679.73 1218 1690.5 1218 1701.27 1218 1710 1226.73 1710 1237.5Z" fill="#FFFFFF" fill-rule="evenodd"/><path d="M2712 1105.5C2712 1116.27 2703.05 1125 2692 1125 2680.95 1125 2672 1116.27 2672 1105.5 2672 1094.73 2680.95 1086 2692 1086 2703.05 1086 2712 1094.73 2712 1105.5Z" fill="#FFFFFF" fill-rule="evenodd"/><path d="M1728 1369.5C1728 1380.27 1719.05 1389 1708 1389 1696.95 1389 1688 1380.27 1688 1369.5 1688 1358.73 1696.95 1350 1708 1350 1719.05 1350 1728 1358.73 1728 1369.5Z" fill="#FFFFFF" fill-rule="evenodd"/><path d="M2661 983C2661 994.046 2652.05 1003 2641 1003 2629.95 1003 2621 994.046 2621 983 2621 971.954 2629.95 963 2641 963 2652.05 963 2661 971.954 2661 983Z" fill="#FFFFFF" fill-rule="evenodd"/><path d="M1779 1492C1779 1503.05 1770.05 1512 1759 1512 1747.95 1512 1739 1503.05 1739 1492 1739 1480.95 1747.95 1472 1759 1472 1770.05 1472 1779 1480.95 1779 1492Z" fill="#FFFFFF" fill-rule="evenodd"/><path d="M2580 877C2580 888.046 2571.05 897 2560 897 2548.95 897 2540 888.046 2540 877 2540 865.954 2548.95 857 2560 857 2571.05 857 2580 865.954 2580 877Z" fill="#FFFFFF" fill-rule="evenodd"/><path d="M1860 1598C1860 1609.05 1851.05 1618 1840 1618 1828.95 1618 1820 1609.05 1820 1598 1820 1586.95 1828.95 1578 1840 1578 1851.05 1578 1860 1586.95 1860 1598Z" fill="#FFFFFF" fill-rule="evenodd"/><path d="M2475 796.5C2475 807.27 2466.05 816 2455 816 2443.95 816 2435 807.27 2435 796.5 2435 785.73 2443.95 777 2455 777 2466.05 777 2475 785.73 2475 796.5Z" fill="#FFFFFF" fill-rule="evenodd"/><path d="M1965 1678.5C1965 1689.27 1956.05 1698 1945 1698 1933.95 1698 1925 1689.27 1925 1678.5 1925 1667.73 1933.95 1659 1945 1659 1956.05 1659 1965 1667.73 1965 1678.5Z" fill="#FFFFFF" fill-rule="evenodd"/><path d="M2352 746C2352 757.046 2343.05 766 2332 766 2320.95 766 2312 757.046 2312 746 2312 734.954 2320.95 726 2332 726 2343.05 726 2352 734.954 2352 746Z" fill="#FFFFFF" fill-rule="evenodd"/><path d="M2088 1729C2088 1740.05 2079.05 1749 2068 1749 2056.95 1749 2048 1740.05 2048 1729 2048 1717.95 2056.95 1709 2068 1709 2079.05 1709 2088 1717.95 2088 1729Z" fill="#FFFFFF" fill-rule="evenodd"/></g></svg>