<svg width="100" height="100" viewBox="0 0 100 100" fill="none" xmlns="http://www.w3.org/2000/svg">
<path d="M49.6243 99.9872C20.7128 99.31 -0.702002 76.7079 0.0176099 47.6088C0.665261 21.2102 24.0484 -0.617324 51 0.0133322C78.4765 0.660919 100.573 23.5592 99.9887 50.8044C99.3961 78.1978 76.4531 100.614 49.6243 99.9872ZM2.77329 49.8267C2.56587 75.2985 23.6167 96.9058 48.8793 97.1471C75.5981 97.4011 97.0002 76.4963 97.1018 50.0426C97.2034 24.3338 76.1822 3.03116 50.4667 2.81107C44.2437 2.75246 38.0705 3.92364 32.3016 6.25734C26.5326 8.59104 21.2815 12.0413 16.8499 16.4099C12.4183 20.7786 8.89339 25.9796 6.47771 31.7142C4.06203 37.4489 2.80312 43.6042 2.77329 49.8267Z" fill="white"/>
<path d="M49.9375 7.34816C73.3842 7.327 92.564 26.4372 92.5851 49.8434C92.6007 55.446 91.5117 60.9967 89.3803 66.1782C87.2489 71.3597 84.117 76.0702 80.1636 80.0405C76.2102 84.0108 71.5129 87.163 66.3402 89.3168C61.1676 91.4706 55.6211 92.5837 50.018 92.5926C44.4133 92.6071 38.8608 91.5167 33.678 89.3838C28.4951 87.2509 23.7836 84.1173 19.8128 80.1623C15.8421 76.2073 12.69 71.5084 10.5369 66.3343C8.38371 61.1603 7.27174 55.6126 7.26453 50.0085C7.26508 44.4057 8.36929 38.8579 10.5141 33.6818C12.6589 28.5057 15.8024 23.8027 19.7649 19.8413C23.7275 15.88 28.4315 12.7378 33.6086 10.5942C38.7856 8.45061 44.3342 7.34761 49.9375 7.34816ZM85.5922 49.9661C85.59 40.511 81.8363 31.4429 75.155 24.752C68.4737 18.061 59.4105 14.2937 49.9545 14.2769C40.4987 14.2769 31.4293 18.0282 24.7368 24.7073C18.0442 31.3865 14.2754 40.4479 14.2575 49.9027C14.2575 69.6816 30.3006 85.7781 50.001 85.7315C69.6422 85.685 85.6176 69.635 85.6049 49.9661H85.5922Z" fill="white"/>
<path d="M70.9925 50.8507H75.6742C75.6742 53.6273 75.9917 56.2515 75.6022 58.7657C75.0392 62.4099 71.4962 64.8267 67.678 64.6617C64.0165 64.5051 60.6851 61.8047 60.5115 58.1562C60.2279 52.5332 60.2279 46.8995 60.5115 41.2766C60.719 37.3318 64.6006 34.4409 68.5035 34.6991C70.4182 34.8187 72.2238 35.6321 73.5819 36.987C74.94 38.3419 75.7576 40.1453 75.8816 42.0596C76.0594 44.3368 75.5938 46.161 73.7016 47.5916C72.6856 48.4506 71.719 49.3663 70.8062 50.3343L70.9925 50.8507Z" fill="white"/>
<path d="M34.7241 50.8638H39.8037C39.554 53.9239 39.6894 56.8402 39.0037 59.5491C38.0936 63.1552 34.2966 65.1488 30.5377 64.5901C28.7427 64.325 27.1021 63.4257 25.9132 62.0552C24.7243 60.6848 24.0658 58.9338 24.0569 57.1196C23.9976 52.19 23.9976 47.259 24.0569 42.3266C24.0726 40.3307 24.8625 38.4189 26.2601 36.9937C27.6577 35.5686 29.5539 34.7416 31.5493 34.6868C35.5495 34.526 38.9232 37.5396 39.5243 41.6367C39.8757 44.0366 39.5582 46.0513 37.4459 47.5624C36.375 48.3369 35.4479 49.3146 34.4532 50.1993L34.7241 50.8638Z" fill="white"/>
</svg>
