<svg width="100" height="100" viewBox="0 0 100 100" fill="none" xmlns="http://www.w3.org/2000/svg">
<path d="M50 0C22.3785 0 0 22.3785 0 50C0 77.6215 22.3785 100 50 100C77.6215 100 100 77.6215 100 50C100 22.3785 77.6215 0 50 0ZM50 93.7927C25.8136 93.7927 6.20731 74.1864 6.20731 50C6.20731 25.8136 25.8136 6.20731 50 6.20731C74.1864 6.20731 93.7927 25.8136 93.7927 50C93.7927 74.1864 74.1864 93.7927 50 93.7927Z" fill="#FEFDFD"/>
<path d="M52.6717 75.5525C46.3238 75.5324 41.4022 74.6485 36.9827 71.8763C32.8847 69.3251 30.3536 65.669 29.2688 60.9683C29.0277 59.9237 29.3491 59.3612 30.3736 59.1001C33.1057 58.3568 35.8578 57.6336 38.6099 56.9305C39.6947 56.6493 40.2571 57.0109 40.5785 58.1961C41.3821 61.0286 42.9289 63.3588 45.7011 64.5039C49.3572 66.0306 53.1137 66.0708 56.8501 64.7248C57.8546 64.3632 58.5978 63.6401 59.1804 62.7562C60.5665 60.6469 60.004 58.0555 57.8746 56.7297C55.8658 55.5043 53.5958 55.0422 51.3258 54.6405C46.7055 53.7968 42.1253 52.8526 37.9671 50.5826C29.6103 46.0627 28.0635 34.4516 34.994 28.2845C37.9871 25.6127 41.6031 24.307 45.5404 23.8249C50.462 23.2021 55.3033 23.4834 59.9036 25.5123C64.3029 27.4408 67.5572 30.5746 69.4054 35.0744C69.9478 36.4002 69.6665 36.9426 68.2804 37.3845C65.6488 38.2282 62.9972 39.072 60.3455 39.8956C59.3009 40.217 58.5978 39.9358 58.2764 38.9113C57.272 35.6971 54.9016 34.1905 51.808 33.6682C49.4777 33.2865 47.1274 33.3267 44.9377 34.4315C43.3708 35.215 42.4869 36.4404 42.5271 38.2684C42.5673 40.0764 43.4311 41.2616 45.0382 42.045C47.1876 43.0896 49.4978 43.391 51.808 43.8128C55.8859 44.5561 59.9237 45.5404 63.7204 47.2479C67.718 49.0559 70.7111 51.8683 71.4946 56.3881C73.0012 64.9458 68.8027 71.7357 60.4861 74.3472C57.5131 75.2512 54.4998 75.5726 52.6717 75.5525Z" fill="#FEFDFD"/>
</svg>
