<svg width = "541" height = "586" viewBox = "0 0 541 586" fill = "none" xmlns = "http://www.w3.org/2000/svg">
<g filter = "url(#filter0_d_59_33)">
<rect x = "181.918" y = "177" width = "224" height = "224" rx = "30" fill = "url(#paint0_linear_59_33)"/>
</g>
<path fill-rule = "evenodd" clip-rule = "evenodd" d = "M275.389 289.219C275.389 243.755 283.656 206.899 293.854 206.899C304.052 206.899 312.32 243.755 312.32 289.219C312.32 334.682 304.052 371.539 293.854 371.539C283.656 371.539 275.389 334.682 275.389 289.219ZM280.257 289.219C280.257 331.995 286.343 366.671 293.854 366.671C301.363 366.671 307.452 331.995 307.452 289.219C307.452 246.443 301.363 211.767 293.854 211.767C286.343 211.767 280.257 246.443 280.257 289.219Z" fill = "#202B4E"/>
<path fill-rule = "evenodd" clip-rule = "evenodd" d = "M284.604 273.229C323.939 250.385 359.983 239.028 365.114 247.861C370.244 256.695 342.516 282.374 303.184 305.218C263.85 328.061 227.805 339.419 222.674 330.587C217.544 321.753 245.27 296.073 284.604 273.229ZM287.054 277.446C250.048 298.938 223.112 321.634 226.89 328.138C230.668 334.643 263.729 322.493 300.734 301.001C337.74 279.511 364.676 256.815 360.898 250.31C357.12 243.805 324.059 255.954 287.054 277.446Z" fill = "#202B4E"/>
<path fill-rule = "evenodd" clip-rule = "evenodd" d = "M284.311 305.484C244.976 283.166 217.172 257.876 222.21 248.994C227.249 240.112 263.223 251.003 302.559 273.318C341.896 295.636 369.7 320.927 364.662 329.809C359.623 338.691 323.649 327.8 284.311 305.484ZM286.716 301.245C323.713 322.232 356.712 333.944 360.422 327.404C364.132 320.863 337.151 298.547 300.154 277.558C263.159 256.57 230.16 244.858 226.45 251.399C222.738 257.94 249.721 280.255 286.716 301.245Z" fill = "#202B4E"/>
<path fill-rule = "evenodd" clip-rule = "evenodd" d = "M234.717 272.791C234.717 268.867 237.898 265.686 241.821 265.686C245.745 265.686 248.926 268.867 248.926 272.791C248.926 276.714 245.745 279.895 241.821 279.895C237.898 279.895 234.717 276.714 234.717 272.791Z" fill = "#202B4E"/>
<path fill-rule = "evenodd" clip-rule = "evenodd" d = "M275.389 342.412C275.389 338.489 278.569 335.308 282.493 335.308C286.416 335.308 289.597 338.489 289.597 342.412C289.597 346.335 286.416 349.516 282.493 349.516C278.569 349.516 275.389 346.335 275.389 342.412Z" fill = "#202B4E"/>
<path fill-rule = "evenodd" clip-rule = "evenodd" d = "M325.828 252.81C325.828 248.837 329.048 245.617 333.021 245.617C336.994 245.617 340.214 248.837 340.214 252.81C340.214 256.783 336.994 260.003 333.021 260.003C329.048 260.003 325.828 256.783 325.828 252.81Z" fill = "#202B4E"/>
<path fill-rule = "evenodd" clip-rule = "evenodd" d = "M283.026 289.13C283.026 283.147 287.837 278.297 293.771 278.297C299.704 278.297 304.516 283.147 304.516 289.13C304.516 295.114 299.704 299.964 293.771 299.964C287.837 299.964 283.026 295.114 283.026 289.13Z" fill = "#202B4E"/>
<defs>
<filter id = "filter0_d_59_33" x = "0.918091" y = "0" width = "586" height = "586" filterUnits = "userSpaceOnUse" color-interpolation-filters = "sRGB">
<feFlood flood-opacity = "0" result = "BackgroundImageFix"/>
<feColorMatrix in = "SourceAlpha" type = "matrix" values = "0 0 0 0 0 0 0 0 0 0 0 0 0 0 0 0 0 0 127 0" result = "hardAlpha"/>
<feMorphology radius = "49" operator = "dilate" in = "SourceAlpha" result = "effect1_dropShadow_59_33"/>
<feOffset dy = "4"/>
<feGaussianBlur stdDeviation = "66"/>
<feComposite in2 = "hardAlpha" operator = "out"/>
<feColorMatrix type = "matrix" values = "0 0 0 0 0 0 0 0 0 0 0 0 0 0 0 0 0 0 0.39 0"/>
<feBlend mode = "normal" in2 = "BackgroundImageFix" result = "effect1_dropShadow_59_33"/>
<feBlend mode = "normal" in = "SourceGraphic" in2 = "effect1_dropShadow_59_33" result = "shape"/>
</filter>
<linearGradient id = "paint0_linear_59_33" x1 = "293.918" y1 = "177" x2 = "293.918" y2 = "401" gradientUnits = "userSpaceOnUse">
<stop stop-color = "#6D7EBE"/>
<stop offset = "1" stop-color = "#273259"/>
</linearGradient>
</defs>
</svg>
