<svg width = "500" height = "499" viewBox = "0 0 500 499" fill = "none" xmlns = "http://www.w3.org/2000/svg">
<g filter = "url(#filter0_d_59_23)">
<rect x = "181.918" y = "177" width = "137" height = "137" rx = "30" fill = "url(#paint0_linear_59_23)"/>
</g>
<path fill-rule = "evenodd" clip-rule = "evenodd" d = "M250.806 224.21C240.804 224.089 237.016 229.083 234.011 233.785C233.635 234.373 233.311 235.033 233.035 235.746L232.508 237.484H266.973L266.387 237.465C265.871 227.643 256.236 224.276 250.806 224.21ZM249.383 211.904C253.942 211.842 258.517 212.766 263.105 214.357C268.485 216.224 276.283 220.804 280.355 232.509L281.719 237.484H295.944L292.325 248.976H232.041L232.281 250.491C232.424 251.197 232.591 251.847 232.776 252.423C234.256 257.036 237.319 261.413 242.391 264.088C247.464 266.76 261.643 267.082 268.146 257.627L279.957 265.145C271.69 279.419 252.335 279.953 242.101 278.187C231.869 276.42 221.126 263.933 218.557 254.55C218.237 253.376 217.991 252.109 217.824 250.775L217.711 248.976H204.317V237.484H218.553L219.743 233.205C221.242 228.849 223.536 224.838 226.69 221.888C234.218 214.845 241.781 212.006 249.383 211.904Z" fill = "#202B4E"/>
<defs>
<filter id = "filter0_d_59_23" x = "0.918091" y = "0" width = "499" height = "499" filterUnits = "userSpaceOnUse" color-interpolation-filters = "sRGB">
<feFlood flood-opacity = "0" result = "BackgroundImageFix"/>
<feColorMatrix in = "SourceAlpha" type = "matrix" values = "0 0 0 0 0 0 0 0 0 0 0 0 0 0 0 0 0 0 127 0" result = "hardAlpha"/>
<feMorphology radius = "49" operator = "dilate" in = "SourceAlpha" result = "effect1_dropShadow_59_23"/>
<feOffset dy = "4"/>
<feGaussianBlur stdDeviation = "66"/>
<feComposite in2 = "hardAlpha" operator = "out"/>
<feColorMatrix type = "matrix" values = "0 0 0 0 0 0 0 0 0 0 0 0 0 0 0 0 0 0 0.39 0"/>
<feBlend mode = "normal" in2 = "BackgroundImageFix" result = "effect1_dropShadow_59_23"/>
<feBlend mode = "normal" in = "SourceGraphic" in2 = "effect1_dropShadow_59_23" result = "shape"/>
</filter>
<linearGradient id = "paint0_linear_59_23" x1 = "250.418" y1 = "177" x2 = "250.418" y2 = "314" gradientUnits = "userSpaceOnUse">
<stop stop-color = "#6D7EBE"/>
<stop offset = "1" stop-color = "#273259"/>
</linearGradient>
</defs>
</svg>
