<svg width = "582" height = "581" viewBox = "0 0 582 581" fill = "none" xmlns = "http://www.w3.org/2000/svg">
<g filter = "url(#filter0_d_58_11)">
<rect x = "181.918" y = "177" width = "219" height = "219" rx = "28" fill = "url(#paint0_linear_58_11)"/>
</g>
<path fill-rule = "evenodd" clip-rule = "evenodd" d = "M285.801 221.339C285.801 218.466 288.129 216.137 291.003 216.137C293.876 216.137 296.205 218.466 296.205 221.339V352.109C296.205 354.983 293.876 357.311 291.003 357.311C288.129 357.311 285.801 354.983 285.801 352.109V221.339Z" fill = "#202A4C"/>
<path fill-rule = "evenodd" clip-rule = "evenodd" d = "M317.642 226.348C319.667 224.308 322.961 224.295 325.001 226.319C327.041 228.343 327.054 231.638 325.03 233.678L264.363 294.825C262.339 296.866 259.044 296.878 257.005 294.855C254.964 292.831 254.952 289.536 256.975 287.496L317.642 226.348Z" fill = "#202A4C"/>
<path fill-rule = "evenodd" clip-rule = "evenodd" d = "M334.101 255.46C336.971 255.46 339.299 257.787 339.299 260.658C339.299 263.528 336.971 265.855 334.101 265.855H247.903C245.033 265.855 242.706 263.528 242.706 260.658C242.706 257.787 245.033 255.46 247.903 255.46H334.101Z" fill = "#202A4C"/>
<path fill-rule = "evenodd" clip-rule = "evenodd" d = "M324.629 287.737C326.668 289.761 326.679 293.056 324.654 295.095C322.628 297.133 319.334 297.145 317.296 295.119L256.182 234.418C254.143 232.393 254.132 229.099 256.156 227.06V227.06C258.182 225.021 261.476 225.01 263.515 227.035L324.629 287.737Z" fill = "#202A4C"/>
<path fill-rule = "evenodd" clip-rule = "evenodd" d = "M307.006 328.848C309.878 328.848 312.207 331.176 312.207 334.049C312.207 336.922 309.878 339.25 307.006 339.25H275.227C272.355 339.25 270.026 336.922 270.026 334.049C270.026 331.176 272.355 328.848 275.227 328.848H307.006Z" fill = "#202A4C"/>
<defs>
<filter id = "filter0_d_58_11" x = "0.918335" y = "0" width = "581" height = "581" filterUnits = "userSpaceOnUse" color-interpolation-filters = "sRGB">
<feFlood flood-opacity = "0" result = "BackgroundImageFix"/>
<feColorMatrix in = "SourceAlpha" type = "matrix" values = "0 0 0 0 0 0 0 0 0 0 0 0 0 0 0 0 0 0 127 0" result = "hardAlpha"/>
<feMorphology radius = "49" operator = "dilate" in = "SourceAlpha" result = "effect1_dropShadow_58_11"/>
<feOffset dy = "4"/>
<feGaussianBlur stdDeviation = "66"/>
<feComposite in2 = "hardAlpha" operator = "out"/>
<feColorMatrix type = "matrix" values = "0 0 0 0 0 0 0 0 0 0 0 0 0 0 0 0 0 0 0.39 0"/>
<feBlend mode = "normal" in2 = "BackgroundImageFix" result = "effect1_dropShadow_58_11"/>
<feBlend mode = "normal" in = "SourceGraphic" in2 = "effect1_dropShadow_58_11" result = "shape"/>
</filter>
<linearGradient id = "paint0_linear_58_11" x1 = "291.418" y1 = "177" x2 = "291.418" y2 = "396" gradientUnits = "userSpaceOnUse">
<stop stop-color = "#6D7EBE"/>
<stop offset = "1" stop-color = "#273259"/>
</linearGradient>
</defs>
</svg>
