<svg width = "590" height = "625" viewBox = "0 0 590 625" fill = "none" xmlns = "http://www.w3.org/2000/svg">
<g filter = "url(#filter0_d_59_43)">
<rect x = "181.918" y = "177" width = "263" height = "263" rx = "35" fill = "url(#paint0_linear_59_43)"/>
</g>
<path d = "M381.592 256.075C376.317 249.208 361.371 237.192 353.458 233.758C348.183 232.042 342.908 231.183 338.512 232.9C335.875 234.617 333.237 236.333 332.358 239.767C331.479 243.2 331.479 246.633 332.358 249.208C329.721 250.067 326.204 250.925 323.567 251.783C317.412 250.067 311.258 249.208 305.104 249.208C266.421 249.208 234.771 280.108 234.771 317.875C234.771 355.642 266.421 386.542 305.104 386.542C343.787 386.542 375.437 355.642 375.437 317.875C375.437 307.575 372.8 298.133 369.283 289.55C368.404 286.975 368.404 280.967 370.162 279.25C370.162 278.392 371.042 278.392 371.042 278.392H373.679C375.437 278.392 377.196 278.392 378.954 277.533C382.471 275.817 385.108 272.383 385.987 268.95C385.108 263.8 384.229 259.508 381.592 256.075ZM304.225 376.242C270.817 376.242 244.442 349.633 244.442 317.875C244.442 286.117 271.696 259.508 304.225 259.508C337.633 259.508 364.008 286.117 364.008 317.875C364.008 349.633 337.633 376.242 304.225 376.242ZM372.8 267.233C371.921 267.233 371.042 267.233 369.283 266.375L367.525 263.8C367.525 263.8 363.129 267.233 360.492 272.383C360.492 273.242 359.612 273.242 359.612 274.1C353.458 266.375 346.425 260.367 337.633 256.075C338.512 255.217 339.392 255.217 340.271 254.358C343.787 251.783 346.425 248.35 346.425 248.35L341.15 244.058V241.483C341.15 241.483 341.15 240.625 342.029 240.625C343.787 239.767 346.425 239.767 349.062 241.483C355.217 244.058 369.283 255.217 373.679 260.367C374.558 262.083 375.437 262.942 374.558 264.658C374.558 266.375 373.679 267.233 372.8 267.233Z" fill = "#1F294A"/>
<path fill-rule = "evenodd" clip-rule = "evenodd" d = "M300.313 308.691C312.524 305.232 323.857 303.498 334.328 304.365C349.15 305.223 360.492 308.691 360.492 315.626C360.492 346.818 335.198 372.808 303.803 372.808C272.399 372.808 247.106 345.942 247.976 315.626C247.976 307.824 255.827 308.691 271.529 310.425C279.38 311.292 288.971 312.158 300.313 308.691Z" fill = "#1F294A"/>
<defs>
<filter id = "filter0_d_59_43" x = "0.918091" y = "0" width = "625" height = "625" filterUnits = "userSpaceOnUse" color-interpolation-filters = "sRGB">
<feFlood flood-opacity = "0" result = "BackgroundImageFix"/>
<feColorMatrix in = "SourceAlpha" type = "matrix" values = "0 0 0 0 0 0 0 0 0 0 0 0 0 0 0 0 0 0 127 0" result = "hardAlpha"/>
<feMorphology radius = "49" operator = "dilate" in = "SourceAlpha" result = "effect1_dropShadow_59_43"/>
<feOffset dy = "4"/>
<feGaussianBlur stdDeviation = "66"/>
<feComposite in2 = "hardAlpha" operator = "out"/>
<feColorMatrix type = "matrix" values = "0 0 0 0 0 0 0 0 0 0 0 0 0 0 0 0 0 0 0.39 0"/>
<feBlend mode = "normal" in2 = "BackgroundImageFix" result = "effect1_dropShadow_59_43"/>
<feBlend mode = "normal" in = "SourceGraphic" in2 = "effect1_dropShadow_59_43" result = "shape"/>
</filter>
<linearGradient id = "paint0_linear_59_43" x1 = "313.418" y1 = "177" x2 = "313.418" y2 = "440" gradientUnits = "userSpaceOnUse">
<stop stop-color = "#6D7EBE"/>
<stop offset = "1" stop-color = "#273259"/>
</linearGradient>
</defs>
</svg>
