<svg width="477" height="476" viewBox="0 0 477 476" fill="none" xmlns="http://www.w3.org/2000/svg">
<g filter="url(#filter0_d_65_94)">
<rect x="181.918" y="177" width="114" height="114" rx="21" fill="url(#paint0_linear_65_94)"/>
</g>
<path fill-rule="evenodd" clip-rule="evenodd" d="M228.557 273.471C228.526 273.478 228.493 273.481 228.461 273.481C224.852 273.481 221.875 271.863 219.544 268.622C217.238 265.514 216.011 261.768 216.041 257.932C216.041 254.001 216.639 250.393 217.826 247.111C216.316 244.43 215.559 241.279 215.559 237.653C215.559 234.281 216.157 231.28 217.344 228.646C218.584 225.966 219.911 223.83 221.329 222.231C219.911 223.83 218.579 225.966 217.349 228.646C216.157 231.28 215.563 234.281 215.563 237.653C215.563 241.279 216.316 244.435 217.831 247.111C216.608 250.591 216.005 254.249 216.046 257.928C216.008 261.837 217.28 265.651 219.669 268.792V268.801C221.817 271.694 224.495 273.246 227.694 273.457C227.983 273.472 228.273 273.477 228.562 273.471H228.557ZM219.269 249.307C222.29 253.112 226.748 255.012 232.649 255.012C227.505 255.012 223.457 253.568 220.504 250.68C220.064 250.25 219.651 249.792 219.269 249.312V249.307ZM219.597 258.572C219.597 256.347 219.771 254.292 220.118 252.42C223.337 255.195 227.559 256.536 232.649 256.536C236.943 256.536 240.789 255.811 244.142 254.325C247.472 252.839 250.15 250.751 252.113 248.051C254.007 245.43 255.428 242.513 256.316 239.426V239.416C257.226 236.248 257.686 232.972 257.682 229.681C257.682 226.408 256.996 220.477 255.665 211.979C258.208 209.674 260.2 207.506 261.6 205.455C263.202 203.179 264.051 200.799 263.998 198.354L263.993 198.288C263.882 196.609 263.361 195.113 262.328 193.909C261.214 192.607 259.674 192 257.904 192C256.316 192 254.859 192.357 253.575 193.124C252.297 193.886 251.284 195.005 250.512 196.393C248.987 199.12 248.311 203.024 248.311 207.906C248.311 209.166 248.379 210.436 248.504 211.715L241.156 217.547C239.004 216.037 236.335 215.327 233.267 215.327C230.726 215.32 228.217 215.88 225.932 216.964C223.689 218.003 221.754 219.428 220.142 221.23C218.598 222.97 217.199 225.251 215.92 228.016V228.026C214.627 230.885 214 234.102 214 237.648C214 241.222 214.695 244.435 216.133 247.233C215.023 250.525 214.483 254.095 214.483 257.928C214.483 262.17 215.747 266.04 218.265 269.497C220.852 273.081 224.273 275 228.466 275C228.812 275.005 229.153 274.915 229.45 274.74C229.747 274.566 229.988 274.313 230.145 274.012C230.338 273.62 230.415 273.184 230.367 272.752C230.37 272.368 230.282 271.988 230.111 271.642C229.958 271.344 229.723 271.094 229.433 270.92C229.142 270.745 228.807 270.653 228.466 270.654C225.995 270.654 223.93 269.572 222.207 267.113C220.46 264.594 219.549 261.612 219.597 258.572ZM242.111 250.661C244.217 249.431 245.987 247.722 247.269 245.681C250.15 241.1 251.592 235.55 251.592 229.032C251.592 227.433 251.177 222.57 250.357 214.452L250.536 216.263C251.24 223.299 251.592 227.551 251.592 229.027C251.592 235.55 250.145 241.1 247.269 245.681C245.986 247.724 244.215 249.435 242.106 250.666L242.111 250.661ZM240.61 222.161C241.112 223.327 241.368 224.536 241.368 225.792C241.368 228.816 240.176 231.534 237.797 233.951C240.176 231.534 241.368 228.816 241.368 225.792C241.369 224.544 241.111 223.309 240.61 222.161ZM233.855 236.373L233.923 236.359C233.9 236.364 233.878 236.369 233.855 236.373ZM232.374 236.547C232.423 236.932 232.591 237.293 232.856 237.582C233.172 237.811 233.559 237.925 233.952 237.907H234C233.984 237.907 233.968 237.907 233.952 237.907C233.559 237.924 233.171 237.808 232.856 237.577C232.591 237.289 232.423 236.928 232.374 236.543V236.547ZM238.372 221.78C229.204 229.277 222.951 236.326 219.597 242.939C219.258 243.604 218.943 244.28 218.651 244.966C221.807 237.498 228.784 229.441 239.583 220.802C238.116 219.334 236.109 218.596 233.542 218.596C235.448 218.596 237.049 219.005 238.347 219.819C238.796 220.101 239.206 220.425 239.583 220.802L238.376 221.775L238.372 221.78ZM237.069 220.853C228.731 227.72 222.695 234.295 219.095 240.597C218.669 237.611 218.955 234.569 219.93 231.708L219.935 231.689C221.493 226.864 224.012 223.591 227.399 221.662C229.267 220.62 231.389 220.087 233.542 220.12C234.975 220.12 236.133 220.378 237.074 220.853H237.069ZM228.823 235.339C232.195 231.591 235.846 228.09 239.747 224.865C239.785 225.171 239.805 225.476 239.805 225.792C239.805 228.378 238.801 230.73 236.668 232.898L236.654 232.917C235.226 234.412 233.812 235.024 232.374 235.024H230.492L230.84 236.825C230.946 237.52 231.271 238.166 231.771 238.673L231.819 238.72L231.872 238.767C232.499 239.261 233.247 239.426 233.952 239.426C236.466 239.426 238.724 238.73 240.659 237.309V237.305C242.536 235.922 243.906 234.285 244.668 232.381C245.45 230.448 245.839 228.386 245.812 226.309C245.812 224.409 245.344 222.65 244.413 221.056L249.078 217.401C249.72 223.863 250.029 227.706 250.029 229.032C250.029 235.334 248.635 240.592 245.932 244.886C244.6 246.998 242.697 248.711 240.432 249.838L240.403 249.857C238.111 251.094 235.385 251.738 232.171 251.738C227.332 251.738 223.906 250.153 221.624 247.082C223.273 242.775 225.712 238.796 228.823 235.339ZM260.514 198.641C260.514 201.218 258.719 204.303 255.139 207.901C254.695 208.348 254.222 208.804 253.715 209.265C258.251 205.079 260.514 201.538 260.514 198.641C260.514 196.397 259.645 195.273 257.908 195.273C257.907 195.273 257.905 195.273 257.904 195.273C259.641 195.273 260.509 196.397 260.509 198.641H260.514ZM257.489 202.662C256.861 203.65 256.022 204.708 254.975 205.841C254.951 205.429 254.938 205.017 254.936 204.604C254.936 201.566 255.312 199.506 255.92 198.255C256.115 197.802 256.425 197.405 256.823 197.103C257.14 196.891 257.519 196.783 257.904 196.797C258.396 196.797 258.531 196.934 258.613 197.032C258.753 197.216 258.951 197.667 258.951 198.641C258.951 199.704 258.531 201.035 257.489 202.662Z" fill="#202B4E"/>
<defs>
<filter id="filter0_d_65_94" x="0.917969" y="0" width="476" height="476" filterUnits="userSpaceOnUse" color-interpolation-filters="sRGB">
<feFlood flood-opacity="0" result="BackgroundImageFix"/>
<feColorMatrix in="SourceAlpha" type="matrix" values="0 0 0 0 0 0 0 0 0 0 0 0 0 0 0 0 0 0 127 0" result="hardAlpha"/>
<feMorphology radius="49" operator="dilate" in="SourceAlpha" result="effect1_dropShadow_65_94"/>
<feOffset dy="4"/>
<feGaussianBlur stdDeviation="66"/>
<feComposite in2="hardAlpha" operator="out"/>
<feColorMatrix type="matrix" values="0 0 0 0 0 0 0 0 0 0 0 0 0 0 0 0 0 0 0.39 0"/>
<feBlend mode="normal" in2="BackgroundImageFix" result="effect1_dropShadow_65_94"/>
<feBlend mode="normal" in="SourceGraphic" in2="effect1_dropShadow_65_94" result="shape"/>
</filter>
<linearGradient id="paint0_linear_65_94" x1="238.918" y1="177" x2="238.918" y2="291" gradientUnits="userSpaceOnUse">
<stop stop-color="#6D7EBE"/>
<stop offset="1" stop-color="#273259"/>
</linearGradient>
</defs>
</svg>
