<svg width="322" height="321" viewBox="0 0 322 321" fill="none" xmlns="http://www.w3.org/2000/svg">
<g filter="url(#filter0_d_58_11)">
<rect x="51.9183" y="47" width="219" height="219" rx="28" fill="url(#paint0_linear_58_11)"/>
</g>
<g filter="url(#filter1_d_58_11)">
<path fill-rule="evenodd" clip-rule="evenodd" d="M142.203 230.256C142.146 230.268 142.088 230.273 142.029 230.273C135.533 230.273 130.174 227.368 125.979 221.551C121.829 215.97 119.62 209.247 119.674 202.361C119.674 195.302 120.751 188.827 122.887 182.933C120.169 178.121 118.805 172.464 118.805 165.955C118.805 159.901 119.882 154.515 122.019 149.787C124.251 144.974 126.639 141.141 129.193 138.271C126.639 141.141 124.242 144.974 122.028 149.787C119.882 154.515 118.814 159.901 118.814 165.955C118.814 172.464 120.169 178.129 122.896 182.933C120.695 189.181 119.608 195.749 119.683 202.352C119.615 209.37 121.905 216.218 126.205 221.855V221.872C130.07 227.064 134.89 229.85 140.649 230.23C141.169 230.258 141.691 230.266 142.212 230.256H142.203ZM125.484 186.876C130.921 193.707 138.946 197.117 149.568 197.117C140.31 197.117 133.023 194.526 127.708 189.342C126.915 188.568 126.172 187.748 125.484 186.885V186.876ZM126.075 203.509C126.075 199.515 126.387 195.826 127.013 192.465C132.806 197.447 140.405 199.853 149.568 199.853C157.298 199.853 164.22 198.553 170.256 195.885C176.249 193.217 181.069 189.468 184.604 184.622C188.013 179.916 190.571 174.68 192.169 169.138V169.121C193.808 163.432 194.635 157.552 194.627 151.644C194.627 145.768 193.394 135.122 190.996 119.865C195.574 115.728 199.161 111.836 201.679 108.155C204.563 104.069 206.091 99.7966 205.996 95.4063L205.987 95.2881C205.787 92.274 204.849 89.5892 202.991 87.4278C200.984 85.0891 198.214 84 195.026 84C192.169 84 189.546 84.6417 187.236 86.0178C184.934 87.3856 183.11 89.395 181.721 91.8856C178.976 96.7825 177.76 103.79 177.76 112.554C177.76 114.816 177.882 117.096 178.108 119.392L164.88 129.862C161.007 127.151 156.204 125.877 150.68 125.877C146.106 125.864 141.591 126.869 137.478 128.815C133.44 130.681 129.957 133.239 127.056 136.472C124.277 139.596 121.758 143.691 119.457 148.655V148.672C117.129 153.806 116 159.581 116 165.946C116 172.363 117.251 178.129 119.839 183.153C117.841 189.063 116.869 195.471 116.869 202.352C116.869 209.968 119.144 216.916 123.678 223.122C128.333 229.555 134.491 233 142.038 233C142.662 233.009 143.276 232.847 143.81 232.534C144.345 232.22 144.778 231.767 145.061 231.227C145.408 230.523 145.547 229.74 145.46 228.964C145.465 228.274 145.308 227.593 145 226.971C144.725 226.437 144.302 225.988 143.779 225.675C143.255 225.362 142.653 225.197 142.038 225.198C137.591 225.198 133.874 223.257 130.773 218.841C127.628 214.319 125.988 208.967 126.075 203.509ZM166.6 189.308C170.391 187.099 173.576 184.031 175.884 180.367C181.069 172.144 183.666 162.181 183.666 150.479C183.666 147.609 182.919 138.879 181.443 124.306L181.764 127.557C183.032 140.187 183.666 147.82 183.666 150.471C183.666 162.181 181.061 172.144 175.884 180.367C173.575 184.035 170.386 187.106 166.591 189.316L166.6 189.308ZM163.899 138.144C164.802 140.238 165.262 142.408 165.262 144.662C165.262 150.091 163.117 154.971 158.835 159.31C163.117 154.971 165.262 150.091 165.262 144.662C165.263 142.422 164.8 140.205 163.899 138.144ZM151.739 163.658L151.861 163.633C151.821 163.642 151.78 163.65 151.739 163.658ZM149.073 163.971C149.161 164.661 149.464 165.309 149.942 165.828C150.51 166.238 151.206 166.444 151.913 166.411H152C151.971 166.411 151.942 166.411 151.913 166.411C151.205 166.442 150.509 166.233 149.942 165.82C149.464 165.301 149.161 164.653 149.073 163.962V163.971ZM159.869 137.46C143.367 150.918 132.111 163.574 126.075 175.445C125.465 176.638 124.897 177.852 124.373 179.084C130.053 165.676 142.611 151.214 162.049 135.704C159.409 133.07 155.795 131.744 151.175 131.744C154.606 131.744 157.489 132.479 159.825 133.94C160.633 134.446 161.371 135.029 162.049 135.704L159.878 137.452L159.869 137.46ZM157.524 135.797C142.516 148.124 131.651 159.927 125.172 171.24C124.404 165.88 124.918 160.419 126.674 155.283L126.683 155.249C129.488 146.587 134.022 140.711 140.119 137.249C143.481 135.377 147.301 134.421 151.175 134.48C153.754 134.48 155.839 134.944 157.533 135.797H157.524ZM142.681 161.801C148.751 155.072 155.323 148.788 162.344 142.999C162.414 143.548 162.448 144.096 162.448 144.662C162.448 149.306 160.642 153.527 156.803 157.419L156.777 157.453C154.206 160.138 151.661 161.235 149.073 161.235H145.686L146.311 164.469C146.503 165.717 147.088 166.877 147.987 167.787L148.074 167.871L148.17 167.956C149.299 168.842 150.645 169.138 151.913 169.138C156.438 169.138 160.503 167.888 163.986 165.339V165.33C167.364 162.848 169.831 159.91 171.203 156.49C172.611 153.022 173.31 149.319 173.261 145.591C173.261 142.18 172.419 139.022 170.743 136.16L179.141 129.6C180.296 141.2 180.852 148.098 180.852 150.479C180.852 161.793 178.342 171.232 173.478 178.94C171.08 182.731 167.654 185.806 163.577 187.83L163.525 187.864C159.4 190.085 154.493 191.241 148.708 191.241C139.997 191.241 133.831 188.396 129.723 182.883C132.692 175.15 137.082 168.006 142.681 161.801ZM199.725 95.9213C199.725 100.548 196.494 106.087 190.05 112.545C189.251 113.347 188.4 114.166 187.488 114.994C195.652 107.48 199.725 101.122 199.725 95.9213C199.725 91.8941 198.162 89.8762 195.035 89.8762C195.032 89.8762 195.029 89.8762 195.026 89.8762C198.153 89.8762 199.716 91.8941 199.716 95.9213H199.725ZM194.279 103.14C193.15 104.913 191.639 106.813 189.755 108.847C189.711 108.108 189.688 107.367 189.685 106.627C189.685 101.173 190.362 97.4748 191.457 95.229C191.806 94.4153 192.366 93.703 193.081 93.1605C193.652 92.7796 194.334 92.5872 195.026 92.6117C195.912 92.6117 196.155 92.8566 196.303 93.0339C196.555 93.3631 196.911 94.1736 196.911 95.9213C196.911 97.8294 196.155 100.219 194.279 103.14Z" fill="#E6C148"/>
</g>
<defs>
<filter id="filter0_d_58_11" x="0.918335" y="0" width="321" height="321" filterUnits="userSpaceOnUse" color-interpolation-filters="sRGB">
<feFlood flood-opacity="0" result="BackgroundImageFix"/>
<feColorMatrix in="SourceAlpha" type="matrix" values="0 0 0 0 0 0 0 0 0 0 0 0 0 0 0 0 0 0 127 0" result="hardAlpha"/>
<feMorphology radius="8" operator="dilate" in="SourceAlpha" result="effect1_dropShadow_58_11"/>
<feOffset dy="4"/>
<feGaussianBlur stdDeviation="21.5"/>
<feComposite in2="hardAlpha" operator="out"/>
<feColorMatrix type="matrix" values="0 0 0 0 0 0 0 0 0 0 0 0 0 0 0 0 0 0 0.81 0"/>
<feBlend mode="normal" in2="BackgroundImageFix" result="effect1_dropShadow_58_11"/>
<feBlend mode="normal" in="SourceGraphic" in2="effect1_dropShadow_58_11" result="shape"/>
</filter>
<filter id="filter1_d_58_11" x="94" y="66" width="134" height="193" filterUnits="userSpaceOnUse" color-interpolation-filters="sRGB">
<feFlood flood-opacity="0" result="BackgroundImageFix"/>
<feColorMatrix in="SourceAlpha" type="matrix" values="0 0 0 0 0 0 0 0 0 0 0 0 0 0 0 0 0 0 127 0" result="hardAlpha"/>
<feOffset dy="4"/>
<feGaussianBlur stdDeviation="11"/>
<feComposite in2="hardAlpha" operator="out"/>
<feColorMatrix type="matrix" values="0 0 0 0 0 0 0 0 0 0 0 0 0 0 0 0 0 0 0.4 0"/>
<feBlend mode="normal" in2="BackgroundImageFix" result="effect1_dropShadow_58_11"/>
<feBlend mode="normal" in="SourceGraphic" in2="effect1_dropShadow_58_11" result="shape"/>
</filter>
<linearGradient id="paint0_linear_58_11" x1="95" y1="47" x2="213" y2="266" gradientUnits="userSpaceOnUse">
<stop stop-color="#D0B043"/>
<stop offset="1" stop-color="#8A711F"/>
</linearGradient>
</defs>
</svg>
