<svg width="82" height="82" viewBox="0 0 82 82" fill="none" xmlns="http://www.w3.org/2000/svg">
<g clip-path="url(#clip0_394_8)">
<path d="M28.3488 40.4185L40.7211 27.8531L53.0961 40.4277C53.6545 40.9951 54.393 41.2788 55.1315 41.2788C55.8701 41.2788 56.6068 40.9928 57.1688 40.4208C58.2946 39.2769 58.2946 37.4236 57.1688 36.2796L42.7584 21.6368C41.6326 20.4928 39.8087 20.4928 38.6829 21.6368L24.2725 36.2796C23.1467 37.4236 23.1467 39.2769 24.2725 40.4208C25.3983 41.5648 27.223 41.5625 28.3488 40.4185ZM42.7566 39.2105C41.6308 38.0665 39.8069 38.0665 38.6811 39.2105L24.2707 53.8534C23.1449 54.9973 23.1449 56.8506 24.2707 57.9945C25.3965 59.1385 27.2203 59.1385 28.3461 57.9945L40.7211 45.4246L53.0961 57.9991C53.6545 58.5665 54.393 58.8502 55.1315 58.8502C55.8701 58.8502 56.6068 58.5642 57.1688 57.9923C58.2946 56.8483 58.2946 54.9951 57.1688 53.8511L42.7566 39.2105Z" fill="white"/>
</g>
<circle cx="41" cy="41" r="38.5" stroke="white" stroke-width="5"/>
<defs>
<clipPath id="clip0_394_8">
<rect width="34.585" height="46.8571" fill="white" transform="translate(23.4286 17.8503)"/>
</clipPath>
</defs>
</svg>
