<!--?xml version="1.0" encoding="utf-8"?-->
<!-- Generator: Adobe Illustrator 15.0.0, SVG Export Plug-In . SVG Version: 6.00 Build 0)  -->

<svg xmlns="http://www.w3.org/2000/svg" xmlns:xlink="http://www.w3.org/1999/xlink" width="512px" height="512px" viewBox="0 0 512 512">
<g>
			<path d="M50.993,226.851L229.104,69.263l178.083,157.587c11.668,11.669,30.651,11.669,42.262,0
				c11.787-11.639,11.787-30.565,0.117-42.263L250.671,8.683c-5.95-5.951-13.729-8.796-21.509-8.68
				c-7.837-0.116-15.646,2.729-21.596,8.68L8.73,184.588c-11.64,11.64-11.64,30.624,0,42.263
				C20.369,238.52,39.354,238.52,50.993,226.851z" id="path-0" style="position: relative;"></path>
			<path d="M250.671,221.859c-5.95-5.951-13.729-8.796-21.509-8.68c-7.837-0.116-15.646,2.729-21.596,8.68L8.73,397.735
				c-11.64,11.726-11.64,30.652,0,42.262c11.639,11.728,30.624,11.728,42.263,0l178.112-157.501l178.083,157.501
				c11.668,11.728,30.651,11.728,42.262,0c11.67-11.609,11.67-30.536,0-42.262L250.671,221.859z" id="path-1" style="position: relative;"></path>
		</g>
</svg>