<?xml version="1.0" encoding="utf-8"?>
<!-- Generator: Adobe Illustrator 23.0.1, SVG Export Plug-In . SVG Version: 6.00 Build 0)  -->
<svg version="1.1" id="Layer_1" xmlns="http://www.w3.org/2000/svg" xmlns:xlink="http://www.w3.org/1999/xlink" x="0px" y="0px"
	 viewBox="0 0 512 512" style="enable-background:new 0 0 512 512;" xml:space="preserve">
<style type="text/css">
	.st0{fill:#010101;}
</style>
<title>01</title>
<path class="st0" d="M349.8,256l140.7-140.7c20.6-20.8,20.6-54.3,0-75.1l-18.8-18.8c-20.8-20.6-54.3-20.6-75.1,0L256,162.2
	L115.3,21.5C94.5,0.8,61,0.8,40.2,21.5L21.5,40.2C0.8,61,0.8,94.5,21.5,115.3L162.2,256L21.5,396.7c-20.6,20.8-20.6,54.2,0,75
	l18.8,18.8c20.8,20.6,54.3,20.6,75.1,0L256,349.8l140.7,140.7c20.8,20.6,54.3,20.6,75.1,0l18.8-18.8c20.6-20.8,20.6-54.2,0-75
	L349.8,256z"/>
</svg>
