<svg width="70" height="70" viewBox="0 0 70 70" fill="none" xmlns="http://www.w3.org/2000/svg">
<g filter="url(#filter0_d_896_59)">
<circle cx="35" cy="35" r="25" fill="url(#paint0_radial_896_59)"/>
</g>
<g filter="url(#filter1_d_896_59)">
<path fill-rule="evenodd" clip-rule="evenodd" d="M32.2488 35.0835C32.2488 28.5942 33.4551 23.3335 34.9431 23.3335C36.4311 23.3335 37.6374 28.5942 37.6374 35.0835C37.6374 41.5727 36.4311 46.8335 34.9431 46.8335C33.4551 46.8335 32.2488 41.5727 32.2488 35.0835ZM32.9591 35.0835C32.9591 41.1892 33.8472 46.1386 34.9431 46.1386C36.0387 46.1386 36.9271 41.1892 36.9271 35.0835C36.9271 28.9779 36.0387 24.0282 34.9431 24.0282C33.8472 24.0282 32.9591 28.9779 32.9591 35.0835Z" fill="white"/>
<path fill-rule="evenodd" clip-rule="evenodd" d="M33.5935 32.8016C39.3327 29.541 44.592 27.9198 45.3407 29.1807C46.0891 30.4415 42.0433 34.1069 36.3044 37.3675C30.5651 40.6281 25.3058 42.2493 24.5572 40.9886C23.8088 39.7277 27.8543 36.0622 33.5935 32.8016ZM33.9508 33.4034C28.5513 36.4711 24.6212 39.7107 25.1724 40.639C25.7236 41.5676 30.5475 39.8334 35.947 36.7657C41.3465 33.6983 45.2767 30.4586 44.7255 29.5301C44.1743 28.6017 39.3503 30.3358 33.9508 33.4034Z" fill="white"/>
<path fill-rule="evenodd" clip-rule="evenodd" d="M33.5508 37.4053C27.8113 34.2197 23.7544 30.6099 24.4896 29.3421C25.2248 28.0743 30.4737 29.6288 36.2132 32.814C41.953 35.9996 46.0098 39.6095 45.2747 40.8773C44.5395 42.1451 39.2905 40.5906 33.5508 37.4053ZM33.9017 36.8001C39.2999 39.7958 44.1147 41.4674 44.6561 40.534C45.1974 39.6004 41.2605 36.4151 35.8623 33.4191C30.4644 30.4235 25.6495 28.7518 25.1082 29.6853C24.5666 30.619 28.5037 33.8042 33.9017 36.8001Z" fill="white"/>
<path fill-rule="evenodd" clip-rule="evenodd" d="M26.1606 32.5972C26.1606 32.228 26.4666 31.9287 26.844 31.9287C27.2214 31.9287 27.5274 32.228 27.5274 32.5972C27.5274 32.9664 27.2214 33.2657 26.844 33.2657C26.4666 33.2657 26.1606 32.9664 26.1606 32.5972Z" fill="white"/>
<path fill-rule="evenodd" clip-rule="evenodd" d="M32.604 43.2456C32.604 42.85 32.91 42.5293 33.2874 42.5293C33.6648 42.5293 33.9707 42.85 33.9707 43.2456C33.9707 43.6411 33.6648 43.9618 33.2874 43.9618C32.91 43.9618 32.604 43.6411 32.604 43.2456Z" fill="white"/>
<path fill-rule="evenodd" clip-rule="evenodd" d="M40.0234 29.7797C40.0234 29.3841 40.3294 29.0635 40.7068 29.0635C41.0843 29.0635 41.3902 29.3841 41.3902 29.7797C41.3902 30.1753 41.0843 30.496 40.7068 30.496C40.3294 30.496 40.0234 30.1753 40.0234 29.7797Z" fill="white"/>
<path fill-rule="evenodd" clip-rule="evenodd" d="M33.5803 35.0802C33.5803 34.3418 34.1923 33.7432 34.9471 33.7432C35.7018 33.7432 36.3138 34.3418 36.3138 35.0802C36.3138 35.8186 35.7018 36.4172 34.9471 36.4172C34.1923 36.4172 33.5803 35.8186 33.5803 35.0802Z" fill="white"/>
</g>
<defs>
<filter id="filter0_d_896_59" x="0" y="0" width="70" height="70" filterUnits="userSpaceOnUse" color-interpolation-filters="sRGB">
<feFlood flood-opacity="0" result="BackgroundImageFix"/>
<feColorMatrix in="SourceAlpha" type="matrix" values="0 0 0 0 0 0 0 0 0 0 0 0 0 0 0 0 0 0 127 0" result="hardAlpha"/>
<feOffset/>
<feGaussianBlur stdDeviation="5"/>
<feComposite in2="hardAlpha" operator="out"/>
<feColorMatrix type="matrix" values="0 0 0 0 0 0 0 0 0 0 0 0 0 0 0 0 0 0 0.25 0"/>
<feBlend mode="normal" in2="BackgroundImageFix" result="effect1_dropShadow_896_59"/>
<feBlend mode="normal" in="SourceGraphic" in2="effect1_dropShadow_896_59" result="shape"/>
</filter>
<filter id="filter1_d_896_59" x="20.4036" y="19.3335" width="29.0264" height="31.5" filterUnits="userSpaceOnUse" color-interpolation-filters="sRGB">
<feFlood flood-opacity="0" result="BackgroundImageFix"/>
<feColorMatrix in="SourceAlpha" type="matrix" values="0 0 0 0 0 0 0 0 0 0 0 0 0 0 0 0 0 0 127 0" result="hardAlpha"/>
<feOffset/>
<feGaussianBlur stdDeviation="2"/>
<feComposite in2="hardAlpha" operator="out"/>
<feColorMatrix type="matrix" values="0 0 0 0 1 0 0 0 0 1 0 0 0 0 1 0 0 0 1 0"/>
<feBlend mode="normal" in2="BackgroundImageFix" result="effect1_dropShadow_896_59"/>
<feBlend mode="normal" in="SourceGraphic" in2="effect1_dropShadow_896_59" result="shape"/>
</filter>
<radialGradient id="paint0_radial_896_59" cx="0" cy="0" r="1" gradientUnits="userSpaceOnUse" gradientTransform="translate(25.1667 23.4167) rotate(52.1901) scale(38.6052)">
<stop stop-color="#BFA9D7"/>
<stop offset="1" stop-color="#4B1F7E"/>
</radialGradient>
</defs>
</svg>
