<svg width="70" height="70" viewBox="0 0 70 70" fill="none" xmlns="http://www.w3.org/2000/svg">
<g filter="url(#filter0_d_937_68)">
<g filter="url(#filter1_d_937_68)">
<circle cx="35" cy="35" r="25" fill="url(#paint0_radial_937_68)"/>
</g>
</g>
<g filter="url(#filter2_d_937_68)">
<path d="M25 46.9657C25.0343 46.9227 25.0773 46.8884 25.1116 46.8455C27.3004 44.6481 29.4979 42.4421 31.6867 40.2446C33.618 38.3133 35.5408 36.3734 37.4721 34.4421C37.4979 34.4163 37.5236 34.3991 37.5408 34.3734C37.6094 34.2876 37.6953 34.2618 37.8069 34.2618C37.9356 34.2704 38.0558 34.2618 38.1846 34.2532C39.1717 34.1846 39.9957 33.7811 40.6567 33.0429C41.1545 32.4936 41.4549 31.8498 41.5408 31.1116C41.6953 29.7554 41.2403 28.6309 40.1846 27.7639C40.1159 27.7039 40.0386 27.6609 39.97 27.6094C39.9442 27.5923 39.9185 27.5837 39.8841 27.5579C36.0987 31.3519 32.3133 35.1545 28.5193 38.9657C28.5107 38.9227 28.5021 38.897 28.4936 38.8712C28.4936 38.8369 28.4936 38.8026 28.4936 38.7597C28.4936 34.4163 28.4936 30.073 28.4936 25.721C28.4936 25.6524 28.5021 25.5837 28.5021 25.5064C28.5622 25.5064 28.6052 25.5064 28.6481 25.5064C31.7382 25.5064 34.8197 25.5064 37.9099 25.5064C38.4506 25.5064 38.9743 25.5751 39.4807 25.7382C39.5579 25.7639 39.6094 25.7382 39.6609 25.6867C40.5107 24.8369 41.3605 23.9871 42.2017 23.1288C42.2876 23.0429 42.3648 23.0086 42.485 23.0086C43.0601 23.0086 43.6352 23 44.2189 23C44.2704 23 44.3219 23 44.382 23.0172C44.2961 23.1459 44.1846 23.2403 44.0815 23.3433C43.9785 23.4464 43.8755 23.5494 43.7725 23.6524C43.6695 23.7554 43.5579 23.867 43.4549 23.97C43.3519 24.073 43.2489 24.176 43.1459 24.279C43.0429 24.382 42.9313 24.4936 42.8283 24.5966C42.7253 24.6996 42.6223 24.8026 42.5193 24.9056C42.4163 25.0086 42.3047 25.1202 42.2017 25.2232C42.0987 25.3262 41.9957 25.4292 41.8927 25.5322C41.7897 25.6352 41.6781 25.7468 41.5751 25.8498C41.4721 25.9528 41.3691 26.0558 41.2661 26.1588C41.1631 26.2618 41.0601 26.3648 40.9485 26.4764C42.3648 27.6009 43.1116 29.0343 43.0343 30.8455C42.9571 32.6481 42.0901 34.0129 40.5966 35.0086C40.6395 35.0343 40.6652 35.0601 40.6996 35.0773C41.9013 35.8755 42.6738 36.9743 42.9485 38.3906C43.2575 39.9957 42.8712 41.4464 41.8155 42.7082C41.0773 43.5923 40.1245 44.1416 39 44.3906C38.6824 44.4592 38.3648 44.5021 38.0386 44.5021C35.2661 44.5021 32.485 44.5021 29.7124 44.5021C29.5751 44.5021 29.4807 44.5451 29.3863 44.6395C28.6395 45.3949 27.8927 46.1416 27.1459 46.897C27.0773 46.9657 27.0086 47 26.9056 47C26.3133 46.9914 25.7296 47 25.1373 47C25.0944 47 25.0515 47 25.0086 47C25.0086 46.9828 25 46.9742 25 46.9657ZM30.9657 43.0858C31.0258 43.0858 31.0687 43.0858 31.103 43.0858C33.3176 43.0858 35.5408 43.0858 37.7554 43.0858C37.9099 43.0858 38.0644 43.0773 38.2103 43.0601C38.9313 42.9828 39.5751 42.7082 40.1159 42.2275C41.0515 41.3949 41.4721 40.3476 41.3777 39.0944C41.309 38.2446 40.9657 37.5064 40.3734 36.897C39.7897 36.2961 39.0773 35.9356 38.2446 35.824C38.1502 35.8155 38.073 35.8155 37.9957 35.8927C35.6781 38.2618 33.3519 40.6309 31.0343 42.9914C31.0172 43.0172 31 43.0429 30.9657 43.0858ZM30.03 35.309C32.8197 32.5193 35.6009 29.7554 38.3734 26.9828C38.382 26.9742 38.3906 26.9657 38.3991 26.9571V26.9485C38.3991 26.9485 38.3991 26.9399 38.3906 26.9313C38.2704 26.9227 38.1502 26.9142 38.03 26.9142C35.4034 26.9142 32.7768 26.9142 30.1502 26.9142C30.1073 26.9142 30.073 26.9227 30.03 26.9227C30.03 29.7124 30.03 32.4936 30.03 35.309Z" fill="white"/>
</g>
<defs>
<filter id="filter0_d_937_68" x="0" y="0" width="70" height="70" filterUnits="userSpaceOnUse" color-interpolation-filters="sRGB">
<feFlood flood-opacity="0" result="BackgroundImageFix"/>
<feColorMatrix in="SourceAlpha" type="matrix" values="0 0 0 0 0 0 0 0 0 0 0 0 0 0 0 0 0 0 127 0" result="hardAlpha"/>
<feOffset/>
<feGaussianBlur stdDeviation="5"/>
<feComposite in2="hardAlpha" operator="out"/>
<feColorMatrix type="matrix" values="0 0 0 0 0 0 0 0 0 0 0 0 0 0 0 0 0 0 0.25 0"/>
<feBlend mode="normal" in2="BackgroundImageFix" result="effect1_dropShadow_937_68"/>
<feBlend mode="normal" in="SourceGraphic" in2="effect1_dropShadow_937_68" result="shape"/>
</filter>
<filter id="filter1_d_937_68" x="0" y="0" width="70" height="70" filterUnits="userSpaceOnUse" color-interpolation-filters="sRGB">
<feFlood flood-opacity="0" result="BackgroundImageFix"/>
<feColorMatrix in="SourceAlpha" type="matrix" values="0 0 0 0 0 0 0 0 0 0 0 0 0 0 0 0 0 0 127 0" result="hardAlpha"/>
<feOffset/>
<feGaussianBlur stdDeviation="5"/>
<feComposite in2="hardAlpha" operator="out"/>
<feColorMatrix type="matrix" values="0 0 0 0 0 0 0 0 0 0 0 0 0 0 0 0 0 0 0.25 0"/>
<feBlend mode="normal" in2="BackgroundImageFix" result="effect1_dropShadow_937_68"/>
<feBlend mode="normal" in="SourceGraphic" in2="effect1_dropShadow_937_68" result="shape"/>
</filter>
<filter id="filter2_d_937_68" x="21" y="19" width="27.382" height="32" filterUnits="userSpaceOnUse" color-interpolation-filters="sRGB">
<feFlood flood-opacity="0" result="BackgroundImageFix"/>
<feColorMatrix in="SourceAlpha" type="matrix" values="0 0 0 0 0 0 0 0 0 0 0 0 0 0 0 0 0 0 127 0" result="hardAlpha"/>
<feOffset/>
<feGaussianBlur stdDeviation="2"/>
<feComposite in2="hardAlpha" operator="out"/>
<feColorMatrix type="matrix" values="0 0 0 0 1 0 0 0 0 1 0 0 0 0 1 0 0 0 1 0"/>
<feBlend mode="normal" in2="BackgroundImageFix" result="effect1_dropShadow_937_68"/>
<feBlend mode="normal" in="SourceGraphic" in2="effect1_dropShadow_937_68" result="shape"/>
</filter>
<radialGradient id="paint0_radial_937_68" cx="0" cy="0" r="1" gradientUnits="userSpaceOnUse" gradientTransform="translate(25.1667 23.4167) rotate(52.1901) scale(38.6052)">
<stop stop-color="#8197FF"/>
<stop offset="1" stop-color="#2C3D87"/>
</radialGradient>
</defs>
</svg>
