<svg width="70" height="70" viewBox="0 0 70 70" fill="none" xmlns="http://www.w3.org/2000/svg">
<g filter="url(#filter0_d_937_71)">
<g filter="url(#filter1_d_937_71)">
<circle cx="35" cy="35" r="25" fill="url(#paint0_radial_937_71)"/>
</g>
</g>
<g filter="url(#filter2_d_937_71)">
<path d="M23 26C24.2 26.4224 25.2848 26.7968 26.36 27.2C26.4464 27.2288 26.552 27.392 26.552 27.488C26.5904 28.6592 26.6 30.992 26.6 30.992C26.6 30.992 26.312 32.336 26.1584 33.008C26.12 33.1904 26.0432 33.392 26.0912 33.5552C26.0912 33.5552 26.84 37.9616 26.8496 38.0096C27.0416 39.7568 28.808 41.1104 30.6032 41.0912C32.4272 41.072 34.0016 39.7184 34.2608 37.9136C34.3376 37.4048 34.2992 36.8768 34.3472 36.3584C34.3664 36.1376 34.472 35.9264 34.5488 35.7248C34.5872 35.6384 34.6544 35.552 34.7216 35.4752C35.4032 34.6688 35.8544 33.776 36.0272 32.7104C36.0848 32.3648 36.3728 32.0192 36.6512 31.7696C38.0432 30.464 39.7424 29.9936 41.6144 29.9936C43.352 29.9936 44.8976 30.56 46.2608 31.6064C46.4528 31.7504 46.616 31.9328 46.7408 32.0384C45.9056 32.8832 45.0992 33.6992 44.3312 34.4768C43.88 34.2272 43.4384 33.92 42.9488 33.728C40.5488 32.7968 37.8704 34.6208 37.9376 37.184C37.9664 38.1344 37.7456 38.8736 37.0256 39.4592C36.344 40.0256 36.3248 40.8416 36.1904 41.6096C36.1136 42.0416 35.9504 42.3776 35.6336 42.6848C34.568 43.7024 33.3008 44.2688 31.8704 44.4608C28.904 44.8736 26.4656 43.904 24.6224 41.5616C23.6528 40.3232 23.192 38.8832 23.1728 37.2992C23.1248 33.7184 23.0576 30.1472 23 26.5664C23 26.432 23 26.2688 23 26Z" fill="white"/>
<path d="M44.456 39.9107C45.3008 40.7267 46.1264 41.5139 47 42.3491C46.7504 42.5603 46.52 42.7715 46.28 42.9635C43.5248 45.1811 39.3488 44.9987 36.9488 42.5795C36.728 42.3587 36.6416 42.1571 36.7472 41.8499C36.824 41.6387 36.8528 41.3987 36.872 41.1683C36.9296 40.2467 37.64 39.7763 38.2256 39.1523C38.9552 40.2275 39.9152 40.8035 41.1728 40.9571C42.4304 41.1203 43.4864 40.7555 44.456 39.9107Z" fill="white"/>
<path d="M27.2816 35.2931C26.9552 34.5347 26.8016 33.3923 26.8016 33.3923C26.792 33.3347 26.984 32.0675 26.984 32.0675C26.9744 32.1347 27.5216 30.9539 28.1936 30.7139C30.7664 29.7827 33.0896 30.1667 35.1728 31.9619C35.3936 32.1539 35.3936 32.3459 35.3648 32.6147C35.2496 33.7283 34.6832 34.6115 33.9248 35.4851C33.8288 35.3987 33.7136 35.3123 33.6176 35.2067C33.0032 34.5731 32.3312 34.0163 31.4672 33.8147C29.9696 33.4691 28.6448 33.8243 27.5696 34.9763C27.4928 35.0531 27.4064 35.1491 27.2816 35.2931Z" fill="white"/>
</g>
<defs>
<filter id="filter0_d_937_71" x="0" y="0" width="70" height="70" filterUnits="userSpaceOnUse" color-interpolation-filters="sRGB">
<feFlood flood-opacity="0" result="BackgroundImageFix"/>
<feColorMatrix in="SourceAlpha" type="matrix" values="0 0 0 0 0 0 0 0 0 0 0 0 0 0 0 0 0 0 127 0" result="hardAlpha"/>
<feOffset/>
<feGaussianBlur stdDeviation="5"/>
<feComposite in2="hardAlpha" operator="out"/>
<feColorMatrix type="matrix" values="0 0 0 0 0 0 0 0 0 0 0 0 0 0 0 0 0 0 0.25 0"/>
<feBlend mode="normal" in2="BackgroundImageFix" result="effect1_dropShadow_937_71"/>
<feBlend mode="normal" in="SourceGraphic" in2="effect1_dropShadow_937_71" result="shape"/>
</filter>
<filter id="filter1_d_937_71" x="0" y="0" width="70" height="70" filterUnits="userSpaceOnUse" color-interpolation-filters="sRGB">
<feFlood flood-opacity="0" result="BackgroundImageFix"/>
<feColorMatrix in="SourceAlpha" type="matrix" values="0 0 0 0 0 0 0 0 0 0 0 0 0 0 0 0 0 0 127 0" result="hardAlpha"/>
<feOffset/>
<feGaussianBlur stdDeviation="5"/>
<feComposite in2="hardAlpha" operator="out"/>
<feColorMatrix type="matrix" values="0 0 0 0 0 0 0 0 0 0 0 0 0 0 0 0 0 0 0.25 0"/>
<feBlend mode="normal" in2="BackgroundImageFix" result="effect1_dropShadow_937_71"/>
<feBlend mode="normal" in="SourceGraphic" in2="effect1_dropShadow_937_71" result="shape"/>
</filter>
<filter id="filter2_d_937_71" x="19" y="22" width="32" height="26.5532" filterUnits="userSpaceOnUse" color-interpolation-filters="sRGB">
<feFlood flood-opacity="0" result="BackgroundImageFix"/>
<feColorMatrix in="SourceAlpha" type="matrix" values="0 0 0 0 0 0 0 0 0 0 0 0 0 0 0 0 0 0 127 0" result="hardAlpha"/>
<feOffset/>
<feGaussianBlur stdDeviation="2"/>
<feComposite in2="hardAlpha" operator="out"/>
<feColorMatrix type="matrix" values="0 0 0 0 1 0 0 0 0 1 0 0 0 0 1 0 0 0 1 0"/>
<feBlend mode="normal" in2="BackgroundImageFix" result="effect1_dropShadow_937_71"/>
<feBlend mode="normal" in="SourceGraphic" in2="effect1_dropShadow_937_71" result="shape"/>
</filter>
<radialGradient id="paint0_radial_937_71" cx="0" cy="0" r="1" gradientUnits="userSpaceOnUse" gradientTransform="translate(25.1667 23.4167) rotate(52.1901) scale(38.6052)">
<stop stop-color="#37EDBD"/>
<stop offset="1" stop-color="#09674E"/>
</radialGradient>
</defs>
</svg>
