<svg width="70" height="70" viewBox="0 0 70 70" fill="none" xmlns="http://www.w3.org/2000/svg">
<g filter="url(#filter0_d_937_53)">
<g filter="url(#filter1_d_937_53)">
<circle cx="35" cy="35" r="25" fill="url(#paint0_radial_937_53)"/>
</g>
</g>
<g filter="url(#filter2_d_937_53)">
<path d="M29.7218 23.4273C29.5129 23.4909 29.3299 23.62 29.2 23.7956C29.07 23.9711 28.9999 24.1838 29 24.4022V42.9897C29 43.5869 29.2484 43.7683 29.9258 43.7247C30.2501 43.708 30.5751 43.7096 30.8992 43.7294C31.5517 43.759 31.8865 43.4561 31.8865 42.8378V23.6515C31.8859 23.5494 31.8614 23.4488 31.815 23.3578C31.7686 23.2668 31.7016 23.1879 31.6193 23.1274C31.537 23.0669 31.4417 23.0265 31.341 23.0093C31.2403 22.9922 31.137 22.9988 31.0393 23.0286L29.7218 23.4273Z" fill="white"/>
<path d="M37.8549 33.2432H36.5693C36.0126 33.2432 35.7634 33.4923 35.7634 34.0514V42.4548C35.7634 43.7146 35.7634 44.9745 35.7634 46.2344C35.7634 46.732 36.0251 46.9952 36.5164 46.9952H37.8207C38.3657 46.9952 38.6149 46.7491 38.6149 46.2001V40.1188C38.6149 38.0787 38.6149 36.0388 38.6149 33.9992C38.6157 33.5071 38.3509 33.2432 37.8549 33.2432Z" fill="white"/>
<path d="M34.5457 34.2695C34.0856 34.2695 33.6246 34.2695 33.1644 34.2695C32.6505 34.2695 32.3982 34.5203 32.3982 35.0334V40.1539C32.3982 41.8737 32.3982 43.5935 32.3982 45.3133C32.3982 45.7696 32.6684 46.0375 33.1255 46.0383C33.5825 46.039 34.0599 46.0383 34.5271 46.0383C34.9756 46.0383 35.2427 45.7704 35.2427 45.3227C35.2427 41.8701 35.2427 38.418 35.2427 34.9664C35.2419 34.5428 34.9693 34.2711 34.5457 34.2695Z" fill="white"/>
<path d="M41.2585 35.2271C40.8045 35.2271 40.3506 35.2271 39.8966 35.2271C39.4053 35.2271 39.1421 35.4957 39.1421 35.9886V40.1731C39.1421 41.5794 39.1421 42.9859 39.1421 44.3927C39.1421 44.8654 39.4162 45.1394 39.8935 45.141C40.3467 45.141 40.8006 45.141 41.2546 45.141C41.7086 45.141 41.9912 44.8615 41.9912 44.4153C41.9912 41.596 41.9912 38.7765 41.9912 35.9567C41.9936 35.5011 41.7171 35.2294 41.2585 35.2271Z" fill="white"/>
</g>
<defs>
<filter id="filter0_d_937_53" x="0" y="0" width="70" height="70" filterUnits="userSpaceOnUse" color-interpolation-filters="sRGB">
<feFlood flood-opacity="0" result="BackgroundImageFix"/>
<feColorMatrix in="SourceAlpha" type="matrix" values="0 0 0 0 0 0 0 0 0 0 0 0 0 0 0 0 0 0 127 0" result="hardAlpha"/>
<feOffset/>
<feGaussianBlur stdDeviation="5"/>
<feComposite in2="hardAlpha" operator="out"/>
<feColorMatrix type="matrix" values="0 0 0 0 0 0 0 0 0 0 0 0 0 0 0 0 0 0 0.25 0"/>
<feBlend mode="normal" in2="BackgroundImageFix" result="effect1_dropShadow_937_53"/>
<feBlend mode="normal" in="SourceGraphic" in2="effect1_dropShadow_937_53" result="shape"/>
</filter>
<filter id="filter1_d_937_53" x="0" y="0" width="70" height="70" filterUnits="userSpaceOnUse" color-interpolation-filters="sRGB">
<feFlood flood-opacity="0" result="BackgroundImageFix"/>
<feColorMatrix in="SourceAlpha" type="matrix" values="0 0 0 0 0 0 0 0 0 0 0 0 0 0 0 0 0 0 127 0" result="hardAlpha"/>
<feOffset/>
<feGaussianBlur stdDeviation="5"/>
<feComposite in2="hardAlpha" operator="out"/>
<feColorMatrix type="matrix" values="0 0 0 0 0 0 0 0 0 0 0 0 0 0 0 0 0 0 0.25 0"/>
<feBlend mode="normal" in2="BackgroundImageFix" result="effect1_dropShadow_937_53"/>
<feBlend mode="normal" in="SourceGraphic" in2="effect1_dropShadow_937_53" result="shape"/>
</filter>
<filter id="filter2_d_937_53" x="24" y="18" width="22.9912" height="33.9951" filterUnits="userSpaceOnUse" color-interpolation-filters="sRGB">
<feFlood flood-opacity="0" result="BackgroundImageFix"/>
<feColorMatrix in="SourceAlpha" type="matrix" values="0 0 0 0 0 0 0 0 0 0 0 0 0 0 0 0 0 0 127 0" result="hardAlpha"/>
<feOffset/>
<feGaussianBlur stdDeviation="2.5"/>
<feComposite in2="hardAlpha" operator="out"/>
<feColorMatrix type="matrix" values="0 0 0 0 1 0 0 0 0 1 0 0 0 0 1 0 0 0 1 0"/>
<feBlend mode="normal" in2="BackgroundImageFix" result="effect1_dropShadow_937_53"/>
<feBlend mode="normal" in="SourceGraphic" in2="effect1_dropShadow_937_53" result="shape"/>
</filter>
<radialGradient id="paint0_radial_937_53" cx="0" cy="0" r="1" gradientUnits="userSpaceOnUse" gradientTransform="translate(25.1667 23.4167) rotate(52.1901) scale(38.6052)">
<stop stop-color="#FF4040"/>
<stop offset="1"/>
</radialGradient>
</defs>
</svg>
