<svg width="70" height="70" viewBox="0 0 70 70" fill="none" xmlns="http://www.w3.org/2000/svg">
<g filter="url(#filter0_d_896_62)">
<circle cx="35" cy="35" r="25" fill="url(#paint0_radial_896_62)"/>
</g>
<g filter="url(#filter1_d_896_62)">
<path d="M45.1784 36.0239C43.3374 34.488 41.8633 34.1489 40.3958 35.1729C39.1085 36.0239 38.5548 37.5598 39.2018 38.9295C39.9356 40.4654 41.223 40.9774 43.711 40.6383C42.8839 41.9215 41.7766 42.6862 40.5826 43.4574C40.5826 43.371 40.4892 43.371 40.4892 43.371C40.9495 41.8351 40.2157 40.8112 39.0151 39.9601C37.9078 39.109 37.4542 38.0851 37.3608 36.8019C37.2675 35.9508 37.2675 35.0931 37.1741 34.3285C37.0807 33.9894 36.9006 33.6436 36.6204 33.3045C36.347 32.9654 35.9734 32.9654 35.6999 33.3045C35.4265 33.6436 35.2397 33.9894 35.2397 34.4149C35.1463 35.0133 35.2397 35.6981 35.2397 36.2899C35.2397 36.8883 35.2397 37.4867 35.2397 38.0851C35.1463 38.9362 34.7794 39.621 33.9523 39.9601C33.3053 40.3856 32.845 40.8976 32.5716 41.5824C32.2047 42.4335 32.2981 43.2912 32.845 43.9694C33.0318 44.2287 33.2119 44.3949 33.3053 44.7407C32.6583 44.5678 32.1113 44.4016 31.4643 44.1423C28.3359 42.7793 26.3148 40.5585 25.8546 37.3138C25.8546 37.141 25.6678 36.9747 25.5811 36.8019C24.2003 35.4388 23.0997 34.0691 22.3593 32.2806C21.9991 30.7314 21.8123 29.109 22.2726 27.4867C22.366 27.0612 22.4594 26.5492 22.4594 26.0372C22.4594 25.5253 22.6461 25.3524 23.1931 25.3524C23.6534 25.3524 24.207 25.3524 24.6672 25.4388C26.5082 25.6981 28.2559 26.1237 29.73 27.3138C30.2836 27.7394 30.7439 28.1649 31.2041 28.6769C31.3909 28.8497 31.571 28.9362 31.8512 28.8497C34.2458 27.8258 36.8205 27.7394 39.3019 28.5904C39.5754 28.6769 39.7622 28.6769 40.0356 28.4176C41.5965 26.4561 43.7176 25.5186 46.2924 25.1729C46.7526 25.0864 47.2129 25 47.5798 25C48.2268 25 48.4069 25.2593 48.5003 25.8511C48.5003 26.363 48.5936 26.9614 48.7737 27.4734C49.234 29.3484 48.7737 31.2301 47.7599 33.0186C47.0195 34.1423 46.1923 35 45.1784 36.0239ZM40.9495 29.4481C43.064 30.8112 44.4447 32.6064 44.9983 34.9934C45.6454 34.3085 46.1056 33.5439 46.4725 32.859C47.2062 30.984 47.4864 29.1888 47.5798 27.3138C47.5798 26.7154 47.4864 26.629 46.846 26.8019C45.0984 27.141 43.5309 27.8258 42.0634 28.6769C41.6832 28.8564 41.3163 29.1955 40.9495 29.4481ZM26.2281 34.9136C26.8751 32.6064 28.2492 30.8178 30.277 29.5346C30.277 29.4481 30.277 29.3617 30.1836 29.3617C28.5294 27.9987 26.595 27.234 24.3871 26.8019C24.2003 26.7154 24.1136 26.8883 24.1136 27.141C24.1136 27.5665 24.1136 27.992 24.1136 28.4242C24.3004 30.2992 24.5739 32.0944 25.4944 33.8032C25.5811 34.1423 25.9546 34.5745 26.2281 34.9136ZM30.5505 34.8271C28.6161 34.8271 27.2353 36.1902 27.2353 37.8989C27.2353 39.6077 28.7094 40.9707 30.5505 40.9707C32.3915 40.9707 33.9523 39.6077 33.9523 37.8989C33.8656 36.1104 32.3915 34.8271 30.5505 34.8271Z" fill="white"/>
<path d="M36.994 41.23C37.4543 41.1436 37.9145 41.3165 38.3748 41.4893C38.675 41.6223 38.835 41.7486 38.6483 42.0877C37.9145 43.1981 36.2536 43.2845 35.5199 42.1742C35.3331 41.9149 35.4265 41.5758 35.7934 41.4893C36.0735 41.4029 36.5338 41.3165 36.994 41.23Z" fill="white"/>
<path d="M31.471 37.3003C31.8779 37.3003 32.2048 36.9945 32.2048 36.6155C32.2048 36.2365 31.8779 35.9307 31.471 35.9307C31.0641 35.9307 30.7373 36.2365 30.7373 36.6155C30.7373 36.9945 31.0641 37.3003 31.471 37.3003Z" fill="white"/>
<path d="M29.8167 39.6938C30.0702 39.6938 30.2769 39.501 30.2769 39.2683C30.2769 39.0356 30.0702 38.8428 29.8167 38.8428C29.5632 38.8428 29.3564 39.0356 29.3564 39.2683C29.3564 39.501 29.5632 39.6938 29.8167 39.6938Z" fill="white"/>
<path d="M43.2507 37.2208C43.6576 37.2208 43.9844 36.9149 43.9844 36.5359C43.9844 36.1569 43.6576 35.8511 43.2507 35.8511C42.8438 35.8511 42.5169 36.1569 42.5169 36.5359C42.5103 36.9149 42.8438 37.2208 43.2507 37.2208Z" fill="white"/>
<path d="M41.5031 39.9468C41.8099 39.9468 42.0567 39.7207 42.0567 39.4348C42.0567 39.1489 41.8099 38.9229 41.5031 38.9229C41.1963 38.9229 40.9495 39.1489 40.9495 39.4348C40.9495 39.7207 41.1963 39.9468 41.5031 39.9468Z" fill="white"/>
<path d="M30.5504 35C28.8961 35 27.5154 36.2832 27.5154 37.8191C27.5154 39.3551 28.8961 40.6383 30.5504 40.6383C32.2046 40.6383 33.5854 39.3551 33.5854 37.7394C33.5854 36.1237 32.2113 35 30.5504 35ZM30.5504 40.2061C29.0762 40.2061 27.8822 39.0957 27.8822 37.7327C27.8822 36.3697 29.0762 35.2593 30.5504 35.2593C32.0245 35.2593 33.2185 36.3697 33.2185 37.7327C33.2185 39.0957 32.0245 40.2061 30.5504 40.2061Z" fill="white"/>
<path d="M42.3303 35C40.676 35 39.3887 36.1968 39.3887 37.7327C39.3887 39.2686 40.676 40.4654 42.3303 40.4654C43.9845 40.4654 45.2719 39.2686 45.2719 37.7327C45.2719 36.2766 43.8911 35 42.3303 35ZM42.3303 40.2061C40.8561 40.2061 39.7555 39.0957 39.7555 37.8191C39.7555 36.4561 40.9495 35.4322 42.3303 35.4322C43.8044 35.4322 44.905 36.5426 44.905 37.8191C44.905 39.0957 43.711 40.2061 42.3303 40.2061Z" fill="white"/>
<path d="M34.6261 34.0425L36.367 32.3403L37.561 32.7858C37.7745 33.5371 38.3881 35.1661 38.2081 35.3722C37.3209 36.4294 40.0891 40.6183 38.8884 39.9002C37.9346 39.3284 34.6861 39.5611 33.7656 39.9999L34.6194 37.8191V34.0425H34.6261Z" fill="white"/>
<path d="M36.4003 44.3217C34.9395 44.468 33.552 44.2685 32.3714 43.8098C32.2313 43.9627 32.0779 44.109 31.9111 44.2353C33.1918 44.8536 34.7794 45.1462 36.467 44.98C38.7148 44.7539 40.6426 43.7632 41.8032 42.4002C41.6431 42.3404 41.4897 42.2606 41.343 42.1675C40.1623 43.3044 38.4147 44.1223 36.4003 44.3217Z" fill="white"/>
</g>
<defs>
<filter id="filter0_d_896_62" x="0" y="0" width="70" height="70" filterUnits="userSpaceOnUse" color-interpolation-filters="sRGB">
<feFlood flood-opacity="0" result="BackgroundImageFix"/>
<feColorMatrix in="SourceAlpha" type="matrix" values="0 0 0 0 0 0 0 0 0 0 0 0 0 0 0 0 0 0 127 0" result="hardAlpha"/>
<feOffset/>
<feGaussianBlur stdDeviation="5"/>
<feComposite in2="hardAlpha" operator="out"/>
<feColorMatrix type="matrix" values="0 0 0 0 0 0 0 0 0 0 0 0 0 0 0 0 0 0 0.25 0"/>
<feBlend mode="normal" in2="BackgroundImageFix" result="effect1_dropShadow_896_62"/>
<feBlend mode="normal" in="SourceGraphic" in2="effect1_dropShadow_896_62" result="shape"/>
</filter>
<filter id="filter1_d_896_62" x="12" y="15" width="46.9526" height="40.0259" filterUnits="userSpaceOnUse" color-interpolation-filters="sRGB">
<feFlood flood-opacity="0" result="BackgroundImageFix"/>
<feColorMatrix in="SourceAlpha" type="matrix" values="0 0 0 0 0 0 0 0 0 0 0 0 0 0 0 0 0 0 127 0" result="hardAlpha"/>
<feOffset/>
<feGaussianBlur stdDeviation="5"/>
<feComposite in2="hardAlpha" operator="out"/>
<feColorMatrix type="matrix" values="0 0 0 0 1 0 0 0 0 1 0 0 0 0 1 0 0 0 1 0"/>
<feBlend mode="normal" in2="BackgroundImageFix" result="effect1_dropShadow_896_62"/>
<feBlend mode="normal" in="SourceGraphic" in2="effect1_dropShadow_896_62" result="shape"/>
</filter>
<radialGradient id="paint0_radial_896_62" cx="0" cy="0" r="1" gradientUnits="userSpaceOnUse" gradientTransform="translate(24.1667 24.1667) rotate(50.7202) scale(34.8808)">
<stop stop-color="#F6F8A6"/>
<stop offset="1" stop-color="#FFB950"/>
</radialGradient>
</defs>
</svg>
