<svg width="70" height="70" viewBox="0 0 70 70" fill="none" xmlns="http://www.w3.org/2000/svg">
<g filter="url(#filter0_d_937_67)">
<g filter="url(#filter1_d_937_67)">
<circle cx="35" cy="35" r="25" fill="url(#paint0_radial_937_67)"/>
</g>
</g>
<g filter="url(#filter2_d_937_67)">
<path d="M29.1771 31.6385V24.5783C29.1771 24.3341 29.3602 24.1408 29.5942 24.1103C31.5067 23.9373 39.3808 23.8254 41.3646 33.4289C41.4053 33.6426 41.5985 33.8054 41.8224 33.8054C42.1174 33.8054 42.331 33.5408 42.2802 33.256C41.8325 30.8856 39.4317 21.7501 28.9939 23.1438C28.2818 23.2354 27.7426 23.8458 27.7426 24.5681V31.5774C27.295 31.8114 27 32.2794 27 32.8186C27 33.5917 27.6307 34.2326 28.4141 34.2326C29.1974 34.2326 29.8282 33.6019 29.8282 32.8186C29.818 32.3201 29.5636 31.8928 29.1771 31.6385Z" fill="white"/>
<path d="M41.802 35.1992C41.568 35.1992 41.3646 35.3722 41.334 35.6061C40.3371 43.0936 34.0399 44.701 32.2189 45.0062C32.1985 45.0062 32.1883 45.0164 32.168 45.0164C31.9543 44.5179 31.4559 44.172 30.876 44.172C30.1028 44.172 29.4619 44.8027 29.4619 45.5861C29.4619 46.3592 30.0927 47.0001 30.876 47.0001C31.4864 47.0001 32.0052 46.6136 32.1985 46.0642C32.2697 46.0845 32.3511 46.0845 32.4325 46.0744C41.0085 44.1822 42.1276 37.6103 42.27 35.7181C42.3005 35.4332 42.0767 35.1992 41.802 35.1992Z" fill="white"/>
<path d="M31.9442 40.3162C31.8831 40.3264 31.8119 40.3366 31.7509 40.3467C31.4559 40.3976 31.2321 40.6418 31.2321 40.947C31.2321 41.3437 31.6288 41.6184 32.0052 41.4861C33.694 40.8757 37.5089 38.9835 37.7734 34.6294C37.9464 31.7707 35.3624 28.6069 33.7143 28.088C33.1039 27.8947 32.4935 28.3627 32.4935 28.9934V35.8603C32.4935 36.1452 32.7275 36.3894 33.0225 36.3894C33.3074 36.3894 33.5515 36.1554 33.5515 35.8603V29.5937C33.5515 29.3597 33.8262 29.2172 34.0093 29.3698C35.4031 30.5194 39.1875 34.3445 34.5994 38.8818C33.8567 39.6041 32.9412 40.1229 31.9442 40.3162Z" fill="white"/>
<path d="M37.2749 39.8381C37.5292 40.0925 37.9463 40.062 38.1498 39.7669C39.0756 38.4444 41.2221 34.7719 38.9026 30.3974C37.0104 26.8368 34.8333 26.3281 32.3511 25.7279C31.4457 25.5143 30.642 26.4197 30.642 27.3454V34.1513C30.642 34.4463 30.8861 34.6905 31.1811 34.6905C31.4762 34.6905 31.7203 34.4463 31.7203 34.1513V27.3556C31.7203 27.0097 32.0357 26.7554 32.3714 26.8164C34.1009 27.1522 38.6686 28.6069 38.7602 34.6702C38.7704 35.4738 38.6279 36.2673 38.3329 37.01C38.0786 37.6712 37.692 38.4953 37.224 39.0752C37.0409 39.299 37.0511 39.6143 37.2546 39.8178L37.2749 39.8381Z" fill="white"/>
</g>
<defs>
<filter id="filter0_d_937_67" x="0" y="0" width="70" height="70" filterUnits="userSpaceOnUse" color-interpolation-filters="sRGB">
<feFlood flood-opacity="0" result="BackgroundImageFix"/>
<feColorMatrix in="SourceAlpha" type="matrix" values="0 0 0 0 0 0 0 0 0 0 0 0 0 0 0 0 0 0 127 0" result="hardAlpha"/>
<feOffset/>
<feGaussianBlur stdDeviation="5"/>
<feComposite in2="hardAlpha" operator="out"/>
<feColorMatrix type="matrix" values="0 0 0 0 0 0 0 0 0 0 0 0 0 0 0 0 0 0 0.25 0"/>
<feBlend mode="normal" in2="BackgroundImageFix" result="effect1_dropShadow_937_67"/>
<feBlend mode="normal" in="SourceGraphic" in2="effect1_dropShadow_937_67" result="shape"/>
</filter>
<filter id="filter1_d_937_67" x="0" y="0" width="70" height="70" filterUnits="userSpaceOnUse" color-interpolation-filters="sRGB">
<feFlood flood-opacity="0" result="BackgroundImageFix"/>
<feColorMatrix in="SourceAlpha" type="matrix" values="0 0 0 0 0 0 0 0 0 0 0 0 0 0 0 0 0 0 127 0" result="hardAlpha"/>
<feOffset/>
<feGaussianBlur stdDeviation="5"/>
<feComposite in2="hardAlpha" operator="out"/>
<feColorMatrix type="matrix" values="0 0 0 0 0 0 0 0 0 0 0 0 0 0 0 0 0 0 0.25 0"/>
<feBlend mode="normal" in2="BackgroundImageFix" result="effect1_dropShadow_937_67"/>
<feBlend mode="normal" in="SourceGraphic" in2="effect1_dropShadow_937_67" result="shape"/>
</filter>
<filter id="filter2_d_937_67" x="23" y="19" width="23.2877" height="32" filterUnits="userSpaceOnUse" color-interpolation-filters="sRGB">
<feFlood flood-opacity="0" result="BackgroundImageFix"/>
<feColorMatrix in="SourceAlpha" type="matrix" values="0 0 0 0 0 0 0 0 0 0 0 0 0 0 0 0 0 0 127 0" result="hardAlpha"/>
<feOffset/>
<feGaussianBlur stdDeviation="2"/>
<feComposite in2="hardAlpha" operator="out"/>
<feColorMatrix type="matrix" values="0 0 0 0 1 0 0 0 0 1 0 0 0 0 1 0 0 0 1 0"/>
<feBlend mode="normal" in2="BackgroundImageFix" result="effect1_dropShadow_937_67"/>
<feBlend mode="normal" in="SourceGraphic" in2="effect1_dropShadow_937_67" result="shape"/>
</filter>
<radialGradient id="paint0_radial_937_67" cx="0" cy="0" r="1" gradientUnits="userSpaceOnUse" gradientTransform="translate(25.1667 23.4167) rotate(52.1901) scale(38.6052)">
<stop stop-color="#3361A9"/>
<stop offset="1" stop-color="#122960"/>
</radialGradient>
</defs>
</svg>
