<svg width="70" height="70" viewBox="0 0 70 70" fill="none" xmlns="http://www.w3.org/2000/svg">
<g filter="url(#filter0_d_937_86)">
<g filter="url(#filter1_d_937_86)">
<circle cx="35" cy="35" r="25" fill="url(#paint0_radial_937_86)"/>
</g>
</g>
<path d="M24.6948 29.2948C24.8535 28.7989 24.9428 28.5013 25.1412 28.1542C25.776 27.0135 26.2322 25.7935 26.877 24.6627C27.5118 23.5518 28.5136 23.0559 29.7832 23.0063C31.519 22.9368 33.106 23.4526 34.6533 24.137C36.9545 25.1587 38.9879 26.587 40.7237 28.412C41.8644 29.6122 43.0943 30.7331 43.9572 32.2011C45.6534 35.0676 45.574 38.1226 43.3026 40.8503C41.3287 43.211 38.7994 44.5302 35.9825 45.4626C35.3675 45.661 34.7724 45.8891 34.1673 46.1073C32.7787 46.6231 31.3404 46.8909 29.8725 47C29.5451 46.9901 29.2079 46.9802 28.8806 46.9802C28.7219 46.9405 28.5632 46.9008 28.4045 46.8711C26.9861 46.6528 25.9347 45.9188 25.2899 44.6195C24.9626 43.9648 24.7742 43.2705 24.5163 42.5861C24.4865 42.4671 24.4667 42.4869 24.4369 42.2786C24.4171 41.8124 24.3576 41.3462 24.2088 40.9098C24.1989 40.8404 24.1889 40.771 24.179 40.7015C24.1294 40.0469 24.0005 39.3228 24.0104 38.7277C24.0104 37.4283 24.0104 36.1388 24.0005 34.8395C24.0005 34.5022 23.9906 34.3832 24.06 34.046C24.0798 33.7286 24.1195 33.4905 24.0997 33.0541C24.2286 32.1316 24.3576 31.2092 24.4865 30.2768C24.4964 30.2074 24.5064 30.1479 24.5163 30.0784C24.546 29.7709 24.5758 29.7313 24.6651 29.4833C24.6651 29.4238 24.6849 29.3543 24.6948 29.2948ZM29.4955 45.4328C29.4559 45.413 29.4162 45.3832 29.3864 45.3634C29.3468 45.3336 29.2972 45.294 29.2575 45.2642C29.1186 45.1948 29.1186 45.1749 28.9897 45.0559C28.4541 44.4608 28.0672 43.7367 27.3134 43.3598C27.2836 43.33 27.2539 43.3003 27.2241 43.2606C26.8968 42.7547 26.5695 42.2489 26.2422 41.743C26.2521 41.7132 26.2422 41.6934 26.2223 41.6835C26.0835 41.2272 25.9347 40.771 25.8156 40.3048C25.1908 37.8251 25.1908 35.3057 25.2304 32.7763C25.2403 32.4193 25.2205 32.0622 25.2503 31.7051C24.8932 34.0261 24.8337 36.367 24.9527 38.7078C24.9527 38.8368 24.9626 38.9756 24.9626 39.1046C25.0122 40.0766 25.0618 41.0388 25.3296 41.9811C25.3395 42.0505 25.3495 42.11 25.3594 42.1794C25.5181 43.092 25.8057 43.9549 26.3314 44.7286C26.5298 45.0261 26.7381 45.3336 27.0952 45.4527C27.482 45.661 27.4225 45.6114 27.6804 45.7701C27.7498 45.7899 27.8193 45.8197 27.8986 45.8395C28.8707 46.2263 29.8625 46.1767 30.9437 46.028C30.6065 45.7899 30.3089 45.6907 29.9816 45.661C29.9617 45.6411 29.932 45.6312 29.9022 45.6312C29.7336 45.5419 29.6642 45.532 29.4955 45.4328ZM27.7201 38.9062C27.73 38.9756 27.73 39.0451 27.7399 39.1046C27.7895 40.4833 28.0771 41.8124 28.6326 43.092C28.702 43.2606 28.8409 43.33 28.9996 43.3995C29.5253 43.6177 30.0907 43.6871 30.6461 43.6772C34.7724 43.578 38.2142 41.9414 41.0411 38.9856C41.4081 38.5987 41.547 38.1325 41.5767 37.587C41.6957 35.633 40.9221 34.0162 39.7814 32.5284C38.1745 30.4355 36.1114 28.8882 33.7805 27.688C32.5902 27.073 31.3404 26.6068 30.0113 26.3688C29.5451 26.2795 29.2178 26.3588 28.9599 26.8349C28.5334 27.6384 28.2755 28.4815 28.097 29.3543C27.5812 31.7944 27.5514 34.2741 27.5812 36.7538C27.601 37.4581 27.5514 38.192 27.7201 38.9062ZM30.5569 25.5554C32.6993 26.0712 34.6335 27.0135 36.4288 28.2434C38.5911 29.7213 40.4559 31.4869 41.6561 33.8674C42.0627 34.6709 42.3008 35.5239 42.4694 36.486C42.7471 35.9107 42.8265 35.3949 42.8265 34.8791C42.8463 32.7962 42.0131 31.0108 40.5749 29.6023C38.4424 27.5094 35.8635 26.1307 32.9275 25.4761C32.1538 25.3074 31.3504 25.2281 30.5569 25.5554ZM26.9861 40.8602C27.0555 40.5825 26.996 40.3345 26.9662 40.0965C26.7579 38.2714 26.6687 36.4463 26.7381 34.6113C26.8174 32.6276 26.9166 30.6537 27.363 28.7195C27.5514 27.9161 27.8391 27.1524 28.1962 26.4084C27.9581 26.3192 27.7994 26.4184 27.6209 26.468C26.7381 26.7358 26.6389 27.4896 26.51 28.2335C26.0537 30.8124 26.0438 33.4211 26.0934 36.0397C26.1132 37.5176 26.3017 38.9657 26.6786 40.394C26.7381 40.5428 26.7381 40.7412 26.9861 40.8602ZM39.3846 41.6934C36.4288 43.4788 33.3441 44.7782 29.6642 44.4509C32.491 46.2065 37.0339 44.6988 39.3846 41.6934ZM43.7589 34.2146C43.7489 34.3138 43.7291 34.403 43.7291 34.5022C43.7291 35.7024 43.4514 36.8332 42.8364 37.8548C42.0231 39.2038 41.5966 40.7809 40.4856 41.9513C40.4162 42.0307 40.3071 42.1497 40.436 42.2489C40.5253 42.3183 40.6245 42.229 40.7039 42.1695C42.519 40.8106 43.9176 39.174 44.2251 36.8332C44.354 35.9405 44.2449 35.0478 43.7589 34.2146ZM32.9572 24.5139C32.7886 24.3751 32.7489 24.3156 32.6993 24.2957C31.638 23.9287 30.5569 23.7303 29.436 23.8791C28.5433 23.9982 27.8887 24.504 27.4919 25.3174C27.4423 25.4166 27.363 25.6149 27.5316 25.5753C28.0573 25.4661 28.6921 25.6149 29.1087 25.2876C29.9221 24.6627 30.8147 24.4743 31.7967 24.5139C32.134 24.5239 32.4712 24.5139 32.9572 24.5139Z" fill="white"/>
<path d="M29.4956 45.4327C29.4559 45.4129 29.4162 45.3831 29.3865 45.3633C29.4162 45.3831 29.4559 45.4129 29.4956 45.4327Z" fill="white"/>
<defs>
<filter id="filter0_d_937_86" x="0" y="0" width="70" height="70" filterUnits="userSpaceOnUse" color-interpolation-filters="sRGB">
<feFlood flood-opacity="0" result="BackgroundImageFix"/>
<feColorMatrix in="SourceAlpha" type="matrix" values="0 0 0 0 0 0 0 0 0 0 0 0 0 0 0 0 0 0 127 0" result="hardAlpha"/>
<feOffset/>
<feGaussianBlur stdDeviation="5"/>
<feComposite in2="hardAlpha" operator="out"/>
<feColorMatrix type="matrix" values="0 0 0 0 0 0 0 0 0 0 0 0 0 0 0 0 0 0 0.25 0"/>
<feBlend mode="normal" in2="BackgroundImageFix" result="effect1_dropShadow_937_86"/>
<feBlend mode="normal" in="SourceGraphic" in2="effect1_dropShadow_937_86" result="shape"/>
</filter>
<filter id="filter1_d_937_86" x="0" y="0" width="70" height="70" filterUnits="userSpaceOnUse" color-interpolation-filters="sRGB">
<feFlood flood-opacity="0" result="BackgroundImageFix"/>
<feColorMatrix in="SourceAlpha" type="matrix" values="0 0 0 0 0 0 0 0 0 0 0 0 0 0 0 0 0 0 127 0" result="hardAlpha"/>
<feOffset/>
<feGaussianBlur stdDeviation="5"/>
<feComposite in2="hardAlpha" operator="out"/>
<feColorMatrix type="matrix" values="0 0 0 0 0 0 0 0 0 0 0 0 0 0 0 0 0 0 0.25 0"/>
<feBlend mode="normal" in2="BackgroundImageFix" result="effect1_dropShadow_937_86"/>
<feBlend mode="normal" in="SourceGraphic" in2="effect1_dropShadow_937_86" result="shape"/>
</filter>
<radialGradient id="paint0_radial_937_86" cx="0" cy="0" r="1" gradientUnits="userSpaceOnUse" gradientTransform="translate(25.1667 23.4167) rotate(52.1901) scale(38.6052)">
<stop stop-color="#FA907C"/>
<stop offset="1" stop-color="#9F2D16"/>
</radialGradient>
</defs>
</svg>
