<svg width="70" height="70" viewBox="0 0 70 70" fill="none" xmlns="http://www.w3.org/2000/svg">
<g filter="url(#filter0_d_937_65)">
<g filter="url(#filter1_d_937_65)">
<circle cx="35" cy="35" r="25" fill="url(#paint0_radial_937_65)"/>
</g>
</g>
<g filter="url(#filter2_d_937_65)">
<path d="M44.984 35H47C47 35 45.788 23 35 23V25.016C35 25.016 44.252 25.04 44.984 35Z" fill="white"/>
<path d="M25.016 35H23C23 35 24.212 47 35 47V44.984C35 44.984 26.18 44.864 25.016 35Z" fill="white"/>
<path d="M40.6399 35.3721L41.0959 33.8601H39.2119C39.2119 33.8601 38.0719 30.4521 34.9879 30.4521C31.9039 30.4521 30.7999 33.7161 30.7999 33.8601H28.8799V35.3481H30.7159C30.7159 35.3481 31.9399 39.4161 34.7839 39.4161C37.6279 39.4161 38.8639 37.6161 38.8639 37.6161L37.4839 36.6441C37.4839 36.6441 36.7999 37.7121 35.1199 37.6761C33.4519 37.6401 32.4679 36.0201 32.5519 35.3481L40.6399 35.3721ZM34.9399 31.9401C36.8719 31.9281 37.2199 33.8721 37.2199 33.8721H32.6599C32.6599 33.8721 33.0079 31.9521 34.9399 31.9401Z" fill="white"/>
</g>
<defs>
<filter id="filter0_d_937_65" x="0" y="0" width="70" height="70" filterUnits="userSpaceOnUse" color-interpolation-filters="sRGB">
<feFlood flood-opacity="0" result="BackgroundImageFix"/>
<feColorMatrix in="SourceAlpha" type="matrix" values="0 0 0 0 0 0 0 0 0 0 0 0 0 0 0 0 0 0 127 0" result="hardAlpha"/>
<feOffset/>
<feGaussianBlur stdDeviation="5"/>
<feComposite in2="hardAlpha" operator="out"/>
<feColorMatrix type="matrix" values="0 0 0 0 0 0 0 0 0 0 0 0 0 0 0 0 0 0 0.25 0"/>
<feBlend mode="normal" in2="BackgroundImageFix" result="effect1_dropShadow_937_65"/>
<feBlend mode="normal" in="SourceGraphic" in2="effect1_dropShadow_937_65" result="shape"/>
</filter>
<filter id="filter1_d_937_65" x="0" y="0" width="70" height="70" filterUnits="userSpaceOnUse" color-interpolation-filters="sRGB">
<feFlood flood-opacity="0" result="BackgroundImageFix"/>
<feColorMatrix in="SourceAlpha" type="matrix" values="0 0 0 0 0 0 0 0 0 0 0 0 0 0 0 0 0 0 127 0" result="hardAlpha"/>
<feOffset/>
<feGaussianBlur stdDeviation="5"/>
<feComposite in2="hardAlpha" operator="out"/>
<feColorMatrix type="matrix" values="0 0 0 0 0 0 0 0 0 0 0 0 0 0 0 0 0 0 0.25 0"/>
<feBlend mode="normal" in2="BackgroundImageFix" result="effect1_dropShadow_937_65"/>
<feBlend mode="normal" in="SourceGraphic" in2="effect1_dropShadow_937_65" result="shape"/>
</filter>
<filter id="filter2_d_937_65" x="19" y="19" width="32" height="32" filterUnits="userSpaceOnUse" color-interpolation-filters="sRGB">
<feFlood flood-opacity="0" result="BackgroundImageFix"/>
<feColorMatrix in="SourceAlpha" type="matrix" values="0 0 0 0 0 0 0 0 0 0 0 0 0 0 0 0 0 0 127 0" result="hardAlpha"/>
<feOffset/>
<feGaussianBlur stdDeviation="2"/>
<feComposite in2="hardAlpha" operator="out"/>
<feColorMatrix type="matrix" values="0 0 0 0 1 0 0 0 0 1 0 0 0 0 1 0 0 0 1 0"/>
<feBlend mode="normal" in2="BackgroundImageFix" result="effect1_dropShadow_937_65"/>
<feBlend mode="normal" in="SourceGraphic" in2="effect1_dropShadow_937_65" result="shape"/>
</filter>
<radialGradient id="paint0_radial_937_65" cx="0" cy="0" r="1" gradientUnits="userSpaceOnUse" gradientTransform="translate(25.1667 23.4167) rotate(52.1901) scale(38.6052)">
<stop stop-color="#10909F"/>
<stop offset="1" stop-color="#022D32"/>
</radialGradient>
</defs>
</svg>
