<svg width="70" height="70" viewBox="0 0 70 70" fill="none" xmlns="http://www.w3.org/2000/svg">
<g filter="url(#filter0_d_937_51)">
<circle cx="35" cy="35" r="25" fill="url(#paint0_radial_937_51)"/>
</g>
<g filter="url(#filter1_d_937_51)">
<path d="M26.0941 23H23V26.0861H26.0941V23Z" fill="white"/>
<path d="M33.2472 23H30.1531V26.0861H33.2472V23Z" fill="white"/>
<path d="M40.4004 23H37.3063V26.0861H40.4004V23Z" fill="white"/>
<path d="M46.7348 24.543C46.7348 24.142 46.4089 23.8169 46.0068 23.8169C45.6047 23.8169 45.2788 24.142 45.2788 24.543C45.2788 24.944 45.6047 25.2691 46.0068 25.2691C46.4089 25.2691 46.7348 24.944 46.7348 24.543Z" fill="white"/>
<path d="M46.7348 31.7867C46.7348 31.3856 46.4089 31.0605 46.0068 31.0605C45.6047 31.0605 45.2788 31.3856 45.2788 31.7867C45.2788 32.1877 45.6047 32.5128 46.0068 32.5128C46.4089 32.5128 46.7348 32.1877 46.7348 31.7867Z" fill="white"/>
<path d="M39.5812 31.7867C39.5812 31.3856 39.2553 31.0605 38.8532 31.0605C38.4512 31.0605 38.1252 31.3856 38.1252 31.7867C38.1252 32.1877 38.4512 32.5128 38.8532 32.5128C39.2553 32.5128 39.5812 32.1877 39.5812 31.7867Z" fill="white"/>
<path d="M32.428 39.0303C32.428 38.6293 32.1021 38.3042 31.7 38.3042C31.298 38.3042 30.972 38.6293 30.972 39.0303C30.972 39.4313 31.298 39.7564 31.7 39.7564C32.1021 39.7564 32.428 39.4313 32.428 39.0303Z" fill="white"/>
<path d="M46.7348 39.0303C46.7348 38.6293 46.4089 38.3042 46.0068 38.3042C45.6047 38.3042 45.2788 38.6293 45.2788 39.0303C45.2788 39.4313 45.6047 39.7564 46.0068 39.7564C46.4089 39.7564 46.7348 39.4313 46.7348 39.0303Z" fill="white"/>
<path d="M39.5812 39.0303C39.5812 38.6293 39.2553 38.3042 38.8532 38.3042C38.4512 38.3042 38.1252 38.6293 38.1252 39.0303C38.1252 39.4313 38.4512 39.7564 38.8532 39.7564C39.2553 39.7564 39.5812 39.4313 39.5812 39.0303Z" fill="white"/>
<path d="M32.428 46.274C32.428 45.8729 32.1021 45.5479 31.7 45.5479C31.298 45.5479 30.972 45.8729 30.972 46.274C30.972 46.675 31.298 47.0001 31.7 47.0001C32.1021 47.0001 32.428 46.675 32.428 46.274Z" fill="white"/>
<path d="M25.275 46.274C25.275 45.8729 24.949 45.5479 24.547 45.5479C24.1449 45.5479 23.819 45.8729 23.819 46.274C23.819 46.675 24.1449 47.0001 24.547 47.0001C24.949 47.0001 25.275 46.675 25.275 46.274Z" fill="white"/>
<path d="M46.7348 46.274C46.7348 45.8729 46.4089 45.5479 46.0068 45.5479C45.6047 45.5479 45.2788 45.8729 45.2788 46.274C45.2788 46.675 45.6047 47.0001 46.0068 47.0001C46.4089 47.0001 46.7348 46.675 46.7348 46.274Z" fill="white"/>
<path d="M39.5812 46.274C39.5812 45.8729 39.2553 45.5479 38.8532 45.5479C38.4512 45.5479 38.1252 45.8729 38.1252 46.274C38.1252 46.675 38.4512 47.0001 38.8532 47.0001C39.2553 47.0001 39.5812 46.675 39.5812 46.274Z" fill="white"/>
<path d="M26.0941 30.2437H23V33.3297H26.0941V30.2437Z" fill="white"/>
<path d="M33.2472 30.2437H30.1531V33.3297H33.2472V30.2437Z" fill="white"/>
<path d="M26.0941 37.4873H23V40.5734H26.0941V37.4873Z" fill="white"/>
</g>
<defs>
<filter id="filter0_d_937_51" x="0" y="0" width="70" height="70" filterUnits="userSpaceOnUse" color-interpolation-filters="sRGB">
<feFlood flood-opacity="0" result="BackgroundImageFix"/>
<feColorMatrix in="SourceAlpha" type="matrix" values="0 0 0 0 0 0 0 0 0 0 0 0 0 0 0 0 0 0 127 0" result="hardAlpha"/>
<feOffset/>
<feGaussianBlur stdDeviation="5"/>
<feComposite in2="hardAlpha" operator="out"/>
<feColorMatrix type="matrix" values="0 0 0 0 0 0 0 0 0 0 0 0 0 0 0 0 0 0 0.25 0"/>
<feBlend mode="normal" in2="BackgroundImageFix" result="effect1_dropShadow_937_51"/>
<feBlend mode="normal" in="SourceGraphic" in2="effect1_dropShadow_937_51" result="shape"/>
</filter>
<filter id="filter1_d_937_51" x="19" y="19" width="31.7347" height="32" filterUnits="userSpaceOnUse" color-interpolation-filters="sRGB">
<feFlood flood-opacity="0" result="BackgroundImageFix"/>
<feColorMatrix in="SourceAlpha" type="matrix" values="0 0 0 0 0 0 0 0 0 0 0 0 0 0 0 0 0 0 127 0" result="hardAlpha"/>
<feOffset/>
<feGaussianBlur stdDeviation="2"/>
<feComposite in2="hardAlpha" operator="out"/>
<feColorMatrix type="matrix" values="0 0 0 0 1 0 0 0 0 1 0 0 0 0 1 0 0 0 1 0"/>
<feBlend mode="normal" in2="BackgroundImageFix" result="effect1_dropShadow_937_51"/>
<feBlend mode="normal" in="SourceGraphic" in2="effect1_dropShadow_937_51" result="shape"/>
</filter>
<radialGradient id="paint0_radial_937_51" cx="0" cy="0" r="1" gradientUnits="userSpaceOnUse" gradientTransform="translate(28.0833 24.25) rotate(48.2424) scale(47.9243)">
<stop stop-color="#000292"/>
<stop offset="1"/>
</radialGradient>
</defs>
</svg>
