<svg width="70" height="70" viewBox="0 0 70 70" fill="none" xmlns="http://www.w3.org/2000/svg">
<g filter="url(#filter0_d_937_57)">
<g filter="url(#filter1_d_937_57)">
<circle cx="35" cy="35" r="25" fill="url(#paint0_radial_937_57)"/>
</g>
</g>
<g filter="url(#filter2_d_937_57)">
<path d="M46.9835 33.73C46.4587 30.9075 42.1439 30.269 38.3714 30.3227C37.7216 29.8056 36.957 29.4253 36.1309 29.2084C35.3049 28.9915 34.4372 28.9432 33.5888 29.0668C32.7404 29.1905 31.9315 29.4832 31.2187 29.9244C30.5059 30.3656 29.9063 30.9447 29.462 31.6212C27.4097 32.0823 25.5242 33.0294 23.9927 34.3686C21.9927 36.4343 23.2638 38.9832 25.5962 40.2334C30.9488 43.1739 38.0565 42.4119 43.1584 39.3535C45.1584 38.0871 47.2051 36.15 46.9835 33.73ZM41.7007 30.6661C41.0045 30.9777 40.3929 31.4287 39.9107 31.9861H39.8175C39.7183 31.809 39.6134 31.6319 39.4968 31.4495C39.2112 31.0555 38.8744 30.6951 38.4938 30.3763C39.5692 30.3981 40.6413 30.495 41.7007 30.6661ZM40.418 37.3198C40.2664 37.4002 40.1148 37.4807 39.9573 37.5559C39.5071 37.371 39.0296 37.248 38.5405 37.1909C39.0803 36.924 39.5818 36.5959 40.0331 36.2144C40.1032 36.0212 40.1731 35.828 40.2372 35.6348C40.9758 35.0342 41.833 34.5697 42.762 34.2665C43.0049 34.1972 43.2521 34.1417 43.5025 34.1003C43.3392 35.4954 41.6017 36.5846 40.418 37.3198ZM40.418 34.6369C40.418 34.5348 40.418 34.4329 40.418 34.3309C40.4012 33.7824 40.293 33.2396 40.0973 32.7212C40.1731 32.5602 40.2489 32.3939 40.3363 32.2383C41.7007 32.5012 42.8494 32.9788 43.3334 33.7729C42.3149 33.8738 41.3301 34.168 40.4413 34.6369H40.418ZM35.73 38.1246C36.5952 37.9466 37.4363 37.6802 38.2373 37.3305C38.4793 37.4058 38.712 37.5048 38.9312 37.6256C39.0594 37.7007 39.1877 37.7813 39.3102 37.8671C36.9958 38.9094 34.4225 39.3686 31.8526 39.1978C31.9869 38.9633 32.1471 38.7421 32.3307 38.5378C32.4287 38.4433 32.5339 38.3555 32.6456 38.2748C33.6762 38.3626 34.7153 38.3121 35.73 38.1246ZM29.0072 36.1392C28.4408 36.0712 27.8683 36.0568 27.2987 36.0963C26.9955 36.1285 26.7157 36.1714 26.395 36.2305C26.4442 35.7634 26.6477 35.3215 26.978 34.9641C27.4633 34.4853 28.0258 34.0781 28.6457 33.7568C28.6025 34.0376 28.583 34.321 28.5873 34.6047C28.6062 35.1379 28.7494 35.6613 29.0072 36.1392ZM29.4153 31.6856C29.1272 32.1378 28.9112 32.6257 28.7739 33.1344C28.0998 32.9228 27.3976 32.7965 26.6865 32.7588C27.5543 32.3169 28.4686 31.9573 29.4153 31.6856ZM29.7827 40.8451C28.459 40.6172 27.1772 40.218 25.9752 39.6593C24.9295 39.2032 24.1077 38.4028 23.672 37.4163L23.5146 37.4969C23.5612 37.4539 23.6137 37.4217 23.6603 37.3841C23.4777 36.9082 23.4355 36.3963 23.5379 35.9005C23.6403 35.4047 23.8838 34.9427 24.2434 34.5617C24.9069 33.8606 25.6957 33.269 26.5757 32.8124C27.298 32.9794 27.9895 33.2433 28.6282 33.5959C27.9538 33.9075 27.3329 34.3089 26.7856 34.787C26.3278 35.1956 26.0391 35.7383 25.9693 36.3217C25.1111 36.5059 24.312 36.8735 23.637 37.3949C23.637 37.3949 23.637 37.3949 23.637 37.427C24.3524 37.0469 25.1474 36.811 25.9693 36.7349C26.0706 37.2379 26.3065 37.7098 26.6557 38.108C27.0049 38.5062 27.4563 38.818 27.9693 39.0153C28.7435 39.37 29.5593 39.6417 30.4007 39.8256C30.1627 40.1567 29.9541 40.5048 29.7768 40.8666L29.7827 40.8451ZM28.2492 38.4627C27.8062 38.3298 27.4054 38.0989 27.0822 37.7901C26.7588 37.4813 26.5229 37.1043 26.395 36.6919C27.5262 36.6501 28.6548 36.8199 29.7127 37.1909C29.949 37.4601 30.2 37.7181 30.4649 37.9636C31.0088 38.0908 31.5623 38.1805 32.1208 38.2319H32.0858C31.6762 38.473 31.3053 38.7656 30.9838 39.1013C30.0484 38.9868 29.1307 38.7726 28.2492 38.4627ZM31.1646 41.0705C31.2221 40.7067 31.3118 40.3478 31.4328 39.9973C34.411 40.3754 37.4412 39.8298 40.0448 38.4466C40.3919 38.7604 40.7153 39.0957 41.0128 39.45C37.9637 40.7925 34.5773 41.3523 31.2112 41.0705H31.1646ZM42.6629 38.6612L42.313 38.8437C41.857 38.5247 41.3755 38.2377 40.8728 37.9851C42.0088 37.283 42.9593 36.355 43.6541 35.27C43.8998 34.8996 44.0177 34.4692 43.9922 34.0358C44.8152 33.9678 45.6444 34.013 46.4529 34.17C46.2721 36.1339 44.3946 37.6471 42.6629 38.6612ZM46.4412 34.1271C45.6168 33.8483 44.7419 33.7172 43.864 33.7407C43.3625 32.7963 42.0447 32.2973 40.4938 32.0612C40.8104 31.5231 41.2452 31.0517 41.7707 30.6768C44.1789 31.09 46.1963 32.0022 46.4354 33.7729C46.4529 33.891 46.447 34.009 46.4412 34.1271Z" fill="white"/>
</g>
<defs>
<filter id="filter0_d_937_57" x="0" y="0" width="70" height="70" filterUnits="userSpaceOnUse" color-interpolation-filters="sRGB">
<feFlood flood-opacity="0" result="BackgroundImageFix"/>
<feColorMatrix in="SourceAlpha" type="matrix" values="0 0 0 0 0 0 0 0 0 0 0 0 0 0 0 0 0 0 127 0" result="hardAlpha"/>
<feOffset/>
<feGaussianBlur stdDeviation="5"/>
<feComposite in2="hardAlpha" operator="out"/>
<feColorMatrix type="matrix" values="0 0 0 0 0 0 0 0 0 0 0 0 0 0 0 0 0 0 0.25 0"/>
<feBlend mode="normal" in2="BackgroundImageFix" result="effect1_dropShadow_937_57"/>
<feBlend mode="normal" in="SourceGraphic" in2="effect1_dropShadow_937_57" result="shape"/>
</filter>
<filter id="filter1_d_937_57" x="0" y="0" width="70" height="70" filterUnits="userSpaceOnUse" color-interpolation-filters="sRGB">
<feFlood flood-opacity="0" result="BackgroundImageFix"/>
<feColorMatrix in="SourceAlpha" type="matrix" values="0 0 0 0 0 0 0 0 0 0 0 0 0 0 0 0 0 0 127 0" result="hardAlpha"/>
<feOffset/>
<feGaussianBlur stdDeviation="5"/>
<feComposite in2="hardAlpha" operator="out"/>
<feColorMatrix type="matrix" values="0 0 0 0 0 0 0 0 0 0 0 0 0 0 0 0 0 0 0.25 0"/>
<feBlend mode="normal" in2="BackgroundImageFix" result="effect1_dropShadow_937_57"/>
<feBlend mode="normal" in="SourceGraphic" in2="effect1_dropShadow_937_57" result="shape"/>
</filter>
<filter id="filter2_d_937_57" x="19" y="25" width="32" height="21.085" filterUnits="userSpaceOnUse" color-interpolation-filters="sRGB">
<feFlood flood-opacity="0" result="BackgroundImageFix"/>
<feColorMatrix in="SourceAlpha" type="matrix" values="0 0 0 0 0 0 0 0 0 0 0 0 0 0 0 0 0 0 127 0" result="hardAlpha"/>
<feOffset/>
<feGaussianBlur stdDeviation="2"/>
<feComposite in2="hardAlpha" operator="out"/>
<feColorMatrix type="matrix" values="0 0 0 0 1 0 0 0 0 1 0 0 0 0 1 0 0 0 1 0"/>
<feBlend mode="normal" in2="BackgroundImageFix" result="effect1_dropShadow_937_57"/>
<feBlend mode="normal" in="SourceGraphic" in2="effect1_dropShadow_937_57" result="shape"/>
</filter>
<radialGradient id="paint0_radial_937_57" cx="0" cy="0" r="1" gradientUnits="userSpaceOnUse" gradientTransform="translate(25.1667 23.4167) rotate(52.1901) scale(38.6052)">
<stop stop-color="#1796F2"/>
<stop offset="1" stop-color="#084572"/>
</radialGradient>
</defs>
</svg>
