<svg width="70" height="70" viewBox="0 0 70 70" fill="none" xmlns="http://www.w3.org/2000/svg">
<g filter="url(#filter0_d_937_61)">
<g filter="url(#filter1_d_937_61)">
<circle cx="35" cy="35" r="25" fill="url(#paint0_radial_937_61)"/>
</g>
</g>
<g filter="url(#filter2_d_937_61)">
<path d="M33.0767 23.1358C35.9787 22.7659 38.4398 23.0598 40.482 25.1747C42.2759 27.0328 42.879 29.1054 42.1949 31.58C41.5563 33.8875 40.3874 35.9212 39.053 37.8857C38.7003 38.417 38.4621 39.0158 38.3537 39.6442C38.2219 40.4144 38.5682 41.0833 39.2726 41.4904C39.977 41.8975 40.6864 41.8283 41.3587 41.4347C41.6852 41.2642 41.9728 41.0278 42.2033 40.7404C44.3046 37.8334 45.5817 34.6459 45.2252 30.9922C45.0445 29.1054 44.2252 27.4618 42.9499 26.048C44.7881 27.5811 46.0733 29.6744 46.6087 32.0074C47.5462 36.0766 46.7185 39.7573 43.9634 42.9482C42.1526 45.0445 39.5276 45.4701 37.3858 44.0411C35.1898 42.5681 34.4939 39.8519 35.7979 37.4094C36.3638 36.3486 37.1915 35.4263 37.7641 34.3689C38.4404 33.1783 39.0058 31.9281 39.4533 30.6341C39.9465 29.1138 39.4263 27.6966 38.4398 26.4669C37.3553 25.1274 36.0918 24.3351 33.0767 23.1358Z" fill="white"/>
<path d="M26.075 42.9853C24.652 41.5488 23.6857 39.7233 23.298 37.7387C22.494 33.7303 23.2879 30.0868 26.0328 26.9601C27.7389 25.0159 30.3047 24.5665 32.3453 25.8503C34.5294 27.2236 35.3301 29.7084 34.2845 32.1087C33.9466 32.8722 33.4044 33.5411 32.977 34.2658C32.2101 35.5698 31.3301 36.8283 30.7287 38.2083C29.7321 40.4938 30.2524 42.4668 32.0514 44.1863C33.2127 45.3019 34.6251 46.1222 36.1696 46.5782C36.325 46.6255 36.4753 46.6846 36.6932 46.7607C32.3166 47.7995 28.6342 45.3434 27.5717 41.5867C27.1595 40.1289 27.4703 38.6357 28.0885 37.3046C28.9331 35.504 29.9754 33.803 30.8892 32.0361C31.1882 31.455 31.5091 30.8047 31.5328 30.178C31.5902 28.6425 30.0919 27.7219 28.722 28.4162C28.1939 28.6778 27.7345 29.0596 27.3808 29.531C25.7233 31.8215 24.7297 34.5248 24.5092 37.3435C24.3487 39.3874 24.9636 41.2624 26.075 42.9853Z" fill="white"/>
</g>
<defs>
<filter id="filter0_d_937_61" x="0" y="0" width="70" height="70" filterUnits="userSpaceOnUse" color-interpolation-filters="sRGB">
<feFlood flood-opacity="0" result="BackgroundImageFix"/>
<feColorMatrix in="SourceAlpha" type="matrix" values="0 0 0 0 0 0 0 0 0 0 0 0 0 0 0 0 0 0 127 0" result="hardAlpha"/>
<feOffset/>
<feGaussianBlur stdDeviation="5"/>
<feComposite in2="hardAlpha" operator="out"/>
<feColorMatrix type="matrix" values="0 0 0 0 0 0 0 0 0 0 0 0 0 0 0 0 0 0 0.25 0"/>
<feBlend mode="normal" in2="BackgroundImageFix" result="effect1_dropShadow_937_61"/>
<feBlend mode="normal" in="SourceGraphic" in2="effect1_dropShadow_937_61" result="shape"/>
</filter>
<filter id="filter1_d_937_61" x="0" y="0" width="70" height="70" filterUnits="userSpaceOnUse" color-interpolation-filters="sRGB">
<feFlood flood-opacity="0" result="BackgroundImageFix"/>
<feColorMatrix in="SourceAlpha" type="matrix" values="0 0 0 0 0 0 0 0 0 0 0 0 0 0 0 0 0 0 127 0" result="hardAlpha"/>
<feOffset/>
<feGaussianBlur stdDeviation="5"/>
<feComposite in2="hardAlpha" operator="out"/>
<feColorMatrix type="matrix" values="0 0 0 0 0 0 0 0 0 0 0 0 0 0 0 0 0 0 0.25 0"/>
<feBlend mode="normal" in2="BackgroundImageFix" result="effect1_dropShadow_937_61"/>
<feBlend mode="normal" in="SourceGraphic" in2="effect1_dropShadow_937_61" result="shape"/>
</filter>
<filter id="filter2_d_937_61" x="19" y="19" width="31.979" height="32" filterUnits="userSpaceOnUse" color-interpolation-filters="sRGB">
<feFlood flood-opacity="0" result="BackgroundImageFix"/>
<feColorMatrix in="SourceAlpha" type="matrix" values="0 0 0 0 0 0 0 0 0 0 0 0 0 0 0 0 0 0 127 0" result="hardAlpha"/>
<feOffset/>
<feGaussianBlur stdDeviation="2"/>
<feComposite in2="hardAlpha" operator="out"/>
<feColorMatrix type="matrix" values="0 0 0 0 1 0 0 0 0 1 0 0 0 0 1 0 0 0 1 0"/>
<feBlend mode="normal" in2="BackgroundImageFix" result="effect1_dropShadow_937_61"/>
<feBlend mode="normal" in="SourceGraphic" in2="effect1_dropShadow_937_61" result="shape"/>
</filter>
<radialGradient id="paint0_radial_937_61" cx="0" cy="0" r="1" gradientUnits="userSpaceOnUse" gradientTransform="translate(25.1667 23.4167) rotate(52.1901) scale(38.6052)">
<stop stop-color="#BAF8FF"/>
<stop offset="1" stop-color="#0071AF"/>
</radialGradient>
</defs>
</svg>
