<svg width="70" height="70" viewBox="0 0 70 70" fill="none" xmlns="http://www.w3.org/2000/svg">
<g filter="url(#filter0_d_937_64)">
<g filter="url(#filter1_d_937_64)">
<circle cx="35" cy="35" r="25" fill="url(#paint0_radial_937_64)"/>
</g>
</g>
<g filter="url(#filter2_d_937_64)">
<path d="M47.6387 35.2174C47.6387 36.5959 46.5214 37.7132 45.1574 37.7132C43.779 37.6987 42.6907 36.5814 42.7052 35.2029C42.7197 33.839 43.7935 32.7797 45.1429 32.7652C46.5359 32.7362 47.6387 33.8245 47.6387 35.2174Z" fill="white"/>
<path d="M37.6703 35.2322C37.6557 36.6107 36.5385 37.7279 35.1745 37.6989C33.8396 37.6699 32.7368 36.5671 32.7223 35.2467C32.7078 33.8828 33.8251 32.751 35.2035 32.751C36.582 32.751 37.6703 33.8392 37.6703 35.2322Z" fill="white"/>
<path d="M27.934 35.2465C27.9195 36.625 26.7877 37.7423 25.4238 37.7132C24.0453 37.6842 22.9716 36.5524 23.0006 35.174C23.0296 33.81 24.1179 32.7508 25.4673 32.7653C26.8603 32.7508 27.9485 33.8535 27.934 35.2465Z" fill="white"/>
<path d="M37.6704 25.5249C37.6558 26.9034 36.5095 28.0206 35.1601 27.9771C33.8252 27.9336 32.7224 26.8308 32.7224 25.4959C32.7224 24.1464 33.8832 22.9856 35.2182 23.0001C36.5821 23.0146 37.6849 24.1464 37.6704 25.5249Z" fill="white"/>
<path d="M37.6704 44.5185C37.6704 45.8969 36.5531 47.0142 35.1892 46.9997C33.8252 46.9852 32.6934 45.8244 32.7225 44.4749C32.7515 43.1255 33.8252 42.0663 35.1892 42.0518C36.5967 42.0518 37.6704 43.111 37.6704 44.5185Z" fill="white"/>
<path d="M30.1975 41.6892C30.183 42.5163 29.4285 43.2563 28.6014 43.2418C27.7598 43.2273 27.0343 42.4728 27.0488 41.6457C27.0633 40.8041 27.8033 40.0931 28.6449 40.1076C29.4865 40.1222 30.1975 40.8622 30.1975 41.6892Z" fill="white"/>
<path d="M30.1975 27.7012C30.1975 28.5283 29.4575 29.2683 28.6304 29.2828C27.8034 29.2828 27.0488 28.5428 27.0488 27.7157C27.0488 26.8887 27.7743 26.1487 28.6159 26.1487C29.4575 26.1341 30.183 26.8596 30.1975 27.7012Z" fill="white"/>
<path d="M43.1407 27.7012C43.1407 28.5718 42.4297 29.2828 41.5736 29.2828C40.732 29.2828 40.0646 28.6009 40.05 27.7593C40.0355 26.8742 40.6885 26.1632 41.5591 26.1487C42.4297 26.1341 43.1407 26.8451 43.1407 27.7012Z" fill="white"/>
<path d="M43.1551 41.6745C43.1551 42.5451 42.4296 43.2561 41.588 43.2416C40.7319 43.2271 40.0499 42.5161 40.0644 41.631C40.0789 40.7894 40.7464 40.1074 41.588 40.1074C42.4441 40.1074 43.1551 40.8039 43.1551 41.6745Z" fill="white"/>
</g>
<defs>
<filter id="filter0_d_937_64" x="0" y="0" width="70" height="70" filterUnits="userSpaceOnUse" color-interpolation-filters="sRGB">
<feFlood flood-opacity="0" result="BackgroundImageFix"/>
<feColorMatrix in="SourceAlpha" type="matrix" values="0 0 0 0 0 0 0 0 0 0 0 0 0 0 0 0 0 0 127 0" result="hardAlpha"/>
<feOffset/>
<feGaussianBlur stdDeviation="5"/>
<feComposite in2="hardAlpha" operator="out"/>
<feColorMatrix type="matrix" values="0 0 0 0 0 0 0 0 0 0 0 0 0 0 0 0 0 0 0.25 0"/>
<feBlend mode="normal" in2="BackgroundImageFix" result="effect1_dropShadow_937_64"/>
<feBlend mode="normal" in="SourceGraphic" in2="effect1_dropShadow_937_64" result="shape"/>
</filter>
<filter id="filter1_d_937_64" x="0" y="0" width="70" height="70" filterUnits="userSpaceOnUse" color-interpolation-filters="sRGB">
<feFlood flood-opacity="0" result="BackgroundImageFix"/>
<feColorMatrix in="SourceAlpha" type="matrix" values="0 0 0 0 0 0 0 0 0 0 0 0 0 0 0 0 0 0 127 0" result="hardAlpha"/>
<feOffset/>
<feGaussianBlur stdDeviation="5"/>
<feComposite in2="hardAlpha" operator="out"/>
<feColorMatrix type="matrix" values="0 0 0 0 0 0 0 0 0 0 0 0 0 0 0 0 0 0 0.25 0"/>
<feBlend mode="normal" in2="BackgroundImageFix" result="effect1_dropShadow_937_64"/>
<feBlend mode="normal" in="SourceGraphic" in2="effect1_dropShadow_937_64" result="shape"/>
</filter>
<filter id="filter2_d_937_64" x="19" y="19" width="32.6387" height="32" filterUnits="userSpaceOnUse" color-interpolation-filters="sRGB">
<feFlood flood-opacity="0" result="BackgroundImageFix"/>
<feColorMatrix in="SourceAlpha" type="matrix" values="0 0 0 0 0 0 0 0 0 0 0 0 0 0 0 0 0 0 127 0" result="hardAlpha"/>
<feOffset/>
<feGaussianBlur stdDeviation="2"/>
<feComposite in2="hardAlpha" operator="out"/>
<feColorMatrix type="matrix" values="0 0 0 0 1 0 0 0 0 1 0 0 0 0 1 0 0 0 1 0"/>
<feBlend mode="normal" in2="BackgroundImageFix" result="effect1_dropShadow_937_64"/>
<feBlend mode="normal" in="SourceGraphic" in2="effect1_dropShadow_937_64" result="shape"/>
</filter>
<radialGradient id="paint0_radial_937_64" cx="0" cy="0" r="1" gradientUnits="userSpaceOnUse" gradientTransform="translate(25.1667 23.4167) rotate(52.1901) scale(38.6052)">
<stop stop-color="#2D78EB"/>
<stop offset="1" stop-color="#03287C"/>
</radialGradient>
</defs>
</svg>
