<svg width="70" height="70" viewBox="0 0 70 70" fill="none" xmlns="http://www.w3.org/2000/svg">
<g filter="url(#filter0_d_937_66)">
<g filter="url(#filter1_d_937_66)">
<circle cx="35" cy="35" r="25" fill="url(#paint0_radial_937_66)"/>
</g>
</g>
<g filter="url(#filter2_d_937_66)">
<path d="M45.8033 40.1333C45.0778 41.6456 44.1074 42.9657 42.7961 44.0497C41.8695 44.819 40.9079 45.4921 39.8064 45.9642C36.8341 47.2317 33.8007 47.3454 30.7585 46.2526C28.2233 45.3435 26.3176 43.665 24.8751 41.4183C24.8402 41.3572 24.779 41.3047 24.8314 41.226C25.2248 41.3746 25.4871 41.7156 25.9067 41.838C27.7425 42.3887 29.3685 41.7942 30.9595 40.955C31.0032 40.9463 31.047 40.955 31.0819 40.9375C32.7341 40.0808 34.3864 39.2241 36.0386 38.3674C37.7608 37.467 39.4742 36.5666 41.1876 35.6574C41.5722 35.4476 42.0268 35.334 42.3153 34.9668C42.8049 35.0804 43.207 35.3689 43.6091 35.6487C44.4921 36.2519 45.2264 36.9862 45.6198 38.0265C45.882 38.7083 45.8558 39.4164 45.8033 40.1333Z" fill="#E6E6E6"/>
<path d="M33.1886 23.1478C30.5223 23.5674 28.2319 24.7475 26.3524 26.6795C25.1023 27.9646 24.1932 29.4769 23.6249 31.1816C23.249 32.3181 23.0217 33.472 23.013 34.6696C22.9518 35.8585 23.1092 37.0212 23.4326 38.1577C23.7386 39.198 24.0708 40.2383 24.7439 41.1212C24.7964 41.1387 24.8401 41.1562 24.8313 41.2261C25.216 41.3747 25.487 41.7156 25.8978 41.838C27.7336 42.3888 29.3596 41.7943 30.9507 40.9551C30.9332 40.9114 30.9244 40.8764 30.907 40.8327V40.824C30.907 40.6579 30.907 40.5005 30.907 40.3344C30.9157 39.1892 30.9245 38.044 30.9245 36.8988C30.9245 34.6347 30.9245 32.3705 30.9157 30.1063C30.9157 29.7567 30.8807 29.4157 30.8633 29.0661C30.9157 27.3789 31.3441 25.7966 32.4106 24.4591C33.04 23.6723 33.9229 23.209 34.9195 23.0079C34.3338 22.9729 33.7568 23.0603 33.1886 23.1478ZM30.8807 39.1368C30.872 38.7259 30.872 38.3063 30.8633 37.8954C30.872 38.315 30.8807 38.7259 30.8807 39.1368Z" fill="white"/>
<path d="M45.9256 30.0976C45.1476 28.3317 43.9936 26.8543 42.4463 25.6479C41.1787 24.6601 39.8237 23.917 38.2851 23.4887C38.425 23.8471 38.3726 24.188 38.2939 24.529C38.3726 24.188 38.425 23.8471 38.2851 23.4887C37.3585 23.1215 36.3707 23.1827 35.409 23.0166C35.3741 23.0166 35.3391 23.0166 35.3041 23.0166C35.173 23.0166 35.0419 23.0166 34.9108 23.0166C33.9142 23.2177 33.04 23.6722 32.4018 24.4678C31.3353 25.8053 30.9069 27.3788 30.8545 29.0748C31.4664 29.1884 31.956 29.5731 32.4892 29.8353C33.8355 30.5084 35.1555 31.2165 36.493 31.9072C36.5542 31.9421 36.6242 31.9596 36.6941 31.9858C36.7203 32.0033 36.7553 32.0208 36.7815 32.0383C36.8165 32.0558 36.8515 32.0645 36.8864 32.082C37.306 29.7741 37.7344 27.4662 38.1453 25.1496C37.7431 27.4662 37.3148 29.7741 36.8864 32.082C38.3726 32.86 39.8587 33.6468 41.3536 34.4248C41.677 34.5909 42.0092 34.7308 42.2977 34.9581C42.7872 35.0717 43.1894 35.3602 43.5915 35.64C44.4744 36.2432 45.2087 36.9775 45.6021 38.0178C45.8731 38.7171 45.8469 39.4252 45.7945 40.1421C45.9868 39.8798 46.0567 39.5651 46.1704 39.2679C47.368 36.1732 47.2456 33.1048 45.9256 30.0976Z" fill="#F2F2F2"/>
<path d="M30.8982 40.8237C30.8982 40.8237 30.9069 40.8325 30.8982 40.8237C30.9069 40.8325 30.8982 40.8237 30.8982 40.8237Z" fill="#FD5B26"/>
<path d="M36.7903 32.0383C36.7641 32.0208 36.7291 32.0033 36.7029 31.9858C36.7291 32.0033 36.7641 32.0208 36.7903 32.0383Z" fill="#C61B62"/>
</g>
<defs>
<filter id="filter0_d_937_66" x="0" y="0" width="70" height="70" filterUnits="userSpaceOnUse" color-interpolation-filters="sRGB">
<feFlood flood-opacity="0" result="BackgroundImageFix"/>
<feColorMatrix in="SourceAlpha" type="matrix" values="0 0 0 0 0 0 0 0 0 0 0 0 0 0 0 0 0 0 127 0" result="hardAlpha"/>
<feOffset/>
<feGaussianBlur stdDeviation="5"/>
<feComposite in2="hardAlpha" operator="out"/>
<feColorMatrix type="matrix" values="0 0 0 0 0 0 0 0 0 0 0 0 0 0 0 0 0 0 0.25 0"/>
<feBlend mode="normal" in2="BackgroundImageFix" result="effect1_dropShadow_937_66"/>
<feBlend mode="normal" in="SourceGraphic" in2="effect1_dropShadow_937_66" result="shape"/>
</filter>
<filter id="filter1_d_937_66" x="0" y="0" width="70" height="70" filterUnits="userSpaceOnUse" color-interpolation-filters="sRGB">
<feFlood flood-opacity="0" result="BackgroundImageFix"/>
<feColorMatrix in="SourceAlpha" type="matrix" values="0 0 0 0 0 0 0 0 0 0 0 0 0 0 0 0 0 0 127 0" result="hardAlpha"/>
<feOffset/>
<feGaussianBlur stdDeviation="5"/>
<feComposite in2="hardAlpha" operator="out"/>
<feColorMatrix type="matrix" values="0 0 0 0 0 0 0 0 0 0 0 0 0 0 0 0 0 0 0.25 0"/>
<feBlend mode="normal" in2="BackgroundImageFix" result="effect1_dropShadow_937_66"/>
<feBlend mode="normal" in="SourceGraphic" in2="effect1_dropShadow_937_66" result="shape"/>
</filter>
<filter id="filter2_d_937_66" x="19" y="19" width="31.9971" height="32" filterUnits="userSpaceOnUse" color-interpolation-filters="sRGB">
<feFlood flood-opacity="0" result="BackgroundImageFix"/>
<feColorMatrix in="SourceAlpha" type="matrix" values="0 0 0 0 0 0 0 0 0 0 0 0 0 0 0 0 0 0 127 0" result="hardAlpha"/>
<feOffset/>
<feGaussianBlur stdDeviation="2"/>
<feComposite in2="hardAlpha" operator="out"/>
<feColorMatrix type="matrix" values="0 0 0 0 1 0 0 0 0 1 0 0 0 0 1 0 0 0 1 0"/>
<feBlend mode="normal" in2="BackgroundImageFix" result="effect1_dropShadow_937_66"/>
<feBlend mode="normal" in="SourceGraphic" in2="effect1_dropShadow_937_66" result="shape"/>
</filter>
<radialGradient id="paint0_radial_937_66" cx="0" cy="0" r="1" gradientUnits="userSpaceOnUse" gradientTransform="translate(25.1667 23.4167) rotate(52.1901) scale(38.6052)">
<stop stop-color="#655BFF"/>
<stop offset="1" stop-color="#1D1668"/>
</radialGradient>
</defs>
</svg>
