<svg width="70" height="70" viewBox="0 0 70 70" fill="none" xmlns="http://www.w3.org/2000/svg">
<g filter="url(#filter0_d_937_50)">
<circle cx="35" cy="35" r="25" fill="url(#paint0_radial_937_50)"/>
</g>
<g filter="url(#filter1_d_937_50)">
<path d="M42.6686 33.98C42.6686 35.093 42.3961 36.1145 41.8493 37.0445C41.3025 37.9565 40.462 38.6945 39.3292 39.26C38.1982 39.8255 36.7913 40.1075 35.1118 40.1075H32.0074V47H27V27.8H35.1118C36.7521 27.8 38.1394 28.064 39.2721 28.5935C40.4032 29.1215 41.2535 29.852 41.8183 30.782C42.3863 31.712 42.6686 32.777 42.6686 33.9815V33.98ZM34.7315 36.3875C35.6879 36.3875 36.4012 36.1775 36.8696 35.759C37.338 35.339 37.5714 34.7465 37.5714 33.9815C37.5714 33.2165 37.338 32.6225 36.8696 32.204C36.4012 31.784 35.6879 31.574 34.7315 31.574H32.0107V36.389H34.7331L34.7315 36.3875ZM42.6686 23H27V26.1995H42.6686V23Z" fill="white"/>
</g>
<defs>
<filter id="filter0_d_937_50" x="0" y="0" width="70" height="70" filterUnits="userSpaceOnUse" color-interpolation-filters="sRGB">
<feFlood flood-opacity="0" result="BackgroundImageFix"/>
<feColorMatrix in="SourceAlpha" type="matrix" values="0 0 0 0 0 0 0 0 0 0 0 0 0 0 0 0 0 0 127 0" result="hardAlpha"/>
<feOffset/>
<feGaussianBlur stdDeviation="5"/>
<feComposite in2="hardAlpha" operator="out"/>
<feColorMatrix type="matrix" values="0 0 0 0 0 0 0 0 0 0 0 0 0 0 0 0 0 0 0.25 0"/>
<feBlend mode="normal" in2="BackgroundImageFix" result="effect1_dropShadow_937_50"/>
<feBlend mode="normal" in="SourceGraphic" in2="effect1_dropShadow_937_50" result="shape"/>
</filter>
<filter id="filter1_d_937_50" x="23" y="19" width="23.6687" height="32" filterUnits="userSpaceOnUse" color-interpolation-filters="sRGB">
<feFlood flood-opacity="0" result="BackgroundImageFix"/>
<feColorMatrix in="SourceAlpha" type="matrix" values="0 0 0 0 0 0 0 0 0 0 0 0 0 0 0 0 0 0 127 0" result="hardAlpha"/>
<feOffset/>
<feGaussianBlur stdDeviation="2"/>
<feComposite in2="hardAlpha" operator="out"/>
<feColorMatrix type="matrix" values="0 0 0 0 1 0 0 0 0 1 0 0 0 0 1 0 0 0 1 0"/>
<feBlend mode="normal" in2="BackgroundImageFix" result="effect1_dropShadow_937_50"/>
<feBlend mode="normal" in="SourceGraphic" in2="effect1_dropShadow_937_50" result="shape"/>
</filter>
<radialGradient id="paint0_radial_937_50" cx="0" cy="0" r="1" gradientUnits="userSpaceOnUse" gradientTransform="translate(28.0833 24.25) rotate(48.2424) scale(47.9243)">
<stop stop-color="#949494"/>
<stop offset="1"/>
</radialGradient>
</defs>
</svg>
