<svg width="70" height="70" viewBox="0 0 70 70" fill="none" xmlns="http://www.w3.org/2000/svg">
<g filter="url(#filter0_d_896_168)">
<circle cx="35" cy="35" r="25" fill="url(#paint0_radial_896_168)" shape-rendering="crispEdges"/>
</g>
<g filter="url(#filter1_d_896_168)">
<path d="M34.645 39.8975C34.3498 41.5108 34.0755 43.0027 33.8024 44.4946C33.6613 45.264 33.5255 46.0348 33.3752 46.8016C33.3112 47.1243 32.4608 47.5789 32.1107 47.4927C31.7985 47.4143 31.2994 46.5155 31.4353 46.232C32.4203 44.1732 33.411 42.1179 34.4073 40.066C34.4216 40.0281 34.4713 40.0163 34.645 39.8975Z" fill="#F7FBF8"/>
<path d="M34.3523 29.8647C33.6991 28.5139 33.0629 27.2075 32.4281 25.9012C32.1054 25.2375 31.7971 24.5647 31.4509 23.9129C31.2863 23.6006 31.2719 23.3407 31.5306 23.0938C31.7892 22.8469 31.8193 22.37 32.351 22.5333C32.8827 22.6966 33.3138 22.8129 33.4196 23.5301C33.6809 25.3133 34.0728 27.0769 34.402 28.8496C34.4555 29.1619 34.5744 29.4819 34.3523 29.8647Z" fill="#F7FBF8"/>
<path d="M31.0277 35.0408L25.1177 35.8363C24.8157 35.8646 24.5153 35.9082 24.2176 35.967C23.7042 36.0976 23.3411 35.9448 23.0968 35.4732C22.9753 35.2393 22.6631 35.0538 22.9531 34.7442C23.2431 34.4346 23.345 33.9173 23.9694 34.0087C25.5136 34.236 27.0668 34.4006 28.6149 34.607C29.3804 34.7037 30.1551 34.7612 31.0277 35.0408Z" fill="#F7FBF8"/>
<path d="M40.4087 38.1145C40.7144 38.023 40.8907 38.172 41.0789 38.2712C42.9078 39.238 44.7106 40.2308 46.5539 41.1609C47.1208 41.4457 47.0006 41.869 47.0228 42.3053C47.0372 42.5666 46.9758 42.7717 46.6793 42.8383C46.2403 42.9363 45.8602 43.242 45.3794 42.773C43.7621 41.204 42.0887 39.6808 40.4087 38.1145Z" fill="#F7FBF8"/>
<path d="M40.4976 31.7538C42.1893 30.1691 43.8628 28.5976 45.5401 27.0312C45.949 26.6498 46.3083 27.0665 46.6884 27.1227C47.0686 27.1789 46.9706 27.4806 47.0072 27.7341C47.0921 28.3115 46.8635 28.6211 46.3344 28.8889C44.6296 29.7498 42.9561 30.6773 41.2709 31.5787C41.0436 31.6989 40.8294 31.8726 40.4976 31.7538Z" fill="#F7FBF8"/>
<path d="M32.1395 37.8633C31.5634 38.4695 30.9769 39.0665 30.4151 39.6857C30.1891 39.9353 29.9762 39.8778 29.7188 39.7811C29.5085 39.7027 29.3988 39.5917 29.4053 39.3578C29.4144 39.09 29.4184 38.8549 29.7306 38.7282C30.5079 38.4133 31.2747 38.075 32.0442 37.7432L32.1395 37.8633Z" fill="#F7FBF8"/>
<path d="M36.0729 30.0255C35.907 29.2274 35.7528 28.4239 35.5673 27.6297C35.485 27.2809 35.7424 27.1842 35.9252 27.017C36.1081 26.8498 36.2714 26.9203 36.4478 27.0379C36.649 27.1685 36.8397 27.2822 36.7665 27.5931C36.5732 28.4043 36.4047 29.2208 36.2257 30.0347L36.0729 30.0255Z" fill="#F7FBF8"/>
<path d="M41.156 34.8916C41.9973 34.727 42.8347 34.5401 43.6812 34.4056C44.1202 34.3364 44.3409 34.723 44.3057 35.0405C44.2704 35.3579 44.0444 35.6819 43.5702 35.563C42.7746 35.371 41.9725 35.2077 41.1717 35.034L41.156 34.8916Z" fill="#F7FBF8"/>
<path d="M33.255 38.9897C32.901 39.7488 32.5587 40.5143 32.1877 41.2654C31.976 41.6952 31.5345 41.5855 31.3033 41.4039C31.0969 41.2445 30.9048 40.8539 31.2406 40.5535C31.8663 39.9943 32.5012 39.4431 33.1335 38.8892L33.255 38.9897Z" fill="#F7FBF8"/>
<path d="M36.2468 39.933C36.4205 40.7168 36.5851 41.5006 36.7693 42.2727C36.8372 42.5562 36.7301 42.7182 36.508 42.8671C36.316 42.9977 36.1475 43.1022 35.9293 42.9167C35.7543 42.7678 35.5087 42.6855 35.5779 42.3668C35.7556 41.5516 35.9163 40.7325 36.0835 39.916L36.2468 39.933Z" fill="#F7FBF8"/>
<path d="M32.521 31.5225C31.8051 31.0627 31.084 30.6172 30.3798 30.1339C30.0532 29.9079 30.1969 29.5107 30.3615 29.3265C30.5614 29.1044 30.9808 28.9816 31.2159 29.2926C31.7254 29.9706 32.1722 30.6969 32.6451 31.4023L32.521 31.5225Z" fill="#F7FBF8"/>
<path d="M37.843 39.6426C38.2806 40.3781 38.7444 41.1005 39.1494 41.8556C39.3283 42.19 39.0187 42.4944 38.7744 42.5715C38.4962 42.659 38.0703 42.6041 38.0037 42.1913C37.873 41.3644 37.7986 40.5283 37.7019 39.6974L37.843 39.6426Z" fill="#F7FBF8"/>
<path d="M39.8628 27.9041C40.111 27.8479 40.2338 27.9733 40.32 28.1732C40.4063 28.3731 40.5343 28.5886 40.32 28.8264C39.8955 29.2849 39.4892 29.7604 39.079 30.232C38.9706 30.3561 38.8177 30.4633 38.6871 30.3797C38.5564 30.296 38.6361 30.1184 38.6871 29.9721C38.8739 29.4495 39.079 28.927 39.2253 28.3848C39.3259 28.0204 39.5258 27.8793 39.8628 27.9041Z" fill="#F7FBF8"/>
<path d="M31.1768 36.6641C30.4909 37.0469 29.8182 37.4584 29.1114 37.7968C28.7561 37.9666 28.4452 37.6727 28.3655 37.3774C28.2975 37.1161 28.3785 36.7112 28.7574 36.6681C29.5438 36.5805 30.3289 36.4185 31.1768 36.6641Z" fill="#F7FBF8"/>
</g>
<defs>
<filter id="filter0_d_896_168" x="0" y="0" width="70" height="70" filterUnits="userSpaceOnUse" color-interpolation-filters="sRGB">
<feFlood flood-opacity="0" result="BackgroundImageFix"/>
<feColorMatrix in="SourceAlpha" type="matrix" values="0 0 0 0 0 0 0 0 0 0 0 0 0 0 0 0 0 0 127 0" result="hardAlpha"/>
<feOffset/>
<feGaussianBlur stdDeviation="5"/>
<feComposite in2="hardAlpha" operator="out"/>
<feColorMatrix type="matrix" values="0 0 0 0 0 0 0 0 0 0 0 0 0 0 0 0 0 0 0.25 0"/>
<feBlend mode="normal" in2="BackgroundImageFix" result="effect1_dropShadow_896_168"/>
<feBlend mode="normal" in="SourceGraphic" in2="effect1_dropShadow_896_168" result="shape"/>
</filter>
<filter id="filter1_d_896_168" x="12.8333" y="12.5" width="44.1914" height="45.0034" filterUnits="userSpaceOnUse" color-interpolation-filters="sRGB">
<feFlood flood-opacity="0" result="BackgroundImageFix"/>
<feColorMatrix in="SourceAlpha" type="matrix" values="0 0 0 0 0 0 0 0 0 0 0 0 0 0 0 0 0 0 127 0" result="hardAlpha"/>
<feOffset/>
<feGaussianBlur stdDeviation="5"/>
<feComposite in2="hardAlpha" operator="out"/>
<feColorMatrix type="matrix" values="0 0 0 0 1 0 0 0 0 1 0 0 0 0 1 0 0 0 1 0"/>
<feBlend mode="normal" in2="BackgroundImageFix" result="effect1_dropShadow_896_168"/>
<feBlend mode="normal" in="SourceGraphic" in2="effect1_dropShadow_896_168" result="shape"/>
</filter>
<radialGradient id="paint0_radial_896_168" cx="0" cy="0" r="1" gradientUnits="userSpaceOnUse" gradientTransform="translate(28.0833 24.25) rotate(48.2424) scale(47.9243)">
<stop stop-color="#6BFF68"/>
<stop offset="1" stop-color="#00664D" stop-opacity="0.5"/>
</radialGradient>
</defs>
</svg>
