<svg width="70" height="70" viewBox="0 0 70 70" fill="none" xmlns="http://www.w3.org/2000/svg">
<g filter="url(#filter0_d_937_47)">
<circle cx="35" cy="35" r="25" fill="url(#paint0_radial_937_47)"/>
</g>
<g filter="url(#filter1_d_937_47)">
<path d="M43.2644 27.925C42.97 28.2962 42.4132 28.3378 42.0724 28.0018C39.7172 25.6754 37.4099 24.357 33.7187 24.5458C32.1682 24.6258 30.0418 25.8834 30.1394 27.6546C30.4242 33.0051 43.714 31.7635 44.1268 39.5428C44.386 44.4389 39.2835 46.759 35.0547 46.9782C30.8722 47.1926 28.0274 45.8229 25.2353 43.0949C24.9089 42.7797 24.9249 42.2549 25.2657 41.9541C25.5761 41.6789 26.0497 41.6949 26.3505 41.9797C28.8178 44.3413 31.0482 45.6549 34.8339 45.4613C36.8419 45.3605 39.1379 44.0213 39.0211 41.7973C38.7763 37.2084 25.7153 38.1316 25.3073 30.4499C25.0481 25.5538 28.9874 23.2562 33.4962 23.0226C37.7203 22.8033 40.3284 24.189 43.1764 26.8754C43.4772 27.1554 43.5124 27.6034 43.2644 27.925Z" fill="white"/>
</g>
<defs>
<filter id="filter0_d_937_47" x="0" y="0" width="70" height="70" filterUnits="userSpaceOnUse" color-interpolation-filters="sRGB">
<feFlood flood-opacity="0" result="BackgroundImageFix"/>
<feColorMatrix in="SourceAlpha" type="matrix" values="0 0 0 0 0 0 0 0 0 0 0 0 0 0 0 0 0 0 127 0" result="hardAlpha"/>
<feOffset/>
<feGaussianBlur stdDeviation="5"/>
<feComposite in2="hardAlpha" operator="out"/>
<feColorMatrix type="matrix" values="0 0 0 0 0 0 0 0 0 0 0 0 0 0 0 0 0 0 0.25 0"/>
<feBlend mode="normal" in2="BackgroundImageFix" result="effect1_dropShadow_937_47"/>
<feBlend mode="normal" in="SourceGraphic" in2="effect1_dropShadow_937_47" result="shape"/>
</filter>
<filter id="filter1_d_937_47" x="21" y="19" width="27.1362" height="32" filterUnits="userSpaceOnUse" color-interpolation-filters="sRGB">
<feFlood flood-opacity="0" result="BackgroundImageFix"/>
<feColorMatrix in="SourceAlpha" type="matrix" values="0 0 0 0 0 0 0 0 0 0 0 0 0 0 0 0 0 0 127 0" result="hardAlpha"/>
<feOffset/>
<feGaussianBlur stdDeviation="2"/>
<feComposite in2="hardAlpha" operator="out"/>
<feColorMatrix type="matrix" values="0 0 0 0 1 0 0 0 0 1 0 0 0 0 1 0 0 0 1 0"/>
<feBlend mode="normal" in2="BackgroundImageFix" result="effect1_dropShadow_937_47"/>
<feBlend mode="normal" in="SourceGraphic" in2="effect1_dropShadow_937_47" result="shape"/>
</filter>
<radialGradient id="paint0_radial_937_47" cx="0" cy="0" r="1" gradientUnits="userSpaceOnUse" gradientTransform="translate(28.0833 24.25) rotate(48.2424) scale(47.9243)">
<stop stop-color="#BEBEBE"/>
<stop offset="1" stop-color="#1C2033"/>
</radialGradient>
</defs>
</svg>
