<svg width="70" height="70" viewBox="0 0 70 70" fill="none" xmlns="http://www.w3.org/2000/svg">
<g filter="url(#filter0_d_937_48)">
<circle cx="35" cy="35" r="25" fill="url(#paint0_radial_937_48)"/>
</g>
<g filter="url(#filter1_d_937_48)">
<path d="M34.5824 25.5396C34.7336 25.1632 35.2664 25.1632 35.4176 25.5396L37.6103 30.9999C37.6746 31.1602 37.8251 31.2695 37.9974 31.2812L43.868 31.6793C44.2727 31.7067 44.4374 32.2135 44.1261 32.4736L39.6107 36.2463C39.4781 36.357 39.4206 36.5338 39.4628 36.7014L40.8983 42.4077C40.9973 42.8011 40.5662 43.1143 40.2227 42.8986L35.2392 39.7699C35.093 39.6781 34.907 39.6781 34.7607 39.7699L29.7773 42.8986C29.4337 43.1143 29.0026 42.8011 29.1016 42.4077L30.5372 36.7014C30.5793 36.5338 30.5218 36.357 30.3893 36.2463L25.8738 32.4736C25.5625 32.2135 25.7272 31.7067 26.1319 31.6793L32.0025 31.2812C32.1749 31.2695 32.3253 31.1602 32.3897 30.9999L34.5824 25.5396Z" fill="white"/>
<path d="M35 47C41.6274 47 47 41.6274 47 35C47 28.3726 41.6274 23 35 23C28.3726 23 23 28.3726 23 35C23 41.6274 28.3726 47 35 47Z" stroke="white"/>
</g>
<defs>
<filter id="filter0_d_937_48" x="0" y="0" width="70" height="70" filterUnits="userSpaceOnUse" color-interpolation-filters="sRGB">
<feFlood flood-opacity="0" result="BackgroundImageFix"/>
<feColorMatrix in="SourceAlpha" type="matrix" values="0 0 0 0 0 0 0 0 0 0 0 0 0 0 0 0 0 0 127 0" result="hardAlpha"/>
<feOffset/>
<feGaussianBlur stdDeviation="5"/>
<feComposite in2="hardAlpha" operator="out"/>
<feColorMatrix type="matrix" values="0 0 0 0 0 0 0 0 0 0 0 0 0 0 0 0 0 0 0.25 0"/>
<feBlend mode="normal" in2="BackgroundImageFix" result="effect1_dropShadow_937_48"/>
<feBlend mode="normal" in="SourceGraphic" in2="effect1_dropShadow_937_48" result="shape"/>
</filter>
<filter id="filter1_d_937_48" x="18.5" y="18.5" width="33" height="33" filterUnits="userSpaceOnUse" color-interpolation-filters="sRGB">
<feFlood flood-opacity="0" result="BackgroundImageFix"/>
<feColorMatrix in="SourceAlpha" type="matrix" values="0 0 0 0 0 0 0 0 0 0 0 0 0 0 0 0 0 0 127 0" result="hardAlpha"/>
<feOffset/>
<feGaussianBlur stdDeviation="2"/>
<feComposite in2="hardAlpha" operator="out"/>
<feColorMatrix type="matrix" values="0 0 0 0 1 0 0 0 0 1 0 0 0 0 1 0 0 0 1 0"/>
<feBlend mode="normal" in2="BackgroundImageFix" result="effect1_dropShadow_937_48"/>
<feBlend mode="normal" in="SourceGraphic" in2="effect1_dropShadow_937_48" result="shape"/>
</filter>
<radialGradient id="paint0_radial_937_48" cx="0" cy="0" r="1" gradientUnits="userSpaceOnUse" gradientTransform="translate(28.0833 24.25) rotate(48.2424) scale(47.9243)">
<stop stop-color="#914CCE"/>
<stop offset="1" stop-color="#1C2033"/>
</radialGradient>
</defs>
</svg>
