<svg width="70" height="70" viewBox="0 0 70 70" fill="none" xmlns="http://www.w3.org/2000/svg">
<g filter="url(#filter0_d_937_45)">
<circle cx="35" cy="35" r="25" fill="url(#paint0_radial_937_45)"/>
</g>
<g filter="url(#filter1_d_937_45)">
<path d="M46.705 34.3027C46.8514 34.3134 46.9658 34.3107 46.9791 34.5374C47.2558 39.3401 44.7706 44.0015 40.4628 46.2736C38.4778 47.3189 36.3572 47.7483 34.1381 47.5802C31.1872 47.3562 28.7154 46.0762 26.6612 43.9642C24.9822 42.2335 23.8993 40.1668 23.3272 37.8334C22.9893 36.4441 22.9627 35.0254 23.0292 33.604C24.2 33.62 25.3734 33.5453 26.5335 33.7827C27.6058 33.9987 28.6382 34.3053 29.5775 34.8867C31.2378 35.916 32.6001 37.3187 34.1035 38.5428C35.4844 39.6654 36.9053 40.6548 38.7439 40.9268C39.9147 41.0975 40.8699 40.7908 41.7346 40.0575C42.8389 39.1214 43.5094 37.8601 44.2198 36.6334C44.8159 35.5987 45.5183 34.6947 46.705 34.3027Z" fill="#F2F2F2"/>
<path d="M46.7051 33.4327C45.5183 33.8247 44.8132 34.7287 44.2172 35.7607C43.5068 36.9874 42.8362 38.2488 41.732 39.1848C40.8699 39.9155 39.912 40.2248 38.7413 40.0541C36.9027 39.7848 35.4818 38.7954 34.1008 37.6701C32.5975 36.4461 31.2352 35.0434 29.5748 34.014C28.6356 33.4327 27.6005 33.126 26.5309 32.91C25.3708 32.6753 24.1973 32.75 23.0266 32.7313C23.0266 31.5073 23.0266 30.2833 23.0239 29.0566C24.2798 28.8673 25.5251 28.8539 26.7969 29.0326C28.6356 29.2913 30.1362 30.1553 31.4879 31.3526C32.5842 32.326 33.5953 33.398 34.7314 34.326C35.8011 35.198 36.9213 36.0167 38.3315 36.2194C39.2468 36.3501 40.1675 36.3474 40.9364 35.6647C41.7932 34.9074 42.3892 33.9687 42.9507 32.9873C43.5041 32.022 43.9591 30.9766 44.8398 30.238C45.4545 29.7233 46.1223 29.3046 46.9498 29.2326C46.9552 30.486 46.9365 32.3447 46.9711 33.5954C46.9658 33.734 47.035 33.4327 46.7051 33.4327Z" fill="#F2F2F2"/>
<path d="M46.9552 28.3655C46.125 28.4349 45.4598 28.8535 44.8451 29.3709C43.9644 30.1096 43.5094 31.1549 42.956 32.1203C42.3945 33.1016 41.7959 34.0403 40.9417 34.7976C40.1701 35.4803 39.2521 35.483 38.3368 35.3523C36.9266 35.1497 35.8064 34.331 34.7368 33.459C33.5979 32.5309 32.5895 31.4589 31.4932 30.4856C30.1442 29.2882 28.6409 28.4242 26.8023 28.1655C25.5277 27.9895 24.2825 28.0002 23.0266 28.1895C23.0292 27.3762 23.0425 26.5602 23.0266 25.7468C23.0213 25.4695 23.117 25.3575 23.3831 25.2988C25.4452 24.8641 27.4781 24.8188 29.4338 25.7415C30.0458 26.0295 30.5699 26.4588 31.0835 26.9015C32.068 27.7469 32.9008 28.7442 33.8294 29.6429C34.8192 30.6002 35.8117 31.5683 37.1501 32.0243C38.8211 32.5923 39.8269 32.2456 40.7821 31.0616C41.5032 30.1682 41.9821 29.1362 42.477 28.1122C42.9586 27.1122 43.5254 26.1948 44.5418 25.6428C45.1272 25.3228 45.7365 25.1601 46.407 25.2108C46.7742 25.2401 46.9844 25.3335 46.9631 25.7868C46.9232 26.6455 46.9552 27.5069 46.9552 28.3655Z" fill="#F2F2F2"/>
</g>
<defs>
<filter id="filter0_d_937_45" x="0" y="0" width="70" height="70" filterUnits="userSpaceOnUse" color-interpolation-filters="sRGB">
<feFlood flood-opacity="0" result="BackgroundImageFix"/>
<feColorMatrix in="SourceAlpha" type="matrix" values="0 0 0 0 0 0 0 0 0 0 0 0 0 0 0 0 0 0 127 0" result="hardAlpha"/>
<feOffset/>
<feGaussianBlur stdDeviation="5"/>
<feComposite in2="hardAlpha" operator="out"/>
<feColorMatrix type="matrix" values="0 0 0 0 0 0 0 0 0 0 0 0 0 0 0 0 0 0 0.25 0"/>
<feBlend mode="normal" in2="BackgroundImageFix" result="effect1_dropShadow_937_45"/>
<feBlend mode="normal" in="SourceGraphic" in2="effect1_dropShadow_937_45" result="shape"/>
</filter>
<filter id="filter1_d_937_45" x="19" y="21" width="32" height="30.6157" filterUnits="userSpaceOnUse" color-interpolation-filters="sRGB">
<feFlood flood-opacity="0" result="BackgroundImageFix"/>
<feColorMatrix in="SourceAlpha" type="matrix" values="0 0 0 0 0 0 0 0 0 0 0 0 0 0 0 0 0 0 127 0" result="hardAlpha"/>
<feOffset/>
<feGaussianBlur stdDeviation="2"/>
<feComposite in2="hardAlpha" operator="out"/>
<feColorMatrix type="matrix" values="0 0 0 0 1 0 0 0 0 1 0 0 0 0 1 0 0 0 0.5 0"/>
<feBlend mode="normal" in2="BackgroundImageFix" result="effect1_dropShadow_937_45"/>
<feBlend mode="normal" in="SourceGraphic" in2="effect1_dropShadow_937_45" result="shape"/>
</filter>
<radialGradient id="paint0_radial_937_45" cx="0" cy="0" r="1" gradientUnits="userSpaceOnUse" gradientTransform="translate(28.0833 24.25) rotate(48.2424) scale(47.9243)">
<stop stop-color="#4EFFE5"/>
<stop offset="1" stop-color="#DBB1FF"/>
</radialGradient>
</defs>
</svg>
