<svg width="728" height="727" viewBox="0 0 728 727" fill="none" xmlns="http://www.w3.org/2000/svg">
<g filter="url(#filter0_d_64_87)">
<rect x="181.918" y="177" width="365" height="365" rx="47" fill="url(#paint0_linear_64_87)"/>
</g>
<path fill-rule="evenodd" clip-rule="evenodd" d="M336.362 360.035C336.362 292.085 348.718 237 363.96 237C379.202 237 391.559 292.085 391.559 360.035C391.559 427.985 379.202 483.07 363.96 483.07C348.718 483.07 336.362 427.985 336.362 360.035ZM343.638 360.035C343.638 423.968 352.735 475.794 363.96 475.794C375.184 475.794 384.283 423.968 384.283 360.035C384.283 296.103 375.184 244.275 363.96 244.275C352.735 244.275 343.638 296.103 343.638 360.035Z" fill="#202B4E"/>
<path fill-rule="evenodd" clip-rule="evenodd" d="M350.136 336.137C408.925 301.995 462.797 285.019 470.466 298.222C478.132 311.424 436.69 349.805 377.904 383.947C319.116 418.089 265.243 435.064 257.574 421.863C249.908 408.66 291.347 370.279 350.136 336.137ZM353.796 342.439C298.488 374.561 258.23 408.482 263.876 418.203C269.522 427.926 318.935 409.767 374.244 377.645C429.553 345.526 469.81 311.604 464.164 301.881C458.518 292.159 409.105 310.317 353.796 342.439Z" fill="#202B4E"/>
<path fill-rule="evenodd" clip-rule="evenodd" d="M349.698 384.345C290.907 350.989 249.351 313.19 256.881 299.915C264.412 286.64 318.179 302.917 376.97 336.27C435.764 369.626 477.32 407.426 469.789 420.701C462.259 433.976 408.492 417.699 349.698 384.345ZM353.292 378.009C408.588 409.377 457.908 426.88 463.453 417.107C468.998 407.33 428.671 373.977 373.376 342.606C318.083 311.238 268.763 293.734 263.218 303.509C257.67 313.285 297.999 346.638 353.292 378.009Z" fill="#202B4E"/>
<path fill-rule="evenodd" clip-rule="evenodd" d="M275.574 335.481C275.574 329.617 280.328 324.863 286.192 324.863C292.056 324.863 296.81 329.617 296.81 335.481C296.81 341.345 292.056 346.099 286.192 346.099C280.328 346.099 275.574 341.345 275.574 335.481Z" fill="#202B4E"/>
<path fill-rule="evenodd" clip-rule="evenodd" d="M336.362 439.537C336.362 433.673 341.116 428.919 346.98 428.919C352.843 428.919 357.598 433.673 357.598 439.537C357.598 445.401 352.843 450.155 346.98 450.155C341.116 450.155 336.362 445.401 336.362 439.537Z" fill="#202B4E"/>
<path fill-rule="evenodd" clip-rule="evenodd" d="M411.749 305.618C411.749 299.681 416.562 294.868 422.5 294.868C428.438 294.868 433.25 299.681 433.25 305.618C433.25 311.556 428.438 316.369 422.5 316.369C416.562 316.369 411.749 311.556 411.749 305.618Z" fill="#202B4E"/>
<path fill-rule="evenodd" clip-rule="evenodd" d="M347.776 359.903C347.776 350.96 354.967 343.71 363.836 343.71C372.704 343.71 379.895 350.96 379.895 359.903C379.895 368.846 372.704 376.095 363.836 376.095C354.967 376.095 347.776 368.846 347.776 359.903Z" fill="#202B4E"/>
<defs>
<filter id="filter0_d_64_87" x="0.918091" y="0" width="727" height="727" filterUnits="userSpaceOnUse" color-interpolation-filters="sRGB">
<feFlood flood-opacity="0" result="BackgroundImageFix"/>
<feColorMatrix in="SourceAlpha" type="matrix" values="0 0 0 0 0 0 0 0 0 0 0 0 0 0 0 0 0 0 127 0" result="hardAlpha"/>
<feMorphology radius="49" operator="dilate" in="SourceAlpha" result="effect1_dropShadow_64_87"/>
<feOffset dy="4"/>
<feGaussianBlur stdDeviation="66"/>
<feComposite in2="hardAlpha" operator="out"/>
<feColorMatrix type="matrix" values="0 0 0 0 0 0 0 0 0 0 0 0 0 0 0 0 0 0 0.39 0"/>
<feBlend mode="normal" in2="BackgroundImageFix" result="effect1_dropShadow_64_87"/>
<feBlend mode="normal" in="SourceGraphic" in2="effect1_dropShadow_64_87" result="shape"/>
</filter>
<linearGradient id="paint0_linear_64_87" x1="364.418" y1="177" x2="364.418" y2="542" gradientUnits="userSpaceOnUse">
<stop stop-color="#6D7EBE"/>
<stop offset="1" stop-color="#273259"/>
</linearGradient>
</defs>
</svg>
