<svg width="500" height="499" viewBox="0 0 500 499" fill="none" xmlns="http://www.w3.org/2000/svg">
<g filter="url(#filter0_d_59_23)">
<rect x="181.918" y="177" width="137" height="137" rx="30" fill="url(#paint0_linear_59_23)"/>
</g>
<path d="M229.095 243.595C232.039 242.341 234.855 241.098 237.702 239.936C253.816 233.358 270.186 227.543 287.335 224.237C291.44 223.445 295.668 223.186 299.853 222.946C301.653 222.842 303.947 222.847 304.779 224.868C305.625 226.926 303.865 228.376 302.539 229.629C297.66 234.242 291.802 237.439 285.96 240.636C284.848 241.244 284.138 240.892 283.82 239.643C283.376 237.9 282.846 236.179 282.397 234.436C282.045 233.068 281.319 232.829 279.952 233.183C263.7 237.384 248.014 243.151 232.693 249.937C231.871 250.3 231.061 250.686 230.071 251.14C231.075 254.802 232.834 257.973 235.256 260.759C247.537 274.896 269.776 272.681 279.012 256.427C279.075 256.316 279.148 256.207 279.211 256.096C279.746 255.142 280.475 254.13 281.588 254.97C282.11 255.363 282.363 256.705 282.121 257.407C280.717 261.47 278.477 265.088 275.488 268.192C264.952 279.128 251.22 281.878 236.707 275.926C233.423 274.58 230.171 273.115 227.045 271.444C221.132 268.284 214.876 267.331 208.266 267.881C205.497 268.112 202.69 268.252 199.93 268.05C198.681 267.959 197.113 267.221 196.387 266.257C195.4 264.944 196.488 263.513 197.553 262.548C199.798 260.515 202.081 258.509 204.486 256.67C209.534 252.809 213.265 248.066 215.559 242.096C217.263 237.662 219.135 233.243 221.44 229.097C230.094 213.517 249.272 207.637 265.383 215.428C265.733 215.597 266.214 215.686 266.396 215.967C266.804 216.594 267.063 217.318 267.382 218.002C266.633 218.282 265.833 218.891 265.145 218.783C263.112 218.466 261.147 217.716 259.115 217.402C243.888 215.05 229.236 227.33 228.92 242.66C228.913 242.896 229.005 243.138 229.095 243.595Z" fill="#1D2745"/>
<defs>
<filter id="filter0_d_59_23" x="0.918091" y="0" width="499" height="499" filterUnits="userSpaceOnUse" color-interpolation-filters="sRGB">
<feFlood flood-opacity="0" result="BackgroundImageFix"/>
<feColorMatrix in="SourceAlpha" type="matrix" values="0 0 0 0 0 0 0 0 0 0 0 0 0 0 0 0 0 0 127 0" result="hardAlpha"/>
<feMorphology radius="49" operator="dilate" in="SourceAlpha" result="effect1_dropShadow_59_23"/>
<feOffset dy="4"/>
<feGaussianBlur stdDeviation="66"/>
<feComposite in2="hardAlpha" operator="out"/>
<feColorMatrix type="matrix" values="0 0 0 0 0 0 0 0 0 0 0 0 0 0 0 0 0 0 0.39 0"/>
<feBlend mode="normal" in2="BackgroundImageFix" result="effect1_dropShadow_59_23"/>
<feBlend mode="normal" in="SourceGraphic" in2="effect1_dropShadow_59_23" result="shape"/>
</filter>
<linearGradient id="paint0_linear_59_23" x1="250.418" y1="177" x2="250.418" y2="314" gradientUnits="userSpaceOnUse">
<stop stop-color="#6D7EBE"/>
<stop offset="1" stop-color="#273259"/>
</linearGradient>
</defs>
</svg>
