<svg width="571" height="571" viewBox="0 0 571 571" fill="none" xmlns="http://www.w3.org/2000/svg">
<g filter="url(#filter0_d_65_94)">
<rect x="181" y="177" width="209" height="209" rx="21" fill="url(#paint0_linear_65_94)"/>
</g>
<path fill-rule="evenodd" clip-rule="evenodd" d="M230.172 310.993C237.861 325.525 251.01 336.408 266.727 341.25C282.445 346.092 299.444 344.495 313.983 336.809C328.524 329.123 339.414 315.979 344.259 300.268C349.103 284.557 347.473 267.565 339.785 253.032C346.718 274.873 322.58 282.546 322.58 282.546L293.368 297.808L263.007 313.637C263.007 313.637 242.316 326.952 230.172 310.993Z" fill="#253157"/>
<path fill-rule="evenodd" clip-rule="evenodd" d="M340.162 310.303C347.67 295.685 349.057 278.686 344.018 263.046C338.978 247.406 327.926 234.406 313.291 226.906C298.657 219.405 281.639 218.019 265.982 223.052C250.324 228.084 237.311 239.124 229.803 253.742C243.735 235.557 263.878 250.948 263.878 250.948L293.133 266.12L323.511 281.908C323.511 281.908 346.285 291.221 340.162 310.303Z" fill="#1F294A"/>
<path fill-rule="evenodd" clip-rule="evenodd" d="M285.037 220C268.583 220 252.804 226.532 241.17 238.159C229.536 249.786 223 265.556 223 282C223 298.443 229.536 314.213 241.17 325.84C252.804 337.468 268.583 344 285.037 344C263.921 340.456 263.921 313.117 263.921 313.117V282V250.332C263.921 250.332 263.921 223.777 285.037 220Z" fill="#2C3963"/>
<path fill-rule="evenodd" clip-rule="evenodd" d="M284.815 344C263.876 334.451 263.901 313.136 263.901 313.136C263.901 313.136 237.948 327.793 229.211 309.046C229.211 309.046 243.857 344.124 284.815 344Z" fill="#253157"/>
<defs>
<filter id="filter0_d_65_94" x="0" y="0" width="571" height="571" filterUnits="userSpaceOnUse" color-interpolation-filters="sRGB">
<feFlood flood-opacity="0" result="BackgroundImageFix"/>
<feColorMatrix in="SourceAlpha" type="matrix" values="0 0 0 0 0 0 0 0 0 0 0 0 0 0 0 0 0 0 127 0" result="hardAlpha"/>
<feMorphology radius="49" operator="dilate" in="SourceAlpha" result="effect1_dropShadow_65_94"/>
<feOffset dy="4"/>
<feGaussianBlur stdDeviation="66"/>
<feComposite in2="hardAlpha" operator="out"/>
<feColorMatrix type="matrix" values="0 0 0 0 0 0 0 0 0 0 0 0 0 0 0 0 0 0 0.39 0"/>
<feBlend mode="normal" in2="BackgroundImageFix" result="effect1_dropShadow_65_94"/>
<feBlend mode="normal" in="SourceGraphic" in2="effect1_dropShadow_65_94" result="shape"/>
</filter>
<linearGradient id="paint0_linear_65_94" x1="285.5" y1="177" x2="285.5" y2="386" gradientUnits="userSpaceOnUse">
<stop stop-color="#6D7EBE"/>
<stop offset="1" stop-color="#273259"/>
</linearGradient>
</defs>
</svg>
