<svg width="343" height="343" viewBox="0 0 343 343" fill="none" xmlns="http://www.w3.org/2000/svg">
<g filter="url(#filter0_d_59_53)">
<rect x="40" y="36" width="263" height="263" rx="30" fill="url(#paint0_linear_59_53)"/>
</g>
<g filter="url(#filter1_d_59_53)">
<path d="M256.184 107.915C254.289 100.616 248.196 93.3168 237.23 85.1911C228.429 78.7184 219.087 75 211.641 75C210.152 75 208.798 75.1377 207.444 75.4132C204.059 76.1018 201.081 78.5807 199.185 82.2992C196.884 86.7061 196.342 92.6282 197.832 96.2087C198.373 97.3105 199.05 98.6877 199.862 99.9273C192.687 104.334 188.625 105.574 188.083 105.711C206.767 112.047 222.337 125.268 232.085 142.482L232.22 140.83C232.627 136.285 233.98 131.052 235.876 125.681C237.771 126.232 239.667 126.507 241.562 126.507C246.571 126.507 250.904 124.441 253.612 120.723C256.319 117.004 257.402 112.047 256.184 107.915Z" fill="#5E12A0"/>
<path d="M236.688 121.689C249.008 125.132 254.018 115.491 252.393 109.019C250.633 102.546 244.947 95.9353 234.928 88.4985C224.909 81.0617 214.755 78.0317 208.256 79.409C201.758 80.7863 199.862 90.8395 201.487 94.6958C202.164 96.2107 203.653 98.4143 205.684 100.893C203.111 102.683 200.675 104.061 198.644 105.3C211.099 110.947 221.931 119.761 230.054 130.778C231.002 127.06 232.356 123.755 233.574 120.862C234.522 121 235.605 121.276 236.688 121.689Z" fill="url(#paint1_radial_59_53)"/>
<path d="M166.15 256.652C207.948 256.652 241.832 222.184 241.832 179.667C241.832 137.149 207.948 102.681 166.15 102.681C124.352 102.681 90.4675 137.149 90.4675 179.667C90.4675 222.184 124.352 256.652 166.15 256.652Z" fill="url(#paint2_radial_59_53)"/>
<path opacity="0.6" d="M246.165 102.682C235.875 91.6645 227.21 88.7723 216.786 86.4313C208.662 84.5031 210.828 79.8206 220.712 80.7846C215.973 79.132 211.505 78.7188 208.256 79.4074C201.757 80.7846 199.862 90.8381 201.487 94.6944C202.164 96.2093 203.653 98.4126 205.683 100.892C202.028 103.371 198.914 105.161 196.342 106.538C197.56 107.089 199.05 107.778 200.81 108.742C205.413 111.221 210.422 115.352 210.422 115.352C202.841 108.742 204.465 105.712 214.89 98.2749C218.139 95.9339 224.096 96.2093 229.647 99.1012C235.198 101.993 241.697 109.293 241.697 109.293L235.469 121.412C235.875 121.55 236.281 121.687 236.687 121.825C240.614 122.927 243.728 122.651 246.165 121.687C249.008 119.897 256.454 113.837 246.165 102.682Z" fill="#A98698"/>
<path d="M216.649 93.0411C219.357 94.1428 222.877 96.071 227.21 98.9632C232.354 102.406 236.822 106.262 239.665 109.292C234.927 115.627 231.813 124.303 229.917 130.363C230.865 131.74 231.948 133.117 232.896 134.495C233.844 131.052 235.469 125.956 237.635 120.86C238.176 120.998 238.853 120.998 239.53 120.998C241.155 120.998 243.05 120.723 244.539 119.483C245.622 118.657 246.841 117.142 246.706 114.388C246.706 111.771 244.675 108.466 240.478 104.472C237.499 101.58 233.438 98.4123 229.376 95.5201C217.733 87.6701 209.609 85.4666 205.954 89.1851C203.517 91.6638 203.788 94.6937 204.6 96.8973C200.267 99.7895 196.612 101.855 194.175 103.232C195.8 103.783 197.289 104.472 198.913 105.16C203.246 102.819 209.474 98.8255 216.649 93.0411ZM242.238 112.735C242.644 113.424 242.779 114.112 242.779 114.525C242.779 115.765 242.373 116.178 242.103 116.453C241.561 116.867 240.478 117.142 239.53 117.142C240.342 115.489 241.29 114.112 242.238 112.735ZM208.797 92.2147C209.203 91.8015 210.286 91.5261 212.046 91.8015C210.692 92.9033 209.338 93.8674 207.985 94.8315C207.849 93.8674 207.984 92.9033 208.797 92.2147Z" fill="#5E12A0"/>
<path d="M166.15 98.1356C121.878 98.1356 86 134.631 86 179.665C86 224.7 121.878 261.195 166.15 261.195C210.422 261.195 246.3 224.7 246.3 179.665C246.3 134.631 210.287 98.1356 166.15 98.1356ZM166.15 256.651C124.315 256.651 90.4678 222.221 90.4678 179.665C90.4678 137.11 124.315 102.68 166.15 102.68C207.985 102.68 241.832 137.11 241.832 179.665C241.832 222.221 207.85 256.651 166.15 256.651Z" fill="#5E12A0"/>
<path opacity="0.6" d="M166.15 256.652C207.948 256.652 241.832 222.184 241.832 179.667C241.832 137.149 207.948 102.681 166.15 102.681C124.352 102.681 90.4675 137.149 90.4675 179.667C90.4675 222.184 124.352 256.652 166.15 256.652Z" fill="url(#paint3_linear_59_53)"/>
<path opacity="0.6" d="M165.609 247.286C124.315 240.537 96.2898 201.012 103.059 159.007C106.038 140.415 115.244 124.577 128.241 113.147C109.287 124.302 95.2066 143.72 91.4157 167.408C84.7817 209.413 112.807 248.938 153.965 255.687C176.981 259.543 199.185 252.243 215.567 237.921C201.08 246.459 183.48 250.178 165.609 247.286Z" fill="#A98698"/>
<path opacity="0.6" d="M178.2 103.784C159.11 100.617 140.562 105.024 125.399 114.802C125.128 115.077 124.857 115.353 124.857 115.353C130.679 111.772 139.208 108.604 139.208 108.604C117.275 121.55 110.506 136.286 110.506 136.286C119.035 119.484 144.082 107.64 163.713 106.814C183.345 105.988 196.206 111.91 211.911 124.718C227.617 137.663 237.094 164.105 236.146 185.039C235.334 205.972 224.503 222.912 224.503 222.912C231.949 213.133 236.417 205.972 239.26 198.673C239.802 196.469 240.343 194.266 240.614 191.925C247.383 150.058 219.493 110.533 178.2 103.784Z" fill="url(#paint4_linear_59_53)"/>
<path d="M238.041 178.978C238.041 219.33 205.818 252.107 166.15 252.107C126.481 252.107 94.123 219.33 94.123 178.978H238.041Z" fill="url(#paint5_linear_59_53)"/>
<g opacity="0.6">
<path opacity="0.6" d="M232.355 178.978C232.355 218.365 201.757 250.592 163.306 252.107C164.254 252.107 165.202 252.107 166.15 252.107C205.818 252.107 238.041 219.33 238.041 178.978H232.355Z" fill="url(#paint6_linear_59_53)"/>
</g>
<g opacity="0.7">
<path opacity="0.7" d="M104.277 178.978H94.123C94.123 219.33 126.346 252.107 166.015 252.107C167.774 252.107 169.399 252.107 171.024 251.969C133.792 249.215 104.277 217.539 104.277 178.978Z" fill="url(#paint7_linear_59_53)"/>
</g>
<path d="M237.905 179.666C237.905 171.265 223.554 166.445 204.465 164.792C190.655 163.69 176.71 165.068 160.734 170.025C146.925 174.157 134.469 173.468 125.398 172.367C105.225 170.025 94.123 169.75 94.123 179.666C94.123 193.989 122.825 211.892 165.879 205.695C187.677 202.527 198.914 196.054 211.776 191.647C225.721 186.965 237.905 187.103 237.905 179.666Z" fill="url(#paint8_linear_59_53)"/>
<path d="M189.707 144.96C196.437 144.96 201.892 139.41 201.892 132.565C201.892 125.719 196.437 120.17 189.707 120.17C182.978 120.17 177.522 125.719 177.522 132.565C177.522 139.41 182.978 144.96 189.707 144.96Z" fill="white"/>
<path d="M209.61 154.189C212.451 154.189 214.754 151.846 214.754 148.956C214.754 146.066 212.451 143.723 209.61 143.723C206.768 143.723 204.465 146.066 204.465 148.956C204.465 151.846 206.768 154.189 209.61 154.189Z" fill="white"/>
<g opacity="0.6">
<path opacity="0.6" d="M228.023 122.651C227.888 122.651 227.752 122.651 227.752 122.651C226.94 122.513 226.399 121.687 226.534 120.723C227.752 114.388 232.897 108.328 233.168 108.053C233.709 107.364 234.793 107.364 235.334 107.915C236.011 108.466 236.011 109.568 235.47 110.119C235.334 110.256 230.596 115.903 229.513 121.412C229.377 122.238 228.7 122.651 228.023 122.651Z" fill="url(#paint9_linear_59_53)"/>
</g>
<path opacity="0.2" d="M161.164 237.095C163.257 237.095 164.955 235.369 164.955 233.239C164.955 231.11 163.257 229.383 161.164 229.383C159.07 229.383 157.373 231.11 157.373 233.239C157.373 235.369 159.07 237.095 161.164 237.095Z" fill="white"/>
<g opacity="0.4">
<path opacity="0.6" d="M158.974 235.749C157.485 234.235 157.485 231.756 158.974 230.241C159.245 229.965 159.516 229.828 159.787 229.552C159.245 229.69 158.839 229.965 158.433 230.378C156.944 231.893 156.944 234.372 158.433 235.887C159.651 237.127 161.547 237.402 163.036 236.576C161.682 237.127 160.058 236.851 158.974 235.749Z" fill="url(#paint10_linear_59_53)"/>
</g>
<path opacity="0.3" d="M162.495 232.137C162.944 232.137 163.307 231.767 163.307 231.31C163.307 230.854 162.944 230.484 162.495 230.484C162.046 230.484 161.683 230.854 161.683 231.31C161.683 231.767 162.046 232.137 162.495 232.137Z" fill="white"/>
<path opacity="0.2" d="M180.931 235.168C183.024 235.168 184.721 233.442 184.721 231.312C184.721 229.182 183.024 227.456 180.931 227.456C178.837 227.456 177.14 229.182 177.14 231.312C177.14 233.442 178.837 235.168 180.931 235.168Z" fill="white"/>
<g opacity="0.4">
<path opacity="0.6" d="M178.741 233.823C177.252 232.308 177.252 229.829 178.741 228.314C179.012 228.038 179.283 227.901 179.554 227.625C179.012 227.763 178.606 228.038 178.2 228.452C176.71 229.967 176.71 232.445 178.2 233.96C179.418 235.2 181.314 235.475 182.803 234.649C181.449 235.2 179.824 234.924 178.741 233.823Z" fill="url(#paint11_linear_59_53)"/>
</g>
<path opacity="0.3" d="M182.262 230.21C182.71 230.21 183.074 229.84 183.074 229.383C183.074 228.927 182.71 228.557 182.262 228.557C181.813 228.557 181.449 228.927 181.449 229.383C181.449 229.84 181.813 230.21 182.262 230.21Z" fill="white"/>
<path opacity="0.2" d="M171.159 244.12C172.729 244.12 174.002 242.825 174.002 241.228C174.002 239.63 172.729 238.336 171.159 238.336C169.588 238.336 168.316 239.63 168.316 241.228C168.316 242.825 169.588 244.12 171.159 244.12Z" fill="white"/>
<g opacity="0.4">
<path opacity="0.6" d="M169.534 243.049C168.451 241.948 168.451 240.02 169.534 238.918C169.669 238.78 169.94 238.643 170.076 238.505C169.669 238.643 169.399 238.918 169.128 239.194C168.045 240.295 168.045 242.223 169.128 243.325C170.076 244.289 171.43 244.427 172.648 243.738C171.565 244.151 170.346 243.876 169.534 243.049Z" fill="url(#paint12_linear_59_53)"/>
</g>
<path opacity="0.3" d="M172.106 240.263C172.405 240.263 172.648 240.017 172.648 239.712C172.648 239.408 172.405 239.161 172.106 239.161C171.807 239.161 171.565 239.408 171.565 239.712C171.565 240.017 171.807 240.263 172.106 240.263Z" fill="white"/>
<path opacity="0.2" d="M188.625 242.054C190.195 242.054 191.468 240.759 191.468 239.162C191.468 237.565 190.195 236.27 188.625 236.27C187.055 236.27 185.782 237.565 185.782 239.162C185.782 240.759 187.055 242.054 188.625 242.054Z" fill="white"/>
<g opacity="0.4">
<path opacity="0.6" d="M187 240.984C185.917 239.882 185.917 237.954 187 236.852C187.136 236.714 187.406 236.577 187.542 236.439C187.136 236.577 186.865 236.852 186.594 237.128C185.511 238.229 185.511 240.158 186.594 241.259C187.542 242.223 188.895 242.361 190.114 241.672C189.031 242.086 187.813 241.81 187 240.984Z" fill="url(#paint13_linear_59_53)"/>
</g>
<path opacity="0.3" d="M189.572 238.2C189.871 238.2 190.114 237.953 190.114 237.649C190.114 237.345 189.871 237.098 189.572 237.098C189.273 237.098 189.031 237.345 189.031 237.649C189.031 237.953 189.273 238.2 189.572 238.2Z" fill="white"/>
<path opacity="0.2" d="M145.029 235.719C148.468 235.719 151.257 232.883 151.257 229.384C151.257 225.886 148.468 223.049 145.029 223.049C141.589 223.049 138.801 225.886 138.801 229.384C138.801 232.883 141.589 235.719 145.029 235.719Z" fill="white"/>
<g opacity="0.4">
<path opacity="0.6" d="M141.513 233.377C139.076 230.898 139.076 226.904 141.513 224.425C141.919 224.012 142.325 223.736 142.867 223.461C142.054 223.736 141.377 224.287 140.701 224.838C138.264 227.317 138.264 231.311 140.701 233.79C142.731 235.856 145.845 236.269 148.282 234.754C145.981 235.718 143.273 235.305 141.513 233.377Z" fill="url(#paint14_linear_59_53)"/>
</g>
<path opacity="0.3" d="M147.196 227.455C147.943 227.455 148.55 226.839 148.55 226.078C148.55 225.317 147.943 224.701 147.196 224.701C146.448 224.701 145.842 225.317 145.842 226.078C145.842 226.839 146.448 227.455 147.196 227.455Z" fill="white"/>
<path opacity="0.2" d="M200.696 220.155C204.135 220.155 206.924 217.319 206.924 213.82C206.924 210.321 204.135 207.485 200.696 207.485C197.256 207.485 194.468 210.321 194.468 213.82C194.468 217.319 197.256 220.155 200.696 220.155Z" fill="white"/>
<g opacity="0.4">
<path opacity="0.6" d="M197.018 217.815C194.581 215.336 194.581 211.342 197.018 208.863C197.424 208.45 197.83 208.174 198.372 207.899C197.56 208.174 196.883 208.725 196.206 209.276C193.769 211.755 193.769 215.749 196.206 218.228C198.237 220.294 201.351 220.707 203.788 219.192C201.486 220.156 198.914 219.743 197.018 217.815Z" fill="url(#paint15_linear_59_53)"/>
</g>
<path opacity="0.3" d="M202.84 211.893C203.588 211.893 204.194 211.277 204.194 210.516C204.194 209.756 203.588 209.139 202.84 209.139C202.092 209.139 201.486 209.756 201.486 210.516C201.486 211.277 202.092 211.893 202.84 211.893Z" fill="white"/>
</g>
<defs>
<filter id="filter0_d_59_53" x="0" y="0" width="343" height="343" filterUnits="userSpaceOnUse" color-interpolation-filters="sRGB">
<feFlood flood-opacity="0" result="BackgroundImageFix"/>
<feColorMatrix in="SourceAlpha" type="matrix" values="0 0 0 0 0 0 0 0 0 0 0 0 0 0 0 0 0 0 127 0" result="hardAlpha"/>
<feMorphology radius="8" operator="dilate" in="SourceAlpha" result="effect1_dropShadow_59_53"/>
<feOffset dy="4"/>
<feGaussianBlur stdDeviation="16"/>
<feComposite in2="hardAlpha" operator="out"/>
<feColorMatrix type="matrix" values="0 0 0 0 0 0 0 0 0 0 0 0 0 0 0 0 0 0 0.81 0"/>
<feBlend mode="normal" in2="BackgroundImageFix" result="effect1_dropShadow_59_53"/>
<feBlend mode="normal" in="SourceGraphic" in2="effect1_dropShadow_59_53" result="shape"/>
</filter>
<filter id="filter1_d_59_53" x="63" y="56" width="216.681" height="232.195" filterUnits="userSpaceOnUse" color-interpolation-filters="sRGB">
<feFlood flood-opacity="0" result="BackgroundImageFix"/>
<feColorMatrix in="SourceAlpha" type="matrix" values="0 0 0 0 0 0 0 0 0 0 0 0 0 0 0 0 0 0 127 0" result="hardAlpha"/>
<feOffset dy="4"/>
<feGaussianBlur stdDeviation="11.5"/>
<feComposite in2="hardAlpha" operator="out"/>
<feColorMatrix type="matrix" values="0 0 0 0 0 0 0 0 0 0 0 0 0 0 0 0 0 0 0.4 0"/>
<feBlend mode="normal" in2="BackgroundImageFix" result="effect1_dropShadow_59_53"/>
<feBlend mode="normal" in="SourceGraphic" in2="effect1_dropShadow_59_53" result="shape"/>
</filter>
<linearGradient id="paint0_linear_59_53" x1="59" y1="47.5" x2="264" y2="276" gradientUnits="userSpaceOnUse">
<stop stop-color="#251558"/>
<stop offset="1" stop-color="#070313"/>
</linearGradient>
<radialGradient id="paint1_radial_59_53" cx="0" cy="0" r="1" gradientUnits="userSpaceOnUse" gradientTransform="translate(249.924 100.342) scale(60.5109 61.553)">
<stop stop-color="#FFEAFF" stop-opacity="0.6"/>
<stop offset="0.681" stop-color="#A087C9"/>
<stop offset="1" stop-color="#10002F"/>
</radialGradient>
<radialGradient id="paint2_radial_59_53" cx="0" cy="0" r="1" gradientUnits="userSpaceOnUse" gradientTransform="translate(216.258 126.592) scale(148.049 150.598)">
<stop stop-color="#FFEAFF" stop-opacity="0.6"/>
<stop offset="0.681" stop-color="#A087C9"/>
<stop offset="1" stop-color="#10002F"/>
</radialGradient>
<linearGradient id="paint3_linear_59_53" x1="154.01" y1="255.56" x2="179.035" y2="103.781" gradientUnits="userSpaceOnUse">
<stop stop-color="#81FFFF"/>
<stop offset="0.62" stop-color="white" stop-opacity="0"/>
</linearGradient>
<linearGradient id="paint4_linear_59_53" x1="219.487" y1="127.385" x2="155.93" y2="184.713" gradientUnits="userSpaceOnUse">
<stop offset="0.289" stop-color="white"/>
<stop offset="0.78" stop-color="white" stop-opacity="0"/>
</linearGradient>
<linearGradient id="paint5_linear_59_53" x1="94.184" y1="215.5" x2="238.006" y2="215.5" gradientUnits="userSpaceOnUse">
<stop stop-color="#0002E9"/>
<stop offset="0.995" stop-color="#FF00C7"/>
</linearGradient>
<linearGradient id="paint6_linear_59_53" x1="244.814" y1="185.395" x2="165.273" y2="259.293" gradientUnits="userSpaceOnUse">
<stop offset="0.289" stop-color="white"/>
<stop offset="0.78" stop-color="white" stop-opacity="0"/>
</linearGradient>
<linearGradient id="paint7_linear_59_53" x1="94.184" y1="215.499" x2="171.128" y2="215.499" gradientUnits="userSpaceOnUse">
<stop stop-color="#000292"/>
<stop offset="0.995" stop-color="#7D00C7"/>
</linearGradient>
<linearGradient id="paint8_linear_59_53" x1="94.2808" y1="185.741" x2="237.91" y2="185.741" gradientUnits="userSpaceOnUse">
<stop stop-color="#000292"/>
<stop offset="0.995" stop-color="#BE00C7"/>
</linearGradient>
<linearGradient id="paint9_linear_59_53" x1="235.554" y1="107.382" x2="224.973" y2="124.284" gradientUnits="userSpaceOnUse">
<stop offset="0.289" stop-color="white"/>
<stop offset="0.78" stop-color="white" stop-opacity="0"/>
</linearGradient>
<linearGradient id="paint10_linear_59_53" x1="157.312" y1="233.389" x2="163.04" y2="233.389" gradientUnits="userSpaceOnUse">
<stop offset="0.289" stop-color="white"/>
<stop offset="0.78" stop-color="white" stop-opacity="0"/>
</linearGradient>
<linearGradient id="paint11_linear_59_53" x1="177.065" y1="231.436" x2="182.793" y2="231.436" gradientUnits="userSpaceOnUse">
<stop offset="0.289" stop-color="white"/>
<stop offset="0.78" stop-color="white" stop-opacity="0"/>
</linearGradient>
<linearGradient id="paint12_linear_59_53" x1="168.298" y1="241.292" x2="172.598" y2="241.292" gradientUnits="userSpaceOnUse">
<stop offset="0.289" stop-color="white"/>
<stop offset="0.78" stop-color="white" stop-opacity="0"/>
</linearGradient>
<linearGradient id="paint13_linear_59_53" x1="185.705" y1="239.221" x2="190.006" y2="239.221" gradientUnits="userSpaceOnUse">
<stop offset="0.289" stop-color="white"/>
<stop offset="0.78" stop-color="white" stop-opacity="0"/>
</linearGradient>
<linearGradient id="paint14_linear_59_53" x1="138.811" y1="229.544" x2="148.165" y2="229.544" gradientUnits="userSpaceOnUse">
<stop offset="0.289" stop-color="white"/>
<stop offset="0.78" stop-color="white" stop-opacity="0"/>
</linearGradient>
<linearGradient id="paint15_linear_59_53" x1="194.368" y1="213.978" x2="203.722" y2="213.978" gradientUnits="userSpaceOnUse">
<stop offset="0.289" stop-color="white"/>
<stop offset="0.78" stop-color="white" stop-opacity="0"/>
</linearGradient>
</defs>
</svg>
