<svg width="625" height="625" viewBox="0 0 625 625" fill="none" xmlns="http://www.w3.org/2000/svg">
<g filter="url(#filter0_d_59_53)">
<rect x="181" y="177" width="263" height="263" rx="30" fill="url(#paint0_linear_59_53)"/>
</g>
<path d="M389.291 251.83C383.64 244.474 367.628 231.6 359.151 227.922C353.5 226.083 347.849 225.163 343.14 227.002C340.314 228.842 337.488 230.681 336.547 234.359C335.605 238.037 335.605 241.715 336.547 244.474C333.721 245.393 329.953 246.313 327.128 247.232C320.535 245.393 313.942 244.474 307.349 244.474C265.907 244.474 232 277.577 232 318.037C232 358.497 265.907 391.6 307.349 391.6C348.791 391.6 382.698 358.497 382.698 318.037C382.698 307.003 379.872 296.888 376.105 287.692C375.163 284.934 375.163 278.497 377.046 276.658C377.046 275.738 377.988 275.738 377.988 275.738H380.814C382.698 275.738 384.581 275.738 386.465 274.819C390.233 272.98 393.058 269.301 394 265.623C393.058 260.106 392.116 255.508 389.291 251.83ZM306.407 380.566C270.616 380.566 242.36 352.06 242.36 318.037C242.36 284.014 271.558 255.508 306.407 255.508C342.198 255.508 370.453 284.014 370.453 318.037C370.453 352.06 342.198 380.566 306.407 380.566ZM379.872 263.784C378.93 263.784 377.988 263.784 376.105 262.865L374.221 260.106C374.221 260.106 369.512 263.784 366.686 269.301C366.686 270.221 365.744 270.221 365.744 271.14C359.151 262.865 351.616 256.428 342.198 251.83C343.14 250.911 344.081 250.911 345.023 249.991C348.791 247.232 351.616 243.554 351.616 243.554L345.965 238.956V236.198C345.965 236.198 345.965 235.278 346.907 235.278C348.791 234.359 351.616 234.359 354.442 236.198C361.035 238.956 376.105 250.911 380.814 256.428C381.756 258.267 382.698 259.186 381.756 261.025C381.756 262.865 380.814 263.784 379.872 263.784Z" fill="#1F294A"/>
<path fill-rule="evenodd" clip-rule="evenodd" d="M302.216 308.198C315.298 304.492 327.439 302.635 338.656 303.563C354.536 304.483 366.686 308.198 366.686 315.628C366.686 349.044 339.589 376.888 305.955 376.888C272.312 376.888 245.214 348.106 246.147 315.628C246.147 307.269 254.558 308.198 271.379 310.055C279.79 310.984 290.066 311.913 302.216 308.198Z" fill="#1F294A"/>
<defs>
<filter id="filter0_d_59_53" x="0" y="0" width="625" height="625" filterUnits="userSpaceOnUse" color-interpolation-filters="sRGB">
<feFlood flood-opacity="0" result="BackgroundImageFix"/>
<feColorMatrix in="SourceAlpha" type="matrix" values="0 0 0 0 0 0 0 0 0 0 0 0 0 0 0 0 0 0 127 0" result="hardAlpha"/>
<feMorphology radius="49" operator="dilate" in="SourceAlpha" result="effect1_dropShadow_59_53"/>
<feOffset dy="4"/>
<feGaussianBlur stdDeviation="66"/>
<feComposite in2="hardAlpha" operator="out"/>
<feColorMatrix type="matrix" values="0 0 0 0 0 0 0 0 0 0 0 0 0 0 0 0 0 0 0.39 0"/>
<feBlend mode="normal" in2="BackgroundImageFix" result="effect1_dropShadow_59_53"/>
<feBlend mode="normal" in="SourceGraphic" in2="effect1_dropShadow_59_53" result="shape"/>
</filter>
<linearGradient id="paint0_linear_59_53" x1="312.5" y1="177" x2="312.5" y2="440" gradientUnits="userSpaceOnUse">
<stop stop-color="#6D7EBE"/>
<stop offset="1" stop-color="#273259"/>
</linearGradient>
</defs>
</svg>
