<svg width="150" height="150" viewBox="0 0 150 150" fill="none" xmlns="http://www.w3.org/2000/svg">
<path d="M150 86.3001V125.4C150 127 149.1 128.4 147.8 129.2L112.3 149.4C111.7 149.8 110.9 149.9 110.2 149.9L101.4 126.4L110.2 105.6L129.9 86.0001L149.4 84.1001C149.8 84.8001 150 85.5001 150 86.3001Z" fill="#76E29E"/>
<path d="M110.2 105.8V150C109.5 150 108.7 149.8 108.1 149.5L72.9 129.3C71.6 128.5 70.7 127.1 70.7 125.5V86.3001C70.7 85.5001 70.9 84.8001 71.3 84.1001L91.2 86.4001L110.2 105.8Z" fill="#B7EACA"/>
<path d="M149.4 84.0998L110.2 105.7L71.2 84.0998C71.6 83.4998 72.2 82.8998 72.9 82.4998C72.9 82.4998 108.2 62.1998 108.3 62.1998C108.9 61.8998 109.5 61.7998 110.1 61.7998C110.7 61.7998 111.3 61.9998 111.9 62.1998C112 62.1998 147.6 82.4998 147.6 82.4998C148.4 82.8998 148.9 83.4998 149.4 84.0998Z" fill="#D7F9E3"/>
<path d="M149.4 84.0998L110.2 105.7V61.7998C110.8 61.7998 111.4 61.9998 112 62.1998C112.1 62.1998 147.7 82.4998 147.7 82.4998C148.4 82.8998 148.9 83.4998 149.4 84.0998Z" fill="#B6EAC9"/>
<path d="M79.1 24.8V63.6C79.1 65.2 78.2 66.6 76.9 67.4L41.7 87.7C41.1 88.1 40.3 88.2 39.6 88.2L30.8 64.7L39.6 44.2L59.4 24.4L78.6 22.5C78.9 23.3 79.1 24 79.1 24.8Z" fill="#76E29E"/>
<path d="M39.6 44.2001V88.1001C38.9 88.1001 38.1 87.9001 37.5 87.6001L2.2 67.4001C0.9 66.7001 0 65.2001 0 63.7001V24.8001C0 24.0001 0.2 23.3001 0.6 22.6001L20.5 24.9001L39.6 44.2001Z" fill="#B7EACA"/>
<path d="M78.5 22.6L39.6 44.2L0.599976 22.6C0.999976 22 1.59998 21.4 2.29998 21C2.29998 21 37.6 0.4 37.7 0.4C38.3 0.2 38.9 0 39.6 0C40.2 0 40.8 0.2 41.4 0.4C41.5 0.4 76.8 21 76.8 21C77.5 21.4 78 22 78.5 22.6Z" fill="#D7F9E3"/>
<path d="M78.5 22.6L39.6 44.2V0C40.2 0 40.8 0.2 41.4 0.4C41.5 0.4 76.8 21 76.8 21C77.5 21.4 78 22 78.5 22.6Z" fill="#B6EAC9"/>
<path d="M114.6 48.6002V83.8002C114.6 86.3002 112.7 88.2002 110.2 88.2002C107.7 88.2002 105.8 86.3002 105.8 83.8002V53.0002H65.9C63.4 53.0002 61.5 51.1002 61.5 48.6002C61.5 46.1002 63.4 44.2002 65.9 44.2002H110.1C112.6 44.2002 114.6 46.2002 114.6 48.6002Z" fill="#909090"/>
<path d="M114.6 48.6002V83.8002C114.6 86.3002 112.7 88.2002 110.2 88.2002V44.2002C112.6 44.2002 114.6 46.2002 114.6 48.6002Z" fill="#BFBFBF"/>
</svg>
