<svg width="541" height="586" viewBox="0 0 541 586" fill="none" xmlns="http://www.w3.org/2000/svg">
<g filter="url(#filter0_d_59_33)">
<rect x="181.918" y="177" width="224" height="224" rx="30" fill="url(#paint0_linear_59_33)"/>
</g>
<path d="M333.71 256.573C332.361 258.274 329.809 258.465 328.247 256.925C317.452 246.262 306.878 240.219 289.96 241.085C282.854 241.451 273.108 247.215 273.555 255.333C274.86 279.856 335.771 274.165 337.663 309.82C338.851 332.26 315.465 342.893 296.083 343.898C276.914 344.881 263.875 338.603 251.078 326.1C249.582 324.655 249.656 322.25 251.218 320.871C252.64 319.61 254.811 319.683 256.19 320.989C267.498 331.813 277.72 337.833 295.071 336.946C304.274 336.484 314.798 330.346 314.262 320.153C313.14 299.121 253.278 303.352 251.408 268.145C250.22 245.705 268.275 235.174 288.94 234.103C308.3 233.099 320.254 239.449 333.307 251.762C334.686 253.045 334.847 255.099 333.71 256.573Z" fill="#1F294A"/>
<defs>
<filter id="filter0_d_59_33" x="0.918091" y="0" width="586" height="586" filterUnits="userSpaceOnUse" color-interpolation-filters="sRGB">
<feFlood flood-opacity="0" result="BackgroundImageFix"/>
<feColorMatrix in="SourceAlpha" type="matrix" values="0 0 0 0 0 0 0 0 0 0 0 0 0 0 0 0 0 0 127 0" result="hardAlpha"/>
<feMorphology radius="49" operator="dilate" in="SourceAlpha" result="effect1_dropShadow_59_33"/>
<feOffset dy="4"/>
<feGaussianBlur stdDeviation="66"/>
<feComposite in2="hardAlpha" operator="out"/>
<feColorMatrix type="matrix" values="0 0 0 0 0 0 0 0 0 0 0 0 0 0 0 0 0 0 0.39 0"/>
<feBlend mode="normal" in2="BackgroundImageFix" result="effect1_dropShadow_59_33"/>
<feBlend mode="normal" in="SourceGraphic" in2="effect1_dropShadow_59_33" result="shape"/>
</filter>
<linearGradient id="paint0_linear_59_33" x1="293.918" y1="177" x2="293.918" y2="401" gradientUnits="userSpaceOnUse">
<stop stop-color="#6D7EBE"/>
<stop offset="1" stop-color="#273259"/>
</linearGradient>
</defs>
</svg>
