<svg width="305" height="304" viewBox="0 0 305 304" fill="none" xmlns="http://www.w3.org/2000/svg">
<g filter="url(#filter0_d_59_33)">
<rect x="40.918" y="36" width="224" height="224" rx="30" fill="url(#paint0_linear_59_33)"/>
</g>
<path d="M192.71 115.573C191.361 117.274 188.809 117.465 187.247 115.925C176.452 105.262 165.878 99.2194 148.96 100.085C141.854 100.451 132.108 106.215 132.555 114.333C133.86 138.856 194.771 133.165 196.663 168.82C197.851 191.26 174.465 201.893 155.083 202.898C135.914 203.881 122.875 197.603 110.078 185.1C108.582 183.655 108.656 181.25 110.218 179.871C111.64 178.61 113.811 178.683 115.19 179.989C126.498 190.813 136.72 196.833 154.071 195.946C163.274 195.484 173.798 189.346 173.262 179.153C172.14 158.121 112.278 162.352 110.408 127.145C109.22 104.705 127.275 94.174 147.94 93.1034C167.3 92.0987 179.254 98.4494 192.307 110.762C193.686 112.045 193.847 114.099 192.71 115.573Z" fill="#DADADA"/>
<defs>
<filter id="filter0_d_59_33" x="0.917969" y="0" width="304" height="304" filterUnits="userSpaceOnUse" color-interpolation-filters="sRGB">
<feFlood flood-opacity="0" result="BackgroundImageFix"/>
<feColorMatrix in="SourceAlpha" type="matrix" values="0 0 0 0 0 0 0 0 0 0 0 0 0 0 0 0 0 0 127 0" result="hardAlpha"/>
<feMorphology radius="8" operator="dilate" in="SourceAlpha" result="effect1_dropShadow_59_33"/>
<feOffset dy="4"/>
<feGaussianBlur stdDeviation="16"/>
<feComposite in2="hardAlpha" operator="out"/>
<feColorMatrix type="matrix" values="0 0 0 0 0 0 0 0 0 0 0 0 0 0 0 0 0 0 0.81 0"/>
<feBlend mode="normal" in2="BackgroundImageFix" result="effect1_dropShadow_59_33"/>
<feBlend mode="normal" in="SourceGraphic" in2="effect1_dropShadow_59_33" result="shape"/>
</filter>
<linearGradient id="paint0_linear_59_33" x1="152.918" y1="36" x2="152.918" y2="260" gradientUnits="userSpaceOnUse">
<stop stop-color="#1A1A1A"/>
<stop offset="1" stop-color="#020202"/>
</linearGradient>
</defs>
</svg>
