<svg width="582" height="581" viewBox="0 0 582 581" fill="none" xmlns="http://www.w3.org/2000/svg">
<g filter="url(#filter0_d_58_11)">
<rect x="181.918" y="177" width="219" height="219" rx="28" fill="url(#paint0_linear_58_11)"/>
</g>
<path fill-rule="evenodd" clip-rule="evenodd" d="M272.203 360.256C272.146 360.268 272.088 360.273 272.029 360.273C265.533 360.273 260.174 357.368 255.979 351.551C251.829 345.97 249.62 339.247 249.674 332.361C249.674 325.302 250.751 318.827 252.887 312.933C250.169 308.121 248.805 302.464 248.805 295.955C248.805 289.901 249.882 284.515 252.019 279.787C254.251 274.974 256.639 271.141 259.193 268.271C256.639 271.141 254.242 274.974 252.028 279.787C249.882 284.515 248.814 289.901 248.814 295.955C248.814 302.464 250.169 308.129 252.896 312.933C250.695 319.181 249.608 325.749 249.683 332.352C249.615 339.37 251.905 346.218 256.205 351.855V351.872C260.07 357.064 264.89 359.85 270.649 360.23C271.169 360.258 271.691 360.266 272.212 360.256H272.203ZM255.484 316.876C260.921 323.707 268.946 327.117 279.568 327.117C270.31 327.117 263.023 324.526 257.708 319.342C256.915 318.568 256.172 317.748 255.484 316.885V316.876ZM256.075 333.509C256.075 329.515 256.387 325.826 257.013 322.465C262.806 327.447 270.405 329.853 279.568 329.853C287.298 329.853 294.22 328.553 300.256 325.885C306.249 323.217 311.069 319.468 314.604 314.622C318.013 309.916 320.571 304.68 322.169 299.138V299.121C323.808 293.432 324.635 287.552 324.627 281.644C324.627 275.768 323.394 265.122 320.996 249.865C325.574 245.728 329.161 241.836 331.679 238.155C334.563 234.069 336.091 229.797 335.996 225.406L335.987 225.288C335.787 222.274 334.849 219.589 332.991 217.428C330.984 215.089 328.214 214 325.026 214C322.169 214 319.546 214.642 317.236 216.018C314.934 217.386 313.11 219.395 311.721 221.886C308.976 226.782 307.76 233.79 307.76 242.554C307.76 244.816 307.882 247.096 308.108 249.392L294.88 259.862C291.007 257.151 286.204 255.877 280.68 255.877C276.106 255.864 271.591 256.869 267.478 258.815C263.44 260.681 259.957 263.239 257.056 266.472C254.277 269.596 251.758 273.691 249.457 278.655V278.672C247.129 283.806 246 289.581 246 295.946C246 302.363 247.251 308.129 249.839 313.153C247.841 319.063 246.869 325.471 246.869 332.352C246.869 339.968 249.144 346.916 253.678 353.122C258.333 359.555 264.491 363 272.038 363C272.662 363.009 273.276 362.847 273.81 362.534C274.345 362.22 274.778 361.767 275.061 361.227C275.408 360.523 275.547 359.74 275.46 358.964C275.465 358.274 275.308 357.593 275 356.971C274.725 356.437 274.302 355.988 273.779 355.675C273.255 355.362 272.653 355.197 272.038 355.198C267.591 355.198 263.874 353.257 260.773 348.841C257.628 344.319 255.988 338.967 256.075 333.509ZM296.6 319.308C300.391 317.099 303.576 314.031 305.884 310.367C311.069 302.144 313.666 292.181 313.666 280.479C313.666 277.609 312.919 268.879 311.443 254.306L311.764 257.557C313.032 270.187 313.666 277.82 313.666 280.471C313.666 292.181 311.061 302.144 305.884 310.367C303.575 314.035 300.386 317.106 296.591 319.316L296.6 319.308ZM293.899 268.144C294.802 270.238 295.262 272.408 295.262 274.662C295.262 280.091 293.117 284.971 288.835 289.31C293.117 284.971 295.262 280.091 295.262 274.662C295.263 272.422 294.8 270.205 293.899 268.144ZM281.739 293.658L281.861 293.633C281.821 293.642 281.78 293.65 281.739 293.658ZM279.073 293.971C279.161 294.661 279.464 295.309 279.942 295.828C280.51 296.238 281.206 296.444 281.913 296.411H282C281.971 296.411 281.942 296.411 281.913 296.411C281.205 296.442 280.509 296.233 279.942 295.82C279.464 295.301 279.161 294.653 279.073 293.962V293.971ZM289.869 267.46C273.367 280.918 262.111 293.574 256.075 305.445C255.465 306.638 254.897 307.852 254.373 309.084C260.053 295.676 272.611 281.214 292.049 265.704C289.409 263.07 285.795 261.744 281.175 261.744C284.606 261.744 287.489 262.479 289.825 263.94C290.633 264.446 291.371 265.029 292.049 265.704L289.878 267.452L289.869 267.46ZM287.524 265.797C272.516 278.124 261.651 289.927 255.172 301.24C254.404 295.88 254.918 290.419 256.674 285.283L256.683 285.249C259.488 276.587 264.022 270.711 270.119 267.249C273.481 265.377 277.301 264.421 281.175 264.48C283.754 264.48 285.839 264.944 287.533 265.797H287.524ZM272.681 291.801C278.751 285.072 285.323 278.788 292.344 272.999C292.414 273.548 292.448 274.096 292.448 274.662C292.448 279.306 290.642 283.527 286.803 287.419L286.777 287.453C284.206 290.138 281.661 291.235 279.073 291.235H275.686L276.311 294.469C276.503 295.717 277.088 296.877 277.987 297.787L278.074 297.871L278.17 297.956C279.299 298.842 280.645 299.138 281.913 299.138C286.438 299.138 290.503 297.888 293.986 295.339V295.33C297.364 292.848 299.831 289.91 301.203 286.49C302.611 283.022 303.31 279.319 303.261 275.591C303.261 272.18 302.419 269.022 300.743 266.16L309.141 259.6C310.296 271.2 310.852 278.098 310.852 280.479C310.852 291.793 308.342 301.232 303.478 308.94C301.08 312.731 297.654 315.806 293.577 317.83L293.525 317.864C289.4 320.085 284.493 321.241 278.708 321.241C269.997 321.241 263.831 318.396 259.723 312.883C262.692 305.15 267.082 298.006 272.681 291.801ZM329.725 225.921C329.725 230.548 326.494 236.087 320.05 242.545C319.251 243.347 318.4 244.166 317.488 244.994C325.652 237.48 329.725 231.122 329.725 225.921C329.725 221.894 328.162 219.876 325.035 219.876C325.032 219.876 325.029 219.876 325.026 219.876C328.153 219.876 329.716 221.894 329.716 225.921H329.725ZM324.279 233.14C323.15 234.913 321.639 236.813 319.755 238.847C319.711 238.108 319.688 237.367 319.685 236.627C319.685 231.173 320.362 227.475 321.457 225.229C321.806 224.415 322.366 223.703 323.081 223.161C323.652 222.78 324.334 222.587 325.026 222.612C325.912 222.612 326.155 222.857 326.303 223.034C326.555 223.363 326.911 224.174 326.911 225.921C326.911 227.829 326.155 230.219 324.279 233.14Z" fill="#202B4E"/>
<defs>
<filter id="filter0_d_58_11" x="0.918335" y="0" width="581" height="581" filterUnits="userSpaceOnUse" color-interpolation-filters="sRGB">
<feFlood flood-opacity="0" result="BackgroundImageFix"/>
<feColorMatrix in="SourceAlpha" type="matrix" values="0 0 0 0 0 0 0 0 0 0 0 0 0 0 0 0 0 0 127 0" result="hardAlpha"/>
<feMorphology radius="49" operator="dilate" in="SourceAlpha" result="effect1_dropShadow_58_11"/>
<feOffset dy="4"/>
<feGaussianBlur stdDeviation="66"/>
<feComposite in2="hardAlpha" operator="out"/>
<feColorMatrix type="matrix" values="0 0 0 0 0 0 0 0 0 0 0 0 0 0 0 0 0 0 0.39 0"/>
<feBlend mode="normal" in2="BackgroundImageFix" result="effect1_dropShadow_58_11"/>
<feBlend mode="normal" in="SourceGraphic" in2="effect1_dropShadow_58_11" result="shape"/>
</filter>
<linearGradient id="paint0_linear_58_11" x1="291.418" y1="177" x2="291.418" y2="396" gradientUnits="userSpaceOnUse">
<stop stop-color="#6D7EBE"/>
<stop offset="1" stop-color="#273259"/>
</linearGradient>
</defs>
</svg>
