<svg width="150" height="150" viewBox="0 0 150 150" fill="none" xmlns="http://www.w3.org/2000/svg">
<path d="M150 13.2V105.5L141.2 114.3H8.8L0 105.5V13.2C0 5.9 5.9 0 13.2 0H136.8C144.1 0 150 5.9 150 13.2Z" fill="#B6EAC9"/>
<path d="M150 13.2V105.5L141.2 114.3H75V0H136.8C144.1 0 150 5.9 150 13.2Z" fill="#76E29E"/>
<path d="M141.2 13.1998V96.6998H8.8V13.1998C8.8 10.6998 10.7 8.7998 13.2 8.7998H136.8C139.3 8.7998 141.2 10.6998 141.2 13.1998Z" fill="white"/>
<path d="M141.2 13.1998V96.6998H75V8.7998H136.8C139.3 8.7998 141.2 10.6998 141.2 13.1998Z" fill="#E5E5E5"/>
<path d="M53 118.7H97V145.7H53V118.7Z" fill="#BFBFBF"/>
<path d="M75 118.7H97V145.7H75V118.7Z" fill="#909090"/>
<path d="M105.1 35.5001L90.3 35.1001L75 52.7001L66.2 69.8001L75 87.8001C75.8 87.8001 76.5 87.6001 77.2 87.2001L103.7 71.6001C103.9 71.5001 104.1 71.3001 104.2 71.2001C105.2 70.3001 105.8 69.0001 105.8 67.8001V37.7001C105.8 36.9001 105.6 36.1001 105.1 35.5001Z" fill="#76E29E"/>
<path d="M59.6 35.2002L44.8 35.6002C44.4 36.3002 44.2 37.0002 44.2 37.8002V67.9002C44.2 69.1002 44.8 70.4002 45.8 71.3002C46 71.4002 72.8 87.3002 72.8 87.3002C73.5 87.7002 74.2 87.9002 75 87.9002V52.7002L59.6 35.2002Z" fill="#B7EACA"/>
<path d="M105.1 35.5001L75 52.7001L44.9 35.5001C45 35.4001 45.1 35.2001 45.2 35.1001C45.6 34.6001 46 34.2001 46.5 33.9001L72.9 18.2001C73.6 17.8001 74.4 17.6001 75.1 17.6001C75.8 17.6001 76.6 17.8001 77.3 18.2001L103.7 33.9001C104.2 34.3001 104.7 34.7001 105 35.1001C105 35.2001 105.1 35.4001 105.1 35.5001Z" fill="#D7F9E3"/>
<path d="M105.1 35.5001L75 52.7001V17.6001C75.7 17.6001 76.5 17.8001 77.2 18.2001L103.6 33.9001C104.1 34.3001 104.6 34.7001 104.9 35.1001C105 35.2001 105.1 35.4001 105.1 35.5001Z" fill="#B6EAC9"/>
<path d="M150 105.5V109.9C150 117.2 144.1 123.1 136.8 123.1H13.2C5.9 123 0 117.2 0 109.9V105.5H150Z" fill="#DDDDDD"/>
<path d="M150 105.5V109.9C150 117.2 144.1 123.1 136.8 123.1H75V105.5H150Z" fill="#A7AAA8"/>
<path d="M123.3 145.6C123.3 148.1 121.4 150 118.9 150H31.1C28.6 150 26.7 148.1 26.7 145.6C26.7 143.1 28.6 141.2 31.1 141.2H119C121.4 141.2 123.3 143.1 123.3 145.6Z" fill="#DDDDDD"/>
<path d="M123.3 145.6C123.3 148.1 121.4 150 118.9 150H75V141.2H118.9C121.4 141.2 123.3 143.1 123.3 145.6Z" fill="#A7AAA8"/>
</svg>
