<svg width="158" height="158" viewBox="0 0 158 158" fill="none" xmlns="http://www.w3.org/2000/svg">
<g filter="url(#filter0_d_708_34)">
<path d="M132.1 30.7L116.3 37.7C106.7 28.1 93.5 22.2 79 22.2C64.5 22.2 51.3 28.1 41.7 37.7L33.4 38.1L26.2 22.1C39.7 8.6 58.4 0 79 0C99.6 0 118.3 8.6 131.8 22.2L132.1 30.7Z" fill="#BFBFBF"/>
<path d="M116.3 37.7C106.7 28.1 93.5 22.2 79 22.2V0C99.6 0 118.3 8.6 131.8 22.2L132.1 30.7L116.3 37.7Z" fill="#76E29E"/>
<path d="M131.7 75.0002C131.7 89.5002 125.8 102.7 116.2 112.3L115.4 120.3L131.8 127.9C145.3 114.3 154 95.6002 154 75.0002C154 54.4002 145.3 35.7002 131.8 22.2002L116.3 37.7002C125.8 47.3002 131.7 60.5002 131.7 75.0002Z" fill="#76E29E"/>
<path d="M131.8 127.8C118.3 141.4 99.6 150 79 150C58.4 150 39.7 141.4 26.2 127.8L24.6 111.8L41.7 112.2C51.3 121.8 64.5 127.7 79 127.7C93.5 127.7 106.7 121.8 116.3 112.2L131.8 127.8Z" fill="#76E29E"/>
<path d="M116.3 112.3L131.9 127.9C118.3 141.4 99.6 150 79 150V127.7C93.5 127.7 106.7 121.8 116.3 112.3Z" fill="#76E29E"/>
<path d="M26.3 75.0002C26.3 60.5002 32.2 47.3002 41.8 37.7002L26.2 22.2002C12.7 35.7002 4 54.4002 4 75.0002C4 95.6002 12.7 114.3 26.2 127.8L41.7 112.3C32.2 102.7 26.3 89.5002 26.3 75.0002Z" fill="#76E29E"/>
<path d="M109.1 57.7999L94.3 57.3999L79 74.9999L70.2 92.0999L79 110.1C79.8 110.1 80.5 109.9 81.2 109.5L107.7 93.8999C107.9 93.7999 108.1 93.5999 108.2 93.4999C109.2 92.5999 109.8 91.2999 109.8 90.0999V59.9999C109.8 59.1999 109.6 58.3999 109.1 57.7999Z" fill="#76E29E"/>
<path d="M63.6 57.3999L48.8 57.7999C48.4 58.4999 48.2 59.1999 48.2 59.9999V90.0999C48.2 91.2999 48.8 92.5999 49.8 93.4999C50 93.5999 76.8 109.5 76.8 109.5C77.5 109.9 78.2 110.1 79 110.1V74.9999L63.6 57.3999Z" fill="#B7EACA"/>
<path d="M109.1 57.7999L79 74.9999L48.9 57.7999C49 57.6999 49.1 57.4999 49.2 57.3999C49.6 56.8999 50 56.4999 50.5 56.1999L76.9 40.4999C77.6 40.0999 78.4 39.8999 79.1 39.8999C79.8 39.8999 80.6 40.0999 81.3 40.4999L107.7 56.1999C108.2 56.5999 108.7 56.9999 109 57.3999C109 57.4999 109.1 57.6999 109.1 57.7999Z" fill="#D7F9E3"/>
<path d="M109.1 57.7998L79 74.9998V39.7998C79.7 39.7998 80.5 39.9998 81.2 40.3998L107.6 56.0998C108.1 56.4998 108.6 56.8998 108.9 57.2998C109 57.4998 109.1 57.6998 109.1 57.7998Z" fill="#B6EAC9"/>
</g>
<defs>
<filter id="filter0_d_708_34" x="0" y="0" width="158" height="158" filterUnits="userSpaceOnUse" color-interpolation-filters="sRGB">
<feFlood flood-opacity="0" result="BackgroundImageFix"/>
<feColorMatrix in="SourceAlpha" type="matrix" values="0 0 0 0 0 0 0 0 0 0 0 0 0 0 0 0 0 0 127 0" result="hardAlpha"/>
<feOffset dy="4"/>
<feGaussianBlur stdDeviation="2"/>
<feComposite in2="hardAlpha" operator="out"/>
<feColorMatrix type="matrix" values="0 0 0 0 0 0 0 0 0 0 0 0 0 0 0 0 0 0 0.25 0"/>
<feBlend mode="normal" in2="BackgroundImageFix" result="effect1_dropShadow_708_34"/>
<feBlend mode="normal" in="SourceGraphic" in2="effect1_dropShadow_708_34" result="shape"/>
</filter>
</defs>
</svg>
